<?xml version="1.0" encoding="UTF-8" ?>
<!DOCTYPE svg PUBLIC "-//W3C//DTD SVG 1.1//EN" "http://www.w3.org/Graphics/SVG/1.1/DTD/svg11.dtd">
<svg width="485pt" height="477pt" viewBox="0 0 485 477" version="1.1" xmlns="http://www.w3.org/2000/svg">
<g id="#b3d6d0ff">
<path fill="#b3d6d0" opacity="1.00" d=" M 0.00 0.00 L 485.00 0.00 L 485.00 477.00 L 0.00 477.00 L 0.00 0.00 M 91.82 81.18 C 77.53 81.10 62.60 80.26 48.68 81.68 C 46.47 92.51 48.88 104.76 47.98 116.00 C 44.70 127.58 63.04 116.00 65.19 123.00 C 57.83 142.25 57.55 163.92 62.22 183.84 C 63.17 189.10 56.70 190.27 55.94 195.11 C 51.92 201.12 56.62 212.36 63.85 216.11 C 66.97 216.41 64.71 221.86 67.63 220.72 C 68.38 223.26 69.70 225.59 71.15 227.79 C 70.91 230.36 72.14 232.71 72.80 235.12 C 75.15 240.85 71.40 247.49 74.11 252.98 C 66.11 253.90 53.51 249.26 49.77 258.86 C 47.81 262.95 51.34 268.97 55.98 268.98 C 57.27 271.59 63.48 268.93 65.97 270.01 C 66.09 312.98 65.90 355.96 66.04 398.94 C 87.02 399.08 108.02 399.01 129.00 398.97 L 130.00 398.97 C 153.99 399.07 177.98 398.95 201.98 399.01 C 201.40 401.87 205.19 401.25 206.99 401.96 C 225.88 404.34 244.98 404.75 264.00 404.99 C 268.95 407.56 278.66 405.30 285.26 405.74 C 314.71 406.11 344.25 406.34 373.68 405.60 C 381.58 406.21 391.75 406.94 398.00 405.00 C 419.67 404.67 441.49 404.35 462.93 400.84 C 462.92 400.43 462.90 399.61 462.89 399.21 C 450.64 396.38 437.85 395.97 425.34 396.17 C 420.96 377.29 418.37 358.05 414.26 339.12 C 424.61 336.92 424.27 321.31 414.00 319.93 C 414.13 315.32 414.04 310.69 414.00 306.10 C 421.42 306.25 427.93 300.22 429.02 293.01 C 430.79 287.06 430.56 273.82 429.08 268.09 C 431.65 261.52 427.87 254.47 429.86 247.96 C 430.60 240.20 425.44 229.03 424.07 219.98 C 423.35 212.62 418.18 204.20 409.82 205.05 C 409.48 202.79 405.45 203.27 404.09 204.49 C 402.73 204.15 401.36 203.95 399.97 203.90 C 396.66 202.95 393.97 201.20 396.32 195.50 C 402.11 192.14 405.94 186.78 407.37 180.28 C 414.29 178.45 418.36 168.83 412.72 163.59 C 414.53 153.82 418.61 140.44 410.20 132.82 C 404.23 130.64 403.09 122.86 397.04 120.93 C 387.64 116.23 376.91 116.16 366.80 114.21 C 366.77 116.40 372.45 119.39 367.84 119.02 C 367.64 117.05 364.21 117.48 363.04 118.48 C 357.92 117.68 361.74 126.53 357.84 128.83 C 352.42 137.33 353.20 148.35 352.91 158.02 C 347.28 160.32 347.87 171.77 354.73 173.35 C 354.59 183.61 361.08 193.18 370.76 196.58 C 370.82 198.08 370.96 199.56 371.19 201.05 C 370.79 201.95 370.45 202.87 370.17 203.82 C 359.73 205.31 346.52 203.88 341.17 215.22 C 341.18 208.99 346.87 201.90 343.79 196.03 L 344.06 195.08 C 329.63 194.81 315.19 195.19 300.77 194.86 C 302.02 193.80 303.99 192.98 303.46 191.01 C 304.68 184.31 306.82 177.73 307.98 171.03 C 304.63 164.92 309.41 166.39 311.97 165.83 C 311.45 158.76 311.90 150.62 306.88 147.05 C 303.19 147.05 295.81 147.04 292.12 147.04 C 295.96 154.08 285.71 155.21 283.03 150.89 C 282.98 154.03 282.91 157.12 282.85 160.28 C 279.25 158.08 284.10 153.32 280.09 151.86 C 279.87 156.33 280.15 160.82 279.20 165.24 C 278.98 160.25 279.03 155.25 279.16 150.27 C 283.04 149.87 286.96 149.76 290.91 149.94 C 290.80 135.25 291.78 119.98 290.32 105.68 C 282.09 104.09 272.83 105.62 264.24 104.47 C 250.38 78.62 224.84 59.93 196.66 52.42 C 160.17 42.98 117.71 53.30 91.82 81.18 Z" />
</g>
<g id="#fef0ebff">
<path fill="#fef0eb" opacity="1.00" d=" M 91.82 81.18 C 117.71 53.30 160.17 42.98 196.66 52.42 C 224.84 59.93 250.38 78.62 264.24 104.47 C 251.87 105.55 239.45 104.65 227.06 105.08 C 227.01 120.04 227.08 135.01 226.02 149.93 C 243.34 150.52 260.73 149.14 278.02 150.60 C 278.30 154.06 273.23 154.49 271.00 153.96 C 247.67 154.17 224.34 153.82 201.02 154.05 C 198.25 153.23 196.26 153.91 195.06 156.11 C 194.64 153.20 196.63 149.62 194.76 147.10 C 178.10 146.47 161.45 147.77 144.79 147.19 C 149.07 138.46 140.89 130.99 142.81 122.10 C 143.40 120.70 143.43 119.02 142.31 117.87 C 140.81 100.43 121.96 91.14 105.96 95.35 C 105.17 90.99 105.26 86.56 104.80 82.18 C 100.54 81.18 96.12 81.80 91.82 81.18 Z" />
</g>
<g id="#f7e2d9ff">
<path fill="#f7e2d9" opacity="1.00" d=" M 48.68 81.68 C 62.60 80.26 77.53 81.10 91.82 81.18 C 96.12 81.80 100.54 81.18 104.80 82.18 C 105.26 86.56 105.17 90.99 105.96 95.35 C 94.11 97.48 82.89 106.58 83.91 119.77 C 83.66 120.09 83.17 120.73 82.92 121.05 C 77.58 122.61 69.05 117.85 65.19 123.00 C 63.04 116.00 44.70 127.58 47.98 116.00 C 48.88 104.76 46.47 92.51 48.68 81.68 Z" />
</g>
<g id="#4b4a4aff">
<path fill="#4b4a4a" opacity="1.00" d=" M 105.96 95.35 C 121.96 91.14 140.81 100.43 142.31 117.87 C 141.63 119.24 141.45 121.06 142.81 122.10 C 140.89 130.99 149.07 138.46 144.79 147.19 C 143.82 148.27 142.86 149.35 141.89 150.43 C 139.37 135.57 145.41 116.25 131.06 105.77 C 128.69 103.51 125.90 101.71 122.86 100.48 C 117.17 97.96 110.62 99.13 104.80 100.55 C 100.23 101.81 95.89 104.78 93.60 108.99 C 91.45 115.49 91.39 122.99 92.42 129.57 C 98.77 134.10 100.19 143.64 94.87 149.51 C 91.29 147.85 97.19 143.34 95.83 140.15 C 94.94 137.28 93.65 128.84 89.92 133.95 C 87.74 133.46 85.55 133.07 83.33 132.83 C 83.02 132.30 82.39 131.24 82.07 130.72 C 82.50 129.90 82.89 129.07 83.24 128.21 C 83.67 125.41 83.84 122.59 83.91 119.77 C 82.89 106.58 94.11 97.48 105.96 95.35 Z" />
</g>
<g id="#e66d37ff">
<path fill="#e66d37" opacity="1.00" d=" M 104.80 100.55 C 110.62 99.13 117.17 97.96 122.86 100.48 C 124.96 106.57 130.80 112.35 129.04 119.96 C 125.36 119.93 118.00 119.88 114.32 119.86 C 112.49 113.07 111.60 104.36 104.80 100.55 Z" />
</g>
<g id="#ecebebff">
<path fill="#ecebeb" opacity="1.00" d=" M 93.60 108.99 C 95.89 104.78 100.23 101.81 104.80 100.55 C 111.60 104.36 112.49 113.07 114.32 119.86 C 118.00 119.88 125.36 119.93 129.04 119.96 C 130.80 112.35 124.96 106.57 122.86 100.48 C 125.90 101.71 128.69 103.51 131.06 105.77 C 133.69 113.25 140.45 119.37 138.85 128.01 C 137.60 140.12 143.10 154.95 134.29 165.10 C 134.48 165.46 134.87 166.19 135.06 166.56 C 133.68 167.71 132.28 168.84 130.87 169.96 C 130.53 168.33 133.13 164.40 130.14 164.98 C 124.76 164.97 119.38 164.77 114.02 165.07 C 112.14 165.10 113.13 168.21 112.44 169.46 C 109.09 166.96 105.58 164.67 102.05 162.48 C 106.40 158.31 114.97 165.78 118.28 158.88 L 118.89 159.41 C 120.21 159.46 122.85 159.55 124.17 159.60 C 126.54 158.08 129.13 156.23 129.52 153.21 C 131.92 145.85 117.41 151.62 113.36 150.16 C 113.60 154.02 110.49 154.67 107.17 154.99 C 99.26 156.49 106.61 146.17 102.47 142.51 C 98.71 131.58 107.13 115.13 93.60 108.99 M 113.20 134.31 C 108.48 135.01 109.16 141.75 113.80 141.69 C 118.52 140.99 117.84 134.25 113.20 134.31 M 132.20 134.29 C 127.97 135.18 128.54 141.64 132.80 141.69 C 137.52 140.98 136.84 134.28 132.20 134.29 Z" />
</g>
<g id="#f5e2d9ff">
<path fill="#f5e2d9" opacity="1.00" d=" M 264.24 104.47 C 272.83 105.62 282.09 104.09 290.32 105.68 C 291.78 119.98 290.80 135.25 290.91 149.94 C 286.96 149.76 283.04 149.87 279.16 150.27 C 278.88 150.36 278.30 150.52 278.02 150.60 C 260.73 149.14 243.34 150.52 226.02 149.93 C 227.08 135.01 227.01 120.04 227.06 105.08 C 239.45 104.65 251.87 105.55 264.24 104.47 M 270.40 116.00 C 270.12 121.92 269.78 127.85 270.07 133.78 C 275.63 135.34 281.36 134.08 286.99 134.69 C 287.05 128.82 286.92 122.95 287.66 117.11 C 283.14 113.76 275.75 117.07 270.40 116.00 Z" />
</g>
<g id="#d1e7e6ff">
<path fill="#d1e7e6" opacity="1.00" d=" M 131.06 105.77 C 145.41 116.25 139.37 135.57 141.89 150.43 C 141.29 156.23 139.89 162.73 135.06 166.56 C 134.87 166.19 134.48 165.46 134.29 165.10 C 143.10 154.95 137.60 140.12 138.85 128.01 C 140.45 119.37 133.69 113.25 131.06 105.77 Z" />
</g>
<g id="#dddddeff">
<path fill="#ddddde" opacity="1.00" d=" M 92.42 129.57 C 91.39 122.99 91.45 115.49 93.60 108.99 C 107.13 115.13 98.71 131.58 102.47 142.51 C 106.61 146.17 99.26 156.49 107.17 154.99 C 101.73 158.33 97.44 153.58 94.87 149.51 C 100.19 143.64 98.77 134.10 92.42 129.57 Z" />
</g>
<g id="#691e27ff">
<path fill="#691e27" opacity="1.00" d=" M 366.80 114.21 C 376.91 116.16 387.64 116.23 397.04 120.93 C 403.09 122.86 404.23 130.64 410.20 132.82 C 418.61 140.44 414.53 153.82 412.72 163.59 C 411.71 167.18 410.43 170.69 409.00 174.14 C 408.37 173.42 407.72 172.71 407.07 172.01 C 406.66 168.49 413.54 161.67 407.07 161.88 C 406.94 160.68 406.81 159.49 406.67 158.29 C 406.64 155.41 407.11 152.51 406.38 149.71 C 406.67 144.13 398.80 148.56 396.00 146.97 C 384.46 147.56 373.40 143.89 362.20 142.03 C 360.69 147.21 359.24 152.50 358.96 157.92 C 355.92 157.31 353.43 158.98 353.55 162.24 C 353.31 160.84 353.09 159.43 352.91 158.02 C 353.20 148.35 352.42 137.33 357.84 128.83 C 361.74 126.53 357.92 117.68 363.04 118.48 C 364.57 119.06 366.22 119.31 367.84 119.02 C 372.45 119.39 366.77 116.40 366.80 114.21 Z" />
</g>
<g id="#feece5ff">
<path fill="#feece5" opacity="1.00" d=" M 270.40 116.00 C 275.75 117.07 283.14 113.76 287.66 117.11 C 286.92 122.95 287.05 128.82 286.99 134.69 C 281.36 134.08 275.63 135.34 270.07 133.78 C 269.78 127.85 270.12 121.92 270.40 116.00 Z" />
</g>
<g id="#9d9493ff">
<path fill="#9d9493" opacity="1.00" d=" M 142.31 117.87 C 143.43 119.02 143.40 120.70 142.81 122.10 C 141.45 121.06 141.63 119.24 142.31 117.87 Z" />
</g>
<g id="#947979ff">
<path fill="#947979" opacity="1.00" d=" M 363.04 118.48 C 364.21 117.48 367.64 117.05 367.84 119.02 C 366.22 119.31 364.57 119.06 363.04 118.48 Z" />
</g>
<g id="#8d817eff">
<path fill="#8d817e" opacity="1.00" d=" M 82.92 121.05 C 83.17 120.73 83.66 120.09 83.91 119.77 C 83.84 122.59 83.67 125.41 83.24 128.21 C 83.16 126.42 83.00 122.84 82.92 121.05 Z" />
</g>
<g id="#fdf0ebff">
<path fill="#fdf0eb" opacity="1.00" d=" M 65.19 123.00 C 69.05 117.85 77.58 122.61 82.92 121.05 C 83.00 122.84 83.16 126.42 83.24 128.21 C 82.89 129.07 82.50 129.90 82.07 130.72 C 77.61 133.44 75.97 139.15 77.60 144.07 C 77.92 149.04 82.38 151.13 86.68 152.30 C 88.65 156.44 91.82 159.80 95.18 162.86 C 92.92 167.54 99.94 181.85 89.99 178.94 C 79.93 176.22 72.97 186.33 63.42 185.74 C 63.12 185.26 62.52 184.31 62.22 183.84 C 57.55 163.92 57.83 142.25 65.19 123.00 Z" />
</g>
<g id="#846c62ff">
<path fill="#846c62" opacity="1.00" d=" M 77.60 144.07 C 75.97 139.15 77.61 133.44 82.07 130.72 C 82.39 131.24 83.02 132.30 83.33 132.83 C 78.71 134.40 77.65 139.77 77.60 144.07 Z" />
</g>
<g id="#6d6966ff">
<path fill="#6d6966" opacity="1.00" d=" M 89.92 133.95 C 93.65 128.84 94.94 137.28 95.83 140.15 C 97.19 143.34 91.29 147.85 94.87 149.51 C 97.44 153.58 101.73 158.33 107.17 154.99 C 110.49 154.67 113.60 154.02 113.36 150.16 C 117.41 151.62 131.92 145.85 129.52 153.21 C 127.43 147.89 118.30 152.54 113.94 151.06 C 113.31 153.99 115.92 155.72 117.38 157.85 C 109.88 159.71 100.27 159.73 95.26 152.73 C 93.18 150.04 89.53 152.27 86.68 152.30 C 82.38 151.13 77.92 149.04 77.60 144.07 C 81.57 148.08 88.32 149.99 91.54 144.23 C 92.41 140.73 92.66 136.67 89.92 133.95 Z" />
</g>
<g id="#e67c4eff">
<path fill="#e67c4e" opacity="1.00" d=" M 83.33 132.83 C 85.55 133.07 87.74 133.46 89.92 133.95 C 92.66 136.67 92.41 140.73 91.54 144.23 C 88.32 149.99 81.57 148.08 77.60 144.07 C 77.65 139.77 78.71 134.40 83.33 132.83 Z" />
</g>
<g id="#b15b37ff">
<path fill="#b15b37" opacity="1.00" d=" M 113.20 134.31 C 117.84 134.25 118.52 140.99 113.80 141.69 C 109.16 141.75 108.48 135.01 113.20 134.31 Z" />
</g>
<g id="#b05932ff">
<path fill="#b05932" opacity="1.00" d=" M 132.20 134.29 C 136.84 134.28 137.52 140.98 132.80 141.69 C 128.54 141.64 127.97 135.18 132.20 134.29 Z" />
</g>
<g id="#f7b985ff">
<path fill="#f7b985" opacity="1.00" d=" M 362.20 142.03 C 373.40 143.89 384.46 147.56 396.00 146.97 C 398.80 148.56 406.67 144.13 406.38 149.71 C 406.32 152.56 406.03 155.47 406.67 158.29 C 406.81 159.49 406.94 160.68 407.07 161.88 C 405.74 161.88 404.42 161.88 403.10 161.88 C 401.55 161.70 398.45 161.33 396.90 161.15 C 394.96 161.04 393.03 160.95 391.11 160.85 C 389.55 160.68 386.45 160.33 384.90 160.15 C 383.20 160.08 379.80 159.92 378.10 159.85 C 376.55 159.68 373.45 159.36 371.89 159.19 C 370.27 159.03 368.64 158.86 367.03 158.67 C 364.51 157.15 362.12 157.03 359.88 158.30 L 358.96 157.92 C 359.24 152.50 360.69 147.21 362.20 142.03 M 361.96 152.07 C 361.84 158.04 370.74 155.82 374.97 156.98 C 376.81 149.67 366.06 153.81 361.96 152.07 M 391.01 156.04 C 390.29 159.29 391.94 160.35 395.98 159.20 C 397.91 158.38 405.65 162.24 404.88 157.22 C 401.30 154.09 395.32 156.91 391.01 156.04 Z" />
</g>
<g id="#f6e3dbff">
<path fill="#f6e3db" opacity="1.00" d=" M 141.89 150.43 C 142.86 149.35 143.82 148.27 144.79 147.19 C 161.45 147.77 178.10 146.47 194.76 147.10 C 196.63 149.62 194.64 153.20 195.06 156.11 C 194.95 157.97 194.95 159.84 194.90 161.70 C 190.25 162.62 195.73 170.64 190.96 171.12 C 191.02 168.08 190.50 165.07 189.70 162.15 C 182.55 161.97 175.36 161.57 168.23 162.18 C 166.11 163.15 167.64 165.48 167.81 167.15 C 169.58 174.90 167.27 184.25 175.90 188.05 C 177.89 195.32 180.50 202.41 182.33 209.73 C 176.83 209.90 171.34 209.95 165.85 210.19 C 165.48 209.86 164.74 209.20 164.37 208.86 C 162.60 205.37 162.13 201.51 161.89 197.65 C 161.50 186.62 147.51 186.65 140.27 181.64 C 136.47 177.30 129.95 180.35 124.99 179.17 C 124.97 176.46 124.94 173.76 124.91 171.07 C 125.26 170.88 125.96 170.51 126.30 170.32 C 129.37 170.18 130.54 167.79 130.14 164.98 C 133.13 164.40 130.53 168.33 130.87 169.96 C 132.28 168.84 133.68 167.71 135.06 166.56 C 139.89 162.73 141.29 156.23 141.89 150.43 Z" />
</g>
<g id="#a9d9d3ff">
<path fill="#a9d9d3" opacity="1.00" d=" M 292.12 147.04 C 295.81 147.04 303.19 147.05 306.88 147.05 C 311.90 150.62 311.45 158.76 311.97 165.83 C 309.41 166.39 304.63 164.92 307.98 171.03 C 306.82 177.73 304.68 184.31 303.46 191.01 C 303.99 192.98 302.02 193.80 300.77 194.86 C 294.57 195.03 288.38 194.88 282.20 195.11 C 283.72 193.24 287.20 192.74 287.06 189.88 C 282.81 191.91 278.03 191.26 273.60 192.64 C 273.79 192.05 274.17 190.85 274.36 190.25 C 277.07 182.14 277.58 173.57 279.20 165.24 C 280.15 160.82 279.87 156.33 280.09 151.86 C 284.10 153.32 279.25 158.08 282.85 160.28 C 282.91 157.12 282.98 154.03 283.03 150.89 C 285.71 155.21 295.96 154.08 292.12 147.04 Z" />
</g>
<g id="#eaefebff">
<path fill="#eaefeb" opacity="1.00" d=" M 278.02 150.60 C 278.30 150.52 278.88 150.36 279.16 150.27 C 279.03 155.25 278.98 160.25 279.20 165.24 C 277.58 173.57 277.07 182.14 274.36 190.25 C 266.47 196.14 256.26 191.31 247.14 191.24 C 246.10 194.24 246.78 200.39 242.89 196.64 C 244.13 191.57 244.27 186.31 243.74 181.14 C 246.32 175.49 251.24 168.07 245.31 162.68 C 241.66 158.52 237.55 164.15 236.92 167.90 C 228.86 167.79 226.19 176.89 218.87 177.86 C 214.21 178.43 216.28 184.72 214.92 188.04 C 211.02 191.08 213.56 176.73 209.18 186.13 C 206.94 192.01 199.92 190.40 195.01 191.02 C 194.96 181.24 195.10 171.47 194.90 161.70 C 194.95 159.84 194.95 157.97 195.06 156.11 C 196.26 153.91 198.25 153.23 201.02 154.05 C 224.34 153.82 247.67 154.17 271.00 153.96 C 273.23 154.49 278.30 154.06 278.02 150.60 Z" />
</g>
<g id="#b06b55ff">
<path fill="#b06b55" opacity="1.00" d=" M 406.38 149.71 C 407.11 152.51 406.64 155.41 406.67 158.29 C 406.03 155.47 406.32 152.56 406.38 149.71 Z" />
</g>
<g id="#cdceceff">
<path fill="#cdcece" opacity="1.00" d=" M 86.68 152.30 C 89.53 152.27 93.18 150.04 95.26 152.73 C 100.27 159.73 109.88 159.71 117.38 157.85 C 117.61 158.10 118.06 158.62 118.28 158.88 C 114.97 165.78 106.40 158.31 102.05 162.48 C 105.58 164.67 109.09 166.96 112.44 169.46 C 115.45 172.62 120.94 170.32 124.91 171.07 C 124.94 173.76 124.97 176.46 124.99 179.17 C 122.56 189.99 107.70 183.13 100.18 184.93 C 91.29 181.71 98.92 169.45 95.18 162.86 C 91.82 159.80 88.65 156.44 86.68 152.30 Z" />
</g>
<g id="#454545ff">
<path fill="#454545" opacity="1.00" d=" M 113.94 151.06 C 118.30 152.54 127.43 147.89 129.52 153.21 C 129.13 156.23 126.54 158.08 124.17 159.60 C 122.66 158.38 120.47 158.27 118.89 159.41 L 118.28 158.88 C 118.06 158.62 117.61 158.10 117.38 157.85 C 115.92 155.72 113.31 153.99 113.94 151.06 Z" />
</g>
<g id="#752b2aff">
<path fill="#752b2a" opacity="1.00" d=" M 361.96 152.07 C 366.06 153.81 376.81 149.67 374.97 156.98 C 370.74 155.82 361.84 158.04 361.96 152.07 Z" />
</g>
<g id="#74292aff">
<path fill="#74292a" opacity="1.00" d=" M 391.01 156.04 C 395.32 156.91 401.30 154.09 404.88 157.22 C 405.65 162.24 397.91 158.38 395.98 159.20 C 391.94 160.35 390.29 159.29 391.01 156.04 Z" />
</g>
<g id="#f9bc87ff">
<path fill="#f9bc87" opacity="1.00" d=" M 354.73 173.35 C 347.87 171.77 347.28 160.32 352.91 158.02 C 353.09 159.43 353.31 160.84 353.55 162.24 C 353.62 162.72 353.75 163.68 353.82 164.16 C 353.94 167.09 355.06 169.86 356.86 172.16 C 359.72 177.04 366.08 176.15 370.88 175.97 C 376.44 174.86 377.02 168.39 379.39 164.17 C 389.88 160.58 383.35 177.60 392.86 178.36 C 394.05 179.34 395.64 179.39 397.08 178.98 C 401.07 180.15 403.98 178.14 406.15 175.23 C 407.26 175.97 408.78 175.61 409.00 174.14 C 410.43 170.69 411.71 167.18 412.72 163.59 C 418.36 168.83 414.29 178.45 407.37 180.28 C 405.94 186.78 402.11 192.14 396.32 195.50 C 393.97 201.20 396.66 202.95 399.97 203.90 C 393.49 202.25 394.63 210.55 389.70 212.67 C 381.98 217.05 372.48 211.95 370.17 203.82 C 370.45 202.87 370.79 201.95 371.19 201.05 C 378.81 203.14 387.83 204.11 394.90 199.80 C 395.03 198.55 395.07 197.30 395.03 196.05 C 387.18 198.84 378.84 197.50 370.76 196.58 C 361.08 193.18 354.59 183.61 354.73 173.35 M 391.32 181.39 C 385.49 184.24 379.02 184.12 372.72 184.18 C 377.91 188.32 385.29 185.20 391.05 184.11 C 392.38 184.57 392.65 180.23 391.32 181.39 Z" />
</g>
<g id="#2c0e1cff">
<path fill="#2c0e1c" opacity="1.00" d=" M 353.55 162.24 C 353.43 158.98 355.92 157.31 358.96 157.92 L 359.88 158.30 C 362.36 159.88 364.74 160.00 367.03 158.67 C 368.64 158.86 370.27 159.03 371.89 159.19 C 373.45 159.36 376.55 159.68 378.10 159.85 C 379.80 159.92 383.20 160.08 384.90 160.15 C 386.45 160.33 389.55 160.68 391.11 160.85 C 393.03 160.95 394.96 161.04 396.90 161.15 C 398.45 161.33 401.55 161.70 403.10 161.88 C 404.42 161.88 405.74 161.88 407.07 161.88 C 413.54 161.67 406.66 168.49 407.07 172.01 C 406.75 173.08 406.44 174.15 406.15 175.23 C 403.98 178.14 401.07 180.15 397.08 178.98 C 396.22 177.37 394.21 177.66 392.86 178.36 C 383.35 177.60 389.88 160.58 379.39 164.17 C 377.02 168.39 376.44 174.86 370.88 175.97 C 366.08 176.15 359.72 177.04 356.86 172.16 C 356.05 169.00 357.65 158.67 353.82 164.16 C 353.75 163.68 353.62 162.72 353.55 162.24 M 358.99 170.03 C 359.06 174.78 367.52 174.24 370.37 173.41 C 376.16 171.56 379.81 158.20 369.05 163.16 C 367.03 162.66 365.00 162.19 362.94 161.95 C 361.63 161.90 360.32 161.92 359.02 162.03 C 357.29 162.56 357.30 169.32 358.99 170.03 M 387.58 166.69 C 387.46 174.83 396.50 178.91 403.28 175.28 C 405.09 173.04 407.69 164.82 402.82 165.99 C 402.65 164.00 399.15 164.45 398.02 165.51 C 397.54 165.40 396.57 165.19 396.09 165.09 C 394.57 165.28 393.01 165.62 391.60 164.81 C 390.93 162.25 384.72 164.54 387.58 166.69 Z" />
</g>
<g id="#8b604eff">
<path fill="#8b604e" opacity="1.00" d=" M 359.88 158.30 C 362.12 157.03 364.51 157.15 367.03 158.67 C 364.74 160.00 362.36 159.88 359.88 158.30 Z" />
</g>
<g id="#999a9fff">
<path fill="#999a9f" opacity="1.00" d=" M 118.89 159.41 C 120.47 158.27 122.66 158.38 124.17 159.60 C 122.85 159.55 120.21 159.46 118.89 159.41 Z" />
</g>
<g id="#825745ff">
<path fill="#825745" opacity="1.00" d=" M 371.89 159.19 C 373.45 159.36 376.55 159.68 378.10 159.85 C 376.55 159.68 373.45 159.36 371.89 159.19 Z" />
</g>
<g id="#916054ff">
<path fill="#916054" opacity="1.00" d=" M 384.90 160.15 C 386.45 160.33 389.55 160.68 391.11 160.85 C 389.55 160.68 386.45 160.33 384.90 160.15 Z" />
</g>
<g id="#c9ecebff">
<path fill="#c9eceb" opacity="1.00" d=" M 236.92 167.90 C 237.55 164.15 241.66 158.52 245.31 162.68 C 251.24 168.07 246.32 175.49 243.74 181.14 C 241.39 174.89 235.27 173.53 229.71 176.81 C 231.66 170.81 241.15 174.94 243.73 169.82 C 243.78 165.64 239.53 167.71 236.92 167.90 Z" />
</g>
<g id="#8e5e5aff">
<path fill="#8e5e5a" opacity="1.00" d=" M 396.90 161.15 C 398.45 161.33 401.55 161.70 403.10 161.88 C 401.55 161.70 398.45 161.33 396.90 161.15 Z" />
</g>
<g id="#ecece6ff">
<path fill="#ecece6" opacity="1.00" d=" M 168.23 162.18 C 175.36 161.57 182.55 161.97 189.70 162.15 C 190.50 165.07 191.02 168.08 190.96 171.12 C 191.35 176.71 187.61 182.52 190.14 187.58 C 185.39 188.09 180.58 187.08 175.90 188.05 C 167.27 184.25 169.58 174.90 167.81 167.15 C 167.64 165.48 166.11 163.15 168.23 162.18 Z" />
</g>
<g id="#dde5e2ff">
<path fill="#dde5e2" opacity="1.00" d=" M 190.96 171.12 C 195.73 170.64 190.25 162.62 194.90 161.70 C 195.10 171.47 194.96 181.24 195.01 191.02 C 183.10 189.68 189.91 192.56 194.81 194.25 C 199.29 196.58 201.23 203.97 207.32 202.54 C 200.90 208.47 194.68 215.49 187.08 219.85 C 186.71 225.58 189.53 230.57 191.05 235.88 C 187.41 235.93 183.79 235.83 180.17 236.06 C 171.83 237.26 163.55 238.89 155.21 240.06 C 153.82 236.49 151.58 233.34 150.02 229.85 C 154.31 230.18 152.38 223.36 153.59 220.73 C 156.63 216.57 163.10 214.57 164.37 208.86 C 164.74 209.20 165.48 209.86 165.85 210.19 C 169.02 217.41 172.54 224.54 177.16 230.96 C 180.13 228.09 184.68 226.12 185.98 221.90 C 185.69 217.65 183.57 213.77 182.33 209.73 C 180.50 202.41 177.89 195.32 175.90 188.05 C 180.58 187.08 185.39 188.09 190.14 187.58 C 187.61 182.52 191.35 176.71 190.96 171.12 Z" />
</g>
<g id="#773537ff">
<path fill="#773537" opacity="1.00" d=" M 353.82 164.16 C 357.65 158.67 356.05 169.00 356.86 172.16 C 355.06 169.86 353.94 167.09 353.82 164.16 Z" />
</g>
<g id="#846247ff">
<path fill="#846247" opacity="1.00" d=" M 358.99 170.03 C 357.30 169.32 357.29 162.56 359.02 162.03 C 359.00 164.69 358.98 167.36 358.99 170.03 Z" />
</g>
<g id="#ecb382ff">
<path fill="#ecb382" opacity="1.00" d=" M 359.02 162.03 C 360.32 161.92 361.63 161.90 362.94 161.95 C 366.90 163.69 361.49 170.19 366.07 170.98 C 370.27 171.60 368.72 165.98 369.05 163.16 C 379.81 158.20 376.16 171.56 370.37 173.41 C 367.52 174.24 359.06 174.78 358.99 170.03 C 358.98 167.36 359.00 164.69 359.02 162.03 Z" />
</g>
<g id="#6f2527ff">
<path fill="#6f2527" opacity="1.00" d=" M 362.94 161.95 C 365.00 162.19 367.03 162.66 369.05 163.16 C 368.72 165.98 370.27 171.60 366.07 170.98 C 361.49 170.19 366.90 163.69 362.94 161.95 Z" />
</g>
<g id="#e2e3e3ff">
<path fill="#e2e3e3" opacity="1.00" d=" M 95.18 162.86 C 98.92 169.45 91.29 181.71 100.18 184.93 C 92.43 184.98 84.67 184.90 76.92 185.04 C 77.62 185.66 78.34 186.26 79.07 186.86 C 78.30 186.89 76.77 186.96 76.00 187.00 C 81.23 191.38 85.11 197.43 82.91 204.74 C 75.47 215.66 53.98 208.22 55.94 195.11 C 56.70 190.27 63.17 189.10 62.22 183.84 C 62.52 184.31 63.12 185.26 63.42 185.74 C 72.97 186.33 79.93 176.22 89.99 178.94 C 99.94 181.85 92.92 167.54 95.18 162.86 Z" />
</g>
<g id="#774e4cff">
<path fill="#774e4c" opacity="1.00" d=" M 387.58 166.69 C 384.72 164.54 390.93 162.25 391.60 164.81 C 390.10 165.02 388.37 165.20 387.58 166.69 Z" />
</g>
<g id="#dea187ff">
<path fill="#dea187" opacity="1.00" d=" M 112.44 169.46 C 113.13 168.21 112.14 165.10 114.02 165.07 C 111.85 172.89 121.40 169.43 126.30 170.32 C 125.96 170.51 125.26 170.88 124.91 171.07 C 120.94 170.32 115.45 172.62 112.44 169.46 Z" />
</g>
<g id="#e16932ff">
<path fill="#e16932" opacity="1.00" d=" M 114.02 165.07 C 119.38 164.77 124.76 164.97 130.14 164.98 C 130.54 167.79 129.37 170.18 126.30 170.32 C 121.40 169.43 111.85 172.89 114.02 165.07 Z" />
</g>
<g id="#f0b783ff">
<path fill="#f0b783" opacity="1.00" d=" M 387.58 166.69 C 388.37 165.20 390.10 165.02 391.60 164.81 C 391.60 167.61 389.29 172.30 393.08 172.99 C 397.05 173.35 396.53 167.74 396.09 165.09 C 396.57 165.19 397.54 165.40 398.02 165.51 C 399.55 166.08 401.19 166.20 402.82 165.99 C 407.69 164.82 405.09 173.04 403.28 175.28 C 396.50 178.91 387.46 174.83 387.58 166.69 Z" />
</g>
<g id="#6d2124ff">
<path fill="#6d2124" opacity="1.00" d=" M 391.60 164.81 C 393.01 165.62 394.57 165.28 396.09 165.09 C 396.53 167.74 397.05 173.35 393.08 172.99 C 389.29 172.30 391.60 167.61 391.60 164.81 Z" />
</g>
<g id="#956855ff">
<path fill="#956855" opacity="1.00" d=" M 398.02 165.51 C 399.15 164.45 402.65 164.00 402.82 165.99 C 401.19 166.20 399.55 166.08 398.02 165.51 Z" />
</g>
<g id="#b1d0d1ff">
<path fill="#b1d0d1" opacity="1.00" d=" M 236.92 167.90 C 239.53 167.71 243.78 165.64 243.73 169.82 C 241.15 174.94 231.66 170.81 229.71 176.81 C 235.27 173.53 241.39 174.89 243.74 181.14 C 244.27 186.31 244.13 191.57 242.89 196.64 C 240.04 195.54 239.98 192.28 238.84 189.91 C 236.56 190.03 235.50 192.37 234.05 193.81 C 232.00 188.42 225.62 185.28 221.02 181.90 C 220.86 185.96 219.85 192.48 214.77 188.95 L 214.92 188.04 C 216.28 184.72 214.21 178.43 218.87 177.86 C 226.19 176.89 228.86 167.79 236.92 167.90 Z" />
</g>
<g id="#b3785fff">
<path fill="#b3785f" opacity="1.00" d=" M 407.07 172.01 C 407.72 172.71 408.37 173.42 409.00 174.14 C 408.78 175.61 407.26 175.97 406.15 175.23 C 406.44 174.15 406.75 173.08 407.07 172.01 Z" />
</g>
<g id="#826250ff">
<path fill="#826250" opacity="1.00" d=" M 392.86 178.36 C 394.21 177.66 396.22 177.37 397.08 178.98 C 395.64 179.39 394.05 179.34 392.86 178.36 Z" />
</g>
<g id="#edededff">
<path fill="#ededed" opacity="1.00" d=" M 124.99 179.17 C 129.95 180.35 136.47 177.30 140.27 181.64 C 150.22 193.46 148.63 209.26 147.80 223.76 C 141.79 227.91 133.21 226.82 126.14 227.99 C 125.28 222.12 127.01 215.00 124.07 209.67 C 123.70 215.81 125.03 221.85 125.04 227.98 C 115.40 227.86 105.42 228.13 96.28 224.66 C 94.27 219.33 106.87 226.27 107.00 221.98 C 109.25 213.08 97.21 217.81 91.63 217.24 C 90.14 214.82 88.70 212.37 87.28 209.92 C 85.87 201.73 88.35 191.35 79.07 186.86 C 78.34 186.26 77.62 185.66 76.92 185.04 C 84.67 184.90 92.43 184.98 100.18 184.93 C 107.70 183.13 122.56 189.99 124.99 179.17 M 92.02 213.03 C 90.82 220.13 103.23 214.00 106.98 215.97 C 108.18 208.87 95.76 214.99 92.02 213.03 Z" />
</g>
<g id="#e59465ff">
<path fill="#e59465" opacity="1.00" d=" M 391.32 181.39 C 392.65 180.23 392.38 184.57 391.05 184.11 C 385.29 185.20 377.91 188.32 372.72 184.18 C 379.02 184.12 385.49 184.24 391.32 181.39 Z" />
</g>
<g id="#dde3e3ff">
<path fill="#dde3e3" opacity="1.00" d=" M 140.27 181.64 C 147.51 186.65 161.50 186.62 161.89 197.65 C 159.56 199.37 159.84 202.82 157.92 204.93 C 156.08 208.02 152.03 209.63 151.43 213.40 C 149.75 216.80 153.83 224.81 148.40 225.25 C 149.00 226.76 149.63 228.26 150.02 229.85 C 146.74 231.91 143.80 234.58 141.92 238.00 C 145.16 238.98 148.53 239.47 151.86 240.03 C 154.62 241.26 154.03 244.28 154.03 246.92 C 129.60 246.99 105.16 247.20 80.74 246.83 C 87.62 242.14 101.69 246.46 102.02 234.95 C 96.72 233.66 97.46 240.52 93.64 241.64 C 89.00 241.92 84.35 242.02 79.74 242.65 C 76.80 237.75 74.08 232.71 71.15 227.79 C 69.70 225.59 68.38 223.26 67.63 220.72 C 68.78 220.35 69.93 220.00 71.10 219.66 C 72.67 221.92 74.02 224.32 75.36 226.73 C 79.64 224.87 85.38 222.26 80.92 217.25 C 83.45 215.20 86.53 213.35 87.28 209.92 C 88.70 212.37 90.14 214.82 91.63 217.24 C 92.17 225.10 101.41 221.34 107.00 221.98 C 106.87 226.27 94.27 219.33 96.28 224.66 C 105.42 228.13 115.40 227.86 125.04 227.98 C 125.03 221.85 123.70 215.81 124.07 209.67 C 127.01 215.00 125.28 222.12 126.14 227.99 C 133.21 226.82 141.79 227.91 147.80 223.76 C 148.63 209.26 150.22 193.46 140.27 181.64 Z" />
</g>
<g id="#7fa2a3ff">
<path fill="#7fa2a3" opacity="1.00" d=" M 221.02 181.90 C 225.62 185.28 232.00 188.42 234.05 193.81 C 231.47 197.11 229.24 200.66 226.68 203.97 C 224.41 203.72 222.34 202.72 220.31 201.76 C 218.03 200.50 215.62 199.51 213.23 198.47 C 213.18 195.22 213.92 192.06 214.77 188.95 C 219.85 192.48 220.86 185.96 221.02 181.90 Z" />
</g>
<g id="#c2e6e6ff">
<path fill="#c2e6e6" opacity="1.00" d=" M 209.18 186.13 C 213.56 176.73 211.02 191.08 214.92 188.04 L 214.77 188.95 C 213.92 192.06 213.18 195.22 213.23 198.47 C 215.62 199.51 218.03 200.50 220.31 201.76 C 216.32 206.76 213.49 213.69 206.31 214.32 C 206.40 216.49 207.80 219.07 205.76 220.76 C 200.60 225.92 197.70 233.15 191.35 237.03 C 191.28 236.74 191.13 236.17 191.05 235.88 C 189.53 230.57 186.71 225.58 187.08 219.85 C 194.68 215.49 200.90 208.47 207.32 202.54 C 201.23 203.97 199.29 196.58 194.81 194.25 C 189.91 192.56 183.10 189.68 195.01 191.02 C 199.92 190.40 206.94 192.01 209.18 186.13 Z" />
</g>
<g id="#ced9d8ff">
<path fill="#ced9d8" opacity="1.00" d=" M 76.00 187.00 C 76.77 186.96 78.30 186.89 79.07 186.86 C 88.35 191.35 85.87 201.73 87.28 209.92 C 86.53 213.35 83.45 215.20 80.92 217.25 C 79.57 214.37 67.68 215.27 71.10 219.66 C 69.93 220.00 68.78 220.35 67.63 220.72 C 64.71 221.86 66.97 216.41 63.85 216.11 C 56.62 212.36 51.92 201.12 55.94 195.11 C 53.98 208.22 75.47 215.66 82.91 204.74 C 85.11 197.43 81.23 191.38 76.00 187.00 Z" />
</g>
<g id="#d4edebff">
<path fill="#d4edeb" opacity="1.00" d=" M 234.05 193.81 C 235.50 192.37 236.56 190.03 238.84 189.91 C 239.98 192.28 240.04 195.54 242.89 196.64 C 246.78 200.39 246.10 194.24 247.14 191.24 C 256.26 191.31 266.47 196.14 274.36 190.25 C 274.17 190.85 273.79 192.05 273.60 192.64 C 269.79 202.96 265.12 212.90 258.87 222.04 C 253.38 219.17 246.36 219.43 240.72 220.68 C 235.41 227.60 243.53 238.63 236.21 245.25 C 242.88 247.01 254.97 245.61 263.84 245.95 C 263.37 247.93 262.96 250.06 264.23 251.85 C 281.55 252.79 299.06 250.81 316.30 252.73 C 284.80 253.31 253.30 252.89 221.80 252.97 C 221.98 250.79 222.82 248.79 223.82 246.87 C 220.85 246.87 217.95 246.97 215.00 247.02 C 212.03 246.98 209.09 247.02 206.14 246.96 C 204.56 244.32 201.56 242.10 201.05 239.08 C 204.57 233.37 208.93 228.16 212.72 222.61 C 223.48 223.76 212.35 220.83 215.81 218.82 C 221.07 215.12 221.87 208.02 226.68 203.97 C 229.24 200.66 231.47 197.11 234.05 193.81 Z" />
</g>
<g id="#9adcd9ff">
<path fill="#9adcd9" opacity="1.00" d=" M 273.60 192.64 C 278.03 191.26 282.81 191.91 287.06 189.88 C 287.20 192.74 283.72 193.24 282.20 195.11 L 281.62 195.66 C 280.36 197.03 278.81 198.30 278.11 200.07 C 273.60 215.44 268.83 230.73 263.84 245.95 C 254.97 245.61 242.88 247.01 236.21 245.25 C 244.82 238.68 252.16 230.51 258.87 222.04 C 265.12 212.90 269.79 202.96 273.60 192.64 Z" />
</g>
<g id="#d1e7e3ff">
<path fill="#d1e7e3" opacity="1.00" d=" M 282.20 195.11 C 288.38 194.88 294.57 195.03 300.77 194.86 C 315.19 195.19 329.63 194.81 344.06 195.08 L 343.79 196.03 C 323.07 195.79 302.34 196.39 281.62 195.66 L 282.20 195.11 Z" />
</g>
<g id="#fcfdfeff">
<path fill="#fcfdfe" opacity="1.00" d=" M 278.11 200.07 C 278.81 198.30 280.36 197.03 281.62 195.66 C 302.34 196.39 323.07 195.79 343.79 196.03 C 346.87 201.90 341.18 208.99 341.17 215.22 C 337.91 222.53 336.06 230.30 333.68 237.90 C 331.15 242.90 331.12 250.99 324.81 252.95 C 321.94 252.92 319.13 252.94 316.30 252.73 C 299.06 250.81 281.55 252.79 264.23 251.85 C 262.96 250.06 263.37 247.93 263.84 245.95 C 268.83 230.73 273.60 215.44 278.11 200.07 Z" />
</g>
<g id="#e58c65ff">
<path fill="#e58c65" opacity="1.00" d=" M 370.76 196.58 C 378.84 197.50 387.18 198.84 395.03 196.05 C 395.07 197.30 395.03 198.55 394.90 199.80 C 387.83 204.11 378.81 203.14 371.19 201.05 C 370.96 199.56 370.82 198.08 370.76 196.58 Z" />
</g>
<g id="#c6d4d5ff">
<path fill="#c6d4d5" opacity="1.00" d=" M 157.92 204.93 C 159.84 202.82 159.56 199.37 161.89 197.65 C 162.13 201.51 162.60 205.37 164.37 208.86 C 163.10 214.57 156.63 216.57 153.59 220.73 C 152.38 223.36 154.31 230.18 150.02 229.85 C 149.63 228.26 149.00 226.76 148.40 225.25 C 153.83 224.81 149.75 216.80 151.43 213.40 C 152.03 209.63 156.08 208.02 157.92 204.93 Z" />
</g>
<g id="#ace1e3ff">
<path fill="#ace1e3" opacity="1.00" d=" M 220.31 201.76 C 222.34 202.72 224.41 203.72 226.68 203.97 C 221.87 208.02 221.07 215.12 215.81 218.82 C 212.35 220.83 223.48 223.76 212.72 222.61 C 208.93 228.16 204.57 233.37 201.05 239.08 C 201.56 242.10 204.56 244.32 206.14 246.96 C 201.79 246.97 197.46 247.03 193.12 247.02 C 195.08 243.54 191.18 240.59 191.35 237.03 C 197.70 233.15 200.60 225.92 205.76 220.76 C 207.80 219.07 206.40 216.49 206.31 214.32 C 213.49 213.69 216.32 206.76 220.31 201.76 Z" />
</g>
<g id="#eb412dff">
<path fill="#eb412d" opacity="1.00" d=" M 341.17 215.22 C 346.52 203.88 359.73 205.31 370.17 203.82 C 372.48 211.95 381.98 217.05 389.70 212.67 C 394.63 210.55 393.49 202.25 399.97 203.90 C 401.36 203.95 402.73 204.15 404.09 204.49 C 405.52 204.63 408.38 204.91 409.82 205.05 C 418.18 204.20 423.35 212.62 424.07 219.98 C 425.44 229.03 430.60 240.20 429.86 247.96 C 423.86 249.15 417.30 248.75 411.78 251.67 C 404.37 249.28 408.36 261.81 404.94 266.26 C 396.10 263.93 386.99 261.13 379.91 255.09 C 378.33 253.43 376.08 254.88 374.24 255.19 C 376.48 247.43 379.54 239.88 381.08 231.94 C 377.67 231.35 378.63 236.59 377.13 238.06 C 376.03 244.60 370.98 250.65 371.77 257.37 C 369.06 259.21 364.05 258.34 363.01 262.07 C 362.27 265.53 367.40 264.83 368.70 266.88 C 364.03 268.92 366.97 277.10 369.43 269.88 C 372.10 277.84 382.33 277.85 389.01 275.29 C 393.72 276.53 398.11 278.81 402.81 280.12 C 400.78 288.74 397.75 297.11 395.75 305.73 C 395.62 306.08 395.34 306.79 395.21 307.15 C 394.33 308.87 393.31 310.52 392.19 312.09 C 393.43 300.19 379.89 295.61 370.67 292.33 C 359.97 290.46 347.54 284.98 337.06 289.92 L 336.84 289.15 C 339.07 273.35 346.13 258.43 346.90 242.31 C 343.62 241.51 340.31 240.81 336.99 240.19 C 335.50 239.91 333.75 239.81 333.68 237.90 C 336.06 230.30 337.91 222.53 341.17 215.22 Z" />
</g>
<g id="#c88d81ff">
<path fill="#c88d81" opacity="1.00" d=" M 404.09 204.49 C 405.45 203.27 409.48 202.79 409.82 205.05 C 408.38 204.91 405.52 204.63 404.09 204.49 Z" />
</g>
<g id="#fcf0ebff">
<path fill="#fcf0eb" opacity="1.00" d=" M 165.85 210.19 C 171.34 209.95 176.83 209.90 182.33 209.73 C 183.57 213.77 185.69 217.65 185.98 221.90 C 184.68 226.12 180.13 228.09 177.16 230.96 C 172.54 224.54 169.02 217.41 165.85 210.19 Z" />
</g>
<g id="#e87442ff">
<path fill="#e87442" opacity="1.00" d=" M 92.02 213.03 C 95.76 214.99 108.18 208.87 106.98 215.97 C 103.23 214.00 90.82 220.13 92.02 213.03 Z" />
</g>
<g id="#858687ff">
<path fill="#858687" opacity="1.00" d=" M 71.10 219.66 C 67.68 215.27 79.57 214.37 80.92 217.25 C 85.38 222.26 79.64 224.87 75.36 226.73 C 74.02 224.32 72.67 221.92 71.10 219.66 Z" />
</g>
<g id="#e8713bff">
<path fill="#e8713b" opacity="1.00" d=" M 91.63 217.24 C 97.21 217.81 109.25 213.08 107.00 221.98 C 101.41 221.34 92.17 225.10 91.63 217.24 Z" />
</g>
<g id="#bcedecff">
<path fill="#bcedec" opacity="1.00" d=" M 240.72 220.68 C 246.36 219.43 253.38 219.17 258.87 222.04 C 252.16 230.51 244.82 238.68 236.21 245.25 C 243.53 238.63 235.41 227.60 240.72 220.68 Z" />
</g>
<g id="#d5d6d7ff">
<path fill="#d5d6d7" opacity="1.00" d=" M 71.15 227.79 C 74.08 232.71 76.80 237.75 79.74 242.65 C 84.35 242.02 89.00 241.92 93.64 241.64 C 97.46 240.52 96.72 233.66 102.02 234.95 C 101.69 246.46 87.62 242.14 80.74 246.83 C 105.16 247.20 129.60 246.99 154.03 246.92 C 154.03 244.28 154.62 241.26 151.86 240.03 C 152.70 240.04 154.37 240.05 155.21 240.06 C 155.08 244.36 155.03 248.68 154.98 252.99 C 128.02 252.98 101.07 253.05 74.11 252.98 C 71.40 247.49 75.15 240.85 72.80 235.12 C 72.14 232.71 70.91 230.36 71.15 227.79 Z" />
</g>
<g id="#fbf1ecff">
<path fill="#fbf1ec" opacity="1.00" d=" M 141.92 238.00 C 143.80 234.58 146.74 231.91 150.02 229.85 C 151.58 233.34 153.82 236.49 155.21 240.06 C 154.37 240.05 152.70 240.04 151.86 240.03 C 148.53 239.47 145.16 238.98 141.92 238.00 Z" />
</g>
<g id="#360a1aff">
<path fill="#360a1a" opacity="1.00" d=" M 377.13 238.06 C 378.63 236.59 377.67 231.35 381.08 231.94 C 379.54 239.88 376.48 247.43 374.24 255.19 C 373.45 255.95 372.62 256.68 371.77 257.37 C 370.98 250.65 376.03 244.60 377.13 238.06 Z" />
</g>
<g id="#878889ff">
<path fill="#878889" opacity="1.00" d=" M 155.21 240.06 C 163.55 238.89 171.83 237.26 180.17 236.06 C 185.38 245.95 175.39 249.03 168.78 252.87 C 164.18 252.95 159.58 253.03 154.98 252.99 C 155.03 248.68 155.08 244.36 155.21 240.06 Z" />
</g>
<g id="#ced1d2ff">
<path fill="#ced1d2" opacity="1.00" d=" M 180.17 236.06 C 183.79 235.83 187.41 235.93 191.05 235.88 C 191.13 236.17 191.28 236.74 191.35 237.03 C 191.18 240.59 195.08 243.54 193.12 247.02 C 188.41 247.92 178.50 243.65 181.94 252.99 C 177.55 252.99 173.17 252.92 168.78 252.87 C 175.39 249.03 185.38 245.95 180.17 236.06 Z" />
</g>
<g id="#b4d4cdff">
<path fill="#b4d4cd" opacity="1.00" d=" M 324.81 252.95 C 331.12 250.99 331.15 242.90 333.68 237.90 C 333.75 239.81 335.50 239.91 336.99 240.19 C 336.63 244.45 336.41 248.73 335.87 252.97 C 332.16 252.97 328.50 252.99 324.81 252.95 Z" />
</g>
<g id="#f9bb86ff">
<path fill="#f9bb86" opacity="1.00" d=" M 336.99 240.19 C 340.31 240.81 343.62 241.51 346.90 242.31 C 346.13 258.43 339.07 273.35 336.84 289.15 C 335.51 283.07 332.71 277.50 329.67 272.13 C 330.15 271.17 330.62 270.20 331.09 269.23 C 334.38 264.50 334.67 258.47 335.87 252.97 C 336.41 248.73 336.63 244.45 336.99 240.19 Z" />
</g>
<g id="#424344ff">
<path fill="#424344" opacity="1.00" d=" M 181.94 252.99 C 178.50 243.65 188.41 247.92 193.12 247.02 C 197.46 247.03 201.79 246.97 206.14 246.96 C 209.09 247.02 212.03 246.98 215.00 247.02 C 215.00 249.01 215.00 251.00 215.00 252.99 C 203.98 253.02 192.96 253.03 181.94 252.99 Z" />
</g>
<g id="#666a6aff">
<path fill="#666a6a" opacity="1.00" d=" M 215.00 247.02 C 217.95 246.97 220.85 246.87 223.82 246.87 C 222.82 248.79 221.98 250.79 221.80 252.97 C 220.10 252.97 216.70 252.98 215.00 252.99 C 215.00 251.00 215.00 249.01 215.00 247.02 Z" />
</g>
<g id="#fbbb86ff">
<path fill="#fbbb86" opacity="1.00" d=" M 411.78 251.67 C 417.30 248.75 423.86 249.15 429.86 247.96 C 427.87 254.47 431.65 261.52 429.08 268.09 C 428.86 269.01 428.66 269.94 428.48 270.88 C 425.41 281.68 412.14 284.26 402.81 280.12 C 398.11 278.81 393.72 276.53 389.01 275.29 C 382.33 277.85 372.10 277.84 369.43 269.88 C 369.25 269.13 368.88 267.63 368.70 266.88 C 367.40 264.83 362.27 265.53 363.01 262.07 C 364.05 258.34 369.06 259.21 371.77 257.37 C 372.62 256.68 373.45 255.95 374.24 255.19 C 376.08 254.88 378.33 253.43 379.91 255.09 C 386.99 261.13 396.10 263.93 404.94 266.26 C 416.85 271.84 412.70 258.52 411.78 251.67 Z" />
</g>
<g id="#6f332eff">
<path fill="#6f332e" opacity="1.00" d=" M 404.94 266.26 C 408.36 261.81 404.37 249.28 411.78 251.67 C 412.70 258.52 416.85 271.84 404.94 266.26 Z" />
</g>
<g id="#2e4d4fff">
<path fill="#2e4d4f" opacity="1.00" d=" M 49.77 258.86 C 53.51 249.26 66.11 253.90 74.11 252.98 C 101.07 253.05 128.02 252.98 154.98 252.99 C 159.58 253.03 164.18 252.95 168.78 252.87 C 173.17 252.92 177.55 252.99 181.94 252.99 C 192.96 253.03 203.98 253.02 215.00 252.99 C 216.70 252.98 220.10 252.97 221.80 252.97 C 253.30 252.89 284.80 253.31 316.30 252.73 C 319.13 252.94 321.94 252.92 324.81 252.95 C 328.50 252.99 332.16 252.97 335.87 252.97 C 334.67 258.47 334.38 264.50 331.09 269.23 C 329.79 269.01 328.49 268.90 327.19 268.90 C 324.23 265.77 321.00 262.75 316.99 261.05 L 316.21 260.69 C 314.67 259.49 312.66 259.64 310.91 260.23 C 309.01 260.05 307.11 259.88 305.21 259.70 C 295.30 257.69 285.80 262.62 275.98 263.21 C 276.57 265.96 280.24 266.64 282.20 268.38 C 231.49 270.37 180.22 267.51 129.77 269.77 C 127.96 312.51 129.52 355.95 129.00 398.97 C 108.02 399.01 87.02 399.08 66.04 398.94 C 65.90 355.96 66.09 312.98 65.97 270.01 C 64.99 267.12 58.83 269.79 55.98 268.98 C 51.34 268.97 47.81 262.95 49.77 258.86 Z" />
</g>
<g id="#c5eee6ff">
<path fill="#c5eee6" opacity="1.00" d=" M 275.98 263.21 C 285.80 262.62 295.30 257.69 305.21 259.70 C 294.98 258.35 303.33 268.28 307.74 271.01 C 309.95 266.98 312.44 262.73 316.99 261.05 C 321.00 262.75 324.23 265.77 327.19 268.90 C 327.64 270.23 328.54 271.31 329.67 272.13 C 332.71 277.50 335.51 283.07 336.84 289.15 L 337.06 289.92 C 338.14 293.56 339.11 297.22 339.82 300.95 C 327.58 303.91 314.86 306.46 302.26 307.99 C 301.84 303.06 300.83 298.19 299.11 293.56 C 299.08 293.26 299.03 292.67 299.00 292.37 C 304.05 289.01 303.13 282.40 303.69 277.12 C 299.97 274.60 294.49 276.51 290.05 275.72 C 287.86 273.51 285.92 271.00 283.40 269.17 C 283.10 268.97 282.50 268.57 282.20 268.38 C 280.24 266.64 276.57 265.96 275.98 263.21 Z" />
</g>
<g id="#f6fbfbff">
<path fill="#f6fbfb" opacity="1.00" d=" M 307.74 271.01 C 303.33 268.28 294.98 258.35 305.21 259.70 C 307.11 259.88 309.01 260.05 310.91 260.23 C 312.39 261.57 314.48 261.36 316.21 260.69 L 316.99 261.05 C 312.44 262.73 309.95 266.98 307.74 271.01 Z" />
</g>
<g id="#849392ff">
<path fill="#849392" opacity="1.00" d=" M 310.91 260.23 C 312.66 259.64 314.67 259.49 316.21 260.69 C 314.48 261.36 312.39 261.57 310.91 260.23 Z" />
</g>
<g id="#3f0b15ff">
<path fill="#3f0b15" opacity="1.00" d=" M 369.43 269.88 C 366.97 277.10 364.03 268.92 368.70 266.88 C 368.88 267.63 369.25 269.13 369.43 269.88 Z" />
</g>
<g id="#2d9284ff">
<path fill="#2d9284" opacity="1.00" d=" M 282.20 268.38 C 282.50 268.57 283.10 268.97 283.40 269.17 C 232.27 270.95 180.96 269.76 129.77 269.77 C 180.22 267.51 231.49 270.37 282.20 268.38 Z" />
</g>
<g id="#97908aff">
<path fill="#97908a" opacity="1.00" d=" M 429.08 268.09 C 430.56 273.82 430.79 287.06 429.02 293.01 C 429.09 285.63 429.10 278.24 428.48 270.88 C 428.66 269.94 428.86 269.01 429.08 268.09 Z" />
</g>
<g id="#779698ff">
<path fill="#779698" opacity="1.00" d=" M 55.98 268.98 C 58.83 269.79 64.99 267.12 65.97 270.01 C 63.48 268.93 57.27 271.59 55.98 268.98 Z" />
</g>
<g id="#2ccdb6ff">
<path fill="#2ccdb6" opacity="1.00" d=" M 283.40 269.17 C 285.92 271.00 287.86 273.51 290.05 275.72 C 288.11 276.76 286.99 279.47 288.86 281.14 C 292.49 284.76 293.28 291.19 299.00 292.37 C 299.03 292.67 299.08 293.26 299.11 293.56 C 291.15 301.62 291.85 314.26 287.84 324.33 C 285.11 322.51 284.04 319.05 283.06 316.08 C 285.71 310.37 289.52 305.14 291.13 298.99 C 281.17 295.45 281.73 308.16 277.24 313.36 C 275.39 308.46 281.29 295.47 271.06 299.01 C 270.99 311.26 270.75 323.53 271.14 335.78 C 281.03 340.77 273.62 325.34 278.92 323.09 C 282.08 326.42 283.31 332.44 284.39 337.21 C 280.24 352.44 275.77 367.58 272.05 382.94 L 271.81 383.81 C 265.44 385.54 258.35 387.85 253.77 392.82 C 253.49 394.38 252.93 397.50 252.65 399.06 C 235.76 398.97 218.87 398.97 201.98 399.01 C 177.98 398.95 153.99 399.07 130.00 398.97 C 129.85 355.90 130.31 312.83 129.77 269.77 C 180.96 269.76 232.27 270.95 283.40 269.17 M 197.02 335.84 C 202.16 337.17 207.49 335.54 212.71 335.76 C 218.35 331.68 213.41 322.94 214.55 317.22 C 213.64 311.89 218.29 302.12 211.72 299.29 C 206.89 298.42 201.88 299.13 197.01 299.04 C 194.73 308.44 195.72 326.70 197.02 335.84 M 226.21 299.08 C 224.46 309.94 221.65 320.60 219.41 331.37 C 215.00 337.88 225.26 337.89 225.54 333.64 C 223.00 325.84 231.84 330.31 234.75 329.08 C 232.99 333.70 238.27 338.57 241.89 335.78 C 240.76 323.37 236.58 311.44 234.77 299.12 C 231.94 298.80 229.01 299.00 226.21 299.08 M 246.07 298.99 C 245.88 311.32 245.98 323.66 246.04 336.00 C 257.81 338.21 250.65 323.34 252.22 316.75 C 257.97 322.54 254.74 338.44 265.93 336.01 C 266.12 323.68 266.01 311.34 265.96 299.01 C 254.40 295.96 262.46 312.29 259.87 318.27 C 253.97 312.66 257.61 296.28 246.07 298.99 Z" />
</g>
<g id="#54b298ff">
<path fill="#54b298" opacity="1.00" d=" M 327.19 268.90 C 328.49 268.90 329.79 269.01 331.09 269.23 C 330.62 270.20 330.15 271.17 329.67 272.13 C 328.54 271.31 327.64 270.23 327.19 268.90 Z" />
</g>
<g id="#34857fff">
<path fill="#34857f" opacity="1.00" d=" M 129.00 398.97 C 129.52 355.95 127.96 312.51 129.77 269.77 C 130.31 312.83 129.85 355.90 130.00 398.97 L 129.00 398.97 Z" />
</g>
<g id="#683231ff">
<path fill="#683231" opacity="1.00" d=" M 428.48 270.88 C 429.10 278.24 429.09 285.63 429.02 293.01 C 427.93 300.22 421.42 306.25 414.00 306.10 C 412.53 308.52 411.65 316.91 414.00 319.93 C 424.27 321.31 424.61 336.92 414.26 339.12 C 418.37 358.05 420.96 377.29 425.34 396.17 C 424.57 399.09 421.56 399.34 419.06 399.77 C 417.49 397.41 418.07 394.40 417.39 391.77 C 413.65 374.20 411.27 356.05 407.22 338.76 C 399.07 337.13 390.34 338.26 381.99 337.98 C 374.92 334.40 377.17 339.56 377.62 342.22 C 381.56 359.74 383.94 377.58 387.95 395.09 C 390.17 402.32 376.68 400.04 380.46 392.99 C 377.67 379.57 376.19 365.79 372.34 352.64 C 370.66 365.05 368.96 377.47 366.71 389.79 C 367.27 396.20 365.99 401.30 358.91 398.30 C 359.12 394.25 359.72 390.23 360.21 386.23 C 362.55 370.50 365.31 354.83 366.99 339.02 C 364.04 336.30 355.64 338.89 350.98 337.97 C 351.79 333.35 352.35 328.59 354.28 324.30 C 365.48 322.84 377.17 322.30 387.74 318.12 C 391.47 322.31 400.25 319.31 406.00 319.96 C 408.32 317.17 406.86 310.56 406.88 306.10 C 404.10 306.01 398.54 305.82 395.75 305.73 C 397.75 297.11 400.78 288.74 402.81 280.12 C 412.14 284.26 425.41 281.68 428.48 270.88 Z" />
</g>
<g id="#f3c08bff">
<path fill="#f3c08b" opacity="1.00" d=" M 288.86 281.14 C 286.99 279.47 288.11 276.76 290.05 275.72 C 294.49 276.51 299.97 274.60 303.69 277.12 C 303.13 282.40 304.05 289.01 299.00 292.37 C 293.28 291.19 292.49 284.76 288.86 281.14 Z" />
</g>
<g id="#21031cff">
<path fill="#21031c" opacity="1.00" d=" M 337.06 289.92 C 347.54 284.98 359.97 290.46 370.67 292.33 C 379.89 295.61 393.43 300.19 392.19 312.09 C 390.73 314.12 389.22 316.11 387.74 318.12 C 377.17 322.30 365.48 322.84 354.28 324.30 C 352.35 328.59 351.79 333.35 350.98 337.97 L 350.82 338.91 C 346.82 354.11 345.59 370.55 340.24 385.07 L 339.32 384.95 C 335.50 384.22 331.65 383.99 327.77 384.25 C 327.12 384.25 325.81 384.25 325.16 384.25 C 320.90 383.90 324.69 377.33 324.19 374.11 C 324.34 372.56 324.66 369.45 324.81 367.89 C 325.34 357.71 326.65 347.59 327.05 337.40 C 327.95 331.58 328.73 325.73 328.95 319.85 C 326.77 317.69 320.25 319.04 316.31 319.21 C 307.43 340.73 299.63 362.70 290.29 384.01 L 289.36 383.89 C 283.65 382.76 277.83 382.98 272.05 382.94 C 275.77 367.58 280.24 352.44 284.39 337.21 C 285.58 332.92 286.75 328.64 287.84 324.33 C 291.85 314.26 291.15 301.62 299.11 293.56 C 300.83 298.19 301.84 303.06 302.26 307.99 C 314.86 306.46 327.58 303.91 339.82 300.95 C 339.11 297.22 338.14 293.56 337.06 289.92 Z" />
</g>
<g id="#2d9d99ff">
<path fill="#2d9d99" opacity="1.00" d=" M 197.02 335.84 C 195.72 326.70 194.73 308.44 197.01 299.04 C 196.99 311.30 196.98 323.57 197.02 335.84 Z" />
</g>
<g id="#29707aff">
<path fill="#29707a" opacity="1.00" d=" M 197.01 299.04 C 201.88 299.13 206.89 298.42 211.72 299.29 C 218.29 302.12 213.64 311.89 214.55 317.22 C 213.41 322.94 218.35 331.68 212.71 335.76 C 207.49 335.54 202.16 337.17 197.02 335.84 C 196.98 323.57 196.99 311.30 197.01 299.04 M 203.08 305.01 C 203.19 309.47 200.60 317.56 208.92 313.99 C 208.80 309.53 211.40 301.43 203.08 305.01 M 203.08 321.01 C 203.19 325.47 200.60 333.56 208.92 329.99 C 208.80 325.53 211.40 317.43 203.08 321.01 Z" />
</g>
<g id="#29737bff">
<path fill="#29737b" opacity="1.00" d=" M 226.21 299.08 C 229.01 299.00 231.94 298.80 234.77 299.12 C 236.58 311.44 240.76 323.37 241.89 335.78 C 238.27 338.57 232.99 333.70 234.75 329.08 C 231.84 330.31 223.00 325.84 225.54 333.64 C 225.26 337.89 215.00 337.88 219.41 331.37 C 221.65 320.60 224.46 309.94 226.21 299.08 M 230.14 309.11 C 230.48 314.20 223.39 325.48 233.02 322.99 C 232.27 318.71 232.30 312.15 230.14 309.11 Z" />
</g>
<g id="#2a717bff">
<path fill="#2a717b" opacity="1.00" d=" M 246.07 298.99 C 257.61 296.28 253.97 312.66 259.87 318.27 C 262.46 312.29 254.40 295.96 265.96 299.01 C 266.01 311.34 266.12 323.68 265.93 336.01 C 254.74 338.44 257.97 322.54 252.22 316.75 C 250.65 323.34 257.81 338.21 246.04 336.00 C 245.98 323.66 245.88 311.32 246.07 298.99 Z" />
</g>
<g id="#297079ff">
<path fill="#297079" opacity="1.00" d=" M 271.06 299.01 C 281.29 295.47 275.39 308.46 277.24 313.36 C 281.73 308.16 281.17 295.45 291.13 298.99 C 289.52 305.14 285.71 310.37 283.06 316.08 C 284.04 319.05 285.11 322.51 287.84 324.33 C 286.75 328.64 285.58 332.92 284.39 337.21 C 283.31 332.44 282.08 326.42 278.92 323.09 C 273.62 325.34 281.03 340.77 271.14 335.78 C 270.75 323.53 270.99 311.26 271.06 299.01 Z" />
</g>
<g id="#2dc8b6ff">
<path fill="#2dc8b6" opacity="1.00" d=" M 203.08 305.01 C 211.40 301.43 208.80 309.53 208.92 313.99 C 200.60 317.56 203.19 309.47 203.08 305.01 Z" />
</g>
<g id="#9ea09bff">
<path fill="#9ea09b" opacity="1.00" d=" M 395.21 307.15 C 395.34 306.79 395.62 306.08 395.75 305.73 C 398.54 305.82 404.10 306.01 406.88 306.10 C 406.86 310.56 408.32 317.17 406.00 319.96 C 405.95 315.64 406.17 311.33 405.92 307.03 C 403.24 307.06 397.89 307.12 395.21 307.15 Z" />
</g>
<g id="#887d7aff">
<path fill="#887d7a" opacity="1.00" d=" M 414.00 319.93 C 411.65 316.91 412.53 308.52 414.00 306.10 C 414.04 310.69 414.13 315.32 414.00 319.93 Z" />
</g>
<g id="#b2d5ceff">
<path fill="#b2d5ce" opacity="1.00" d=" M 395.21 307.15 C 397.89 307.12 403.24 307.06 405.92 307.03 C 406.17 311.33 405.95 315.64 406.00 319.96 C 400.25 319.31 391.47 322.31 387.74 318.12 C 389.22 316.11 390.73 314.12 392.19 312.09 C 393.31 310.52 394.33 308.87 395.21 307.15 Z" />
</g>
<g id="#2dc6b2ff">
<path fill="#2dc6b2" opacity="1.00" d=" M 230.14 309.11 C 232.30 312.15 232.27 318.71 233.02 322.99 C 223.39 325.48 230.48 314.20 230.14 309.11 Z" />
</g>
<g id="#2dccb4ff">
<path fill="#2dccb4" opacity="1.00" d=" M 316.31 319.21 C 320.25 319.04 326.77 317.69 328.95 319.85 C 321.26 322.22 318.98 334.12 327.05 337.40 C 326.65 347.59 325.34 357.71 324.81 367.89 C 324.66 369.45 324.34 372.56 324.19 374.11 C 324.69 377.33 320.90 383.90 325.16 384.25 C 318.04 385.26 313.41 391.84 314.80 399.01 C 307.27 398.99 299.75 398.96 292.23 399.05 C 291.51 394.74 293.14 389.91 291.18 385.86 C 290.96 385.39 290.51 384.47 290.29 384.01 C 299.63 362.70 307.43 340.73 316.31 319.21 Z" />
<path fill="#2dccb4" opacity="1.00" d=" M 350.82 338.91 C 353.89 338.96 356.91 338.95 360.00 339.03 C 360.04 354.76 359.84 370.49 360.21 386.23 C 359.72 390.23 359.12 394.25 358.91 398.30 C 353.67 398.84 348.43 399.07 343.18 399.04 C 342.53 394.34 344.46 388.47 340.24 385.07 C 345.59 370.55 346.82 354.11 350.82 338.91 Z" />
</g>
<g id="#643233ff">
<path fill="#643233" opacity="1.00" d=" M 327.05 337.40 C 318.98 334.12 321.26 322.22 328.95 319.85 C 328.73 325.73 327.95 331.58 327.05 337.40 Z" />
</g>
<g id="#30c8b4ff">
<path fill="#30c8b4" opacity="1.00" d=" M 203.08 321.01 C 211.40 317.43 208.80 325.53 208.92 329.99 C 200.60 333.56 203.19 325.47 203.08 321.01 Z" />
</g>
<g id="#6a726fff">
<path fill="#6a726f" opacity="1.00" d=" M 350.98 337.97 C 355.64 338.89 364.04 336.30 366.99 339.02 C 365.24 339.02 361.75 339.03 360.00 339.03 C 356.91 338.95 353.89 338.96 350.82 338.91 L 350.98 337.97 Z" />
</g>
<g id="#877170ff">
<path fill="#877170" opacity="1.00" d=" M 377.62 342.22 C 377.17 339.56 374.92 334.40 381.99 337.98 C 390.34 338.26 399.07 337.13 407.22 338.76 C 397.54 339.23 387.83 338.64 378.16 339.13 C 378.03 339.90 377.75 341.45 377.62 342.22 Z" />
</g>
<g id="#b0d2cbff">
<path fill="#b0d2cb" opacity="1.00" d=" M 360.00 339.03 C 361.75 339.03 365.24 339.02 366.99 339.02 C 365.31 354.83 362.55 370.50 360.21 386.23 C 359.84 370.49 360.04 354.76 360.00 339.03 Z" />
</g>
<g id="#b2d5cfff">
<path fill="#b2d5cf" opacity="1.00" d=" M 378.16 339.13 C 387.83 338.64 397.54 339.23 407.22 338.76 C 411.27 356.05 413.65 374.20 417.39 391.77 C 417.24 392.55 416.94 394.11 416.78 394.89 C 407.17 395.21 397.56 394.86 387.95 395.09 C 383.94 377.58 381.56 359.74 377.62 342.22 C 377.75 341.45 378.03 339.90 378.16 339.13 Z" />
</g>
<g id="#b1d2cbff">
<path fill="#b1d2cb" opacity="1.00" d=" M 372.34 352.64 C 376.19 365.79 377.67 379.57 380.46 392.99 C 376.13 393.06 365.40 397.62 366.71 389.79 C 368.96 377.47 370.66 365.05 372.34 352.64 Z" />
</g>
<g id="#276962ff">
<path fill="#276962" opacity="1.00" d=" M 324.19 374.11 C 324.34 372.56 324.66 369.45 324.81 367.89 C 324.66 369.45 324.34 372.56 324.19 374.11 Z" />
</g>
<g id="#44323aff">
<path fill="#44323a" opacity="1.00" d=" M 272.05 382.94 C 277.83 382.98 283.65 382.76 289.36 383.89 C 283.50 383.89 277.65 383.93 271.81 383.81 L 272.05 382.94 Z" />
</g>
<g id="#f2f2e0ff">
<path fill="#f2f2e0" opacity="1.00" d=" M 253.77 392.82 C 258.35 387.85 265.44 385.54 271.81 383.81 C 277.65 383.93 283.50 383.89 289.36 383.89 L 290.29 384.01 C 290.51 384.47 290.96 385.39 291.18 385.86 C 291.10 390.87 291.08 395.92 290.90 400.95 C 278.63 401.10 266.37 401.05 254.11 400.99 C 253.96 398.26 253.85 395.53 253.77 392.82 Z" />
</g>
<g id="#f1f3e0ff">
<path fill="#f1f3e0" opacity="1.00" d=" M 325.16 384.25 C 325.81 384.25 327.12 384.25 327.77 384.25 C 331.61 384.54 335.46 384.78 339.32 384.95 L 340.24 385.07 C 344.46 388.47 342.53 394.34 343.18 399.04 C 343.12 399.52 342.99 400.48 342.93 400.97 C 333.65 401.01 324.37 401.03 315.09 400.97 C 315.02 400.48 314.87 399.50 314.80 399.01 C 313.41 391.84 318.04 385.26 325.16 384.25 Z" />
</g>
<g id="#bcafafff">
<path fill="#bcafaf" opacity="1.00" d=" M 327.77 384.25 C 331.65 383.99 335.50 384.22 339.32 384.95 C 335.46 384.78 331.61 384.54 327.77 384.25 Z" />
</g>
<g id="#9cdfc7ff">
<path fill="#9cdfc7" opacity="1.00" d=" M 291.18 385.86 C 293.14 389.91 291.51 394.74 292.23 399.05 C 291.90 399.53 291.23 400.48 290.90 400.95 C 291.08 395.92 291.10 390.87 291.18 385.86 Z" />
</g>
<g id="#6d7f8aff">
<path fill="#6d7f8a" opacity="1.00" d=" M 358.91 398.30 C 365.99 401.30 367.27 396.20 366.71 389.79 C 365.40 397.62 376.13 393.06 380.46 392.99 C 376.68 400.04 390.17 402.32 387.95 395.09 C 397.56 394.86 407.17 395.21 416.78 394.89 C 416.94 394.11 417.24 392.55 417.39 391.77 C 418.07 394.40 417.49 397.41 419.06 399.77 C 421.56 399.34 424.57 399.09 425.34 396.17 C 437.85 395.97 450.64 396.38 462.89 399.21 C 462.90 399.61 462.92 400.43 462.93 400.84 C 441.49 404.35 419.67 404.67 398.00 405.00 C 389.91 405.27 381.68 404.15 373.68 405.60 C 344.25 406.34 314.71 406.11 285.26 405.74 C 278.22 404.73 271.09 404.92 264.00 404.99 C 244.98 404.75 225.88 404.34 206.99 401.96 C 205.19 401.25 201.40 401.87 201.98 399.01 C 218.87 398.97 235.76 398.97 252.65 399.06 C 253.01 399.54 253.74 400.51 254.11 400.99 C 266.37 401.05 278.63 401.10 290.90 400.95 C 291.23 400.48 291.90 399.53 292.23 399.05 C 299.75 398.96 307.27 398.99 314.80 399.01 C 314.87 399.50 315.02 400.48 315.09 400.97 C 322.10 402.05 336.05 403.77 342.93 400.97 C 342.99 400.48 343.12 399.52 343.18 399.04 C 348.43 399.07 353.67 398.84 358.91 398.30 Z" />
</g>
<g id="#8cd5c6ff">
<path fill="#8cd5c6" opacity="1.00" d=" M 252.65 399.06 C 252.93 397.50 253.49 394.38 253.77 392.82 C 253.85 395.53 253.96 398.26 254.11 400.99 C 253.74 400.51 253.01 399.54 252.65 399.06 Z" />
</g>
<g id="#919d9eff">
<path fill="#919d9e" opacity="1.00" d=" M 315.09 400.97 C 324.37 401.03 333.65 401.01 342.93 400.97 C 336.05 403.77 322.10 402.05 315.09 400.97 Z" />
</g>
<g id="#90a9b4ff">
<path fill="#90a9b4" opacity="1.00" d=" M 264.00 404.99 C 271.09 404.92 278.22 404.73 285.26 405.74 C 278.66 405.30 268.95 407.56 264.00 404.99 Z" />
</g>
<g id="#8aa3a8ff">
<path fill="#8aa3a8" opacity="1.00" d=" M 373.68 405.60 C 381.68 404.15 389.91 405.27 398.00 405.00 C 391.75 406.94 381.58 406.21 373.68 405.60 Z" />
</g>
</svg>
