<?xml version="1.0" encoding="UTF-8"?>
<svg width="246px" height="197px" viewBox="0 0 246 197" version="1.1" xmlns="http://www.w3.org/2000/svg" xmlns:xlink="http://www.w3.org/1999/xlink">
    <title>Group 2</title>
    <defs>
        <filter x="-1.8%" y="-5.8%" width="103.5%" height="111.6%" filterUnits="objectBoundingBox" id="filter-1">
            <feOffset dx="-1" dy="-1" in="SourceAlpha" result="shadowOffsetOuter1"></feOffset>
            <feGaussianBlur stdDeviation="0.5" in="shadowOffsetOuter1" result="shadowBlurOuter1"></feGaussianBlur>
            <feColorMatrix values="0 0 0 0 0   0 0 0 0 0   0 0 0 0 0  0 0 0 0.3 0" type="matrix" in="shadowBlurOuter1" result="shadowMatrixOuter1"></feColorMatrix>
            <feMerge>
                <feMergeNode in="shadowMatrixOuter1"></feMergeNode>
                <feMergeNode in="SourceGraphic"></feMergeNode>
            </feMerge>
        </filter>
        <path d="M66.66,86.05 C67.8733333,85.8166667 69.005,85.455 70.055,84.965 C71.105,84.475 72.1316667,83.6933333 73.135,82.62 C74.1383333,81.5466667 75.1416667,80.0883333 76.145,78.245 C77.1483333,76.4016667 78.21,73.9866667 79.33,71 L79.33,71 L90.25,39.5 C91.93,39.0333333 93.26,38.4733333 94.24,37.82 L94.24,37.82 L94.24,36 L82.27,36 L82.27,37.82 C83.4366667,38.66 84.72,39.22 86.12,39.5 L86.12,39.5 L79.47,60.15 L78.42,64.56 L78.28,64.56 L76.95,60.22 L67.99,39.5 C69.67,38.9866667 71,38.4033333 71.98,37.75 L71.98,37.75 L71.98,36 L57.35,36 L57.35,37.82 C57.9566667,38.1933333 58.5516667,38.52 59.135,38.8 C59.7183333,39.08 60.36,39.3133333 61.06,39.5 L61.06,39.5 L75.62,71 C75.2466667,72.2133333 74.92,73.2166667 74.64,74.01 C74.36,74.8033333 74.1033333,75.4566667 73.87,75.97 C73.6366667,76.4833333 73.415,76.915 73.205,77.265 C72.995,77.615 72.75,77.9766667 72.47,78.35 L72.47,78.35 L65.19,78.35 L64.28,80.03 C64.56,81.01 64.8983333,82.0366667 65.295,83.11 C65.6916667,84.1833333 66.1466667,85.1633333 66.66,86.05 Z M113.14,71.84 C114.4,71.84 115.636667,71.6883333 116.85,71.385 C118.063333,71.0816667 119.183333,70.6733333 120.21,70.16 C121.236667,69.6466667 122.146667,69.04 122.94,68.34 C123.733333,67.64 124.316667,66.8933333 124.69,66.1 L124.69,66.1 L123.71,64.98 C122.87,65.7266667 121.61,66.3333333 119.93,66.8 C118.25,67.2666667 116.593333,67.5 114.96,67.5 C112.953333,67.5 111.203333,67.1383333 109.71,66.415 C108.216667,65.6916667 106.98,64.7 106,63.44 C105.02,62.18 104.285,60.6983333 103.795,58.995 C103.305,57.2916667 103.06,55.46 103.06,53.5 L103.06,53.5 L124.9,53.5 C125.086667,52.5666667 125.215,51.6916667 125.285,50.875 C125.355,50.0583333 125.39,49.2533333 125.39,48.46 C125.39,45.94 125.005,43.8283333 124.235,42.125 C123.465,40.4216667 122.461667,39.0566667 121.225,38.03 C119.988333,37.0033333 118.576667,36.2683333 116.99,35.825 C115.403333,35.3816667 113.793333,35.16 112.16,35.16 C107.12,35.16 103.223333,36.7233333 100.47,39.85 C97.7166667,42.9766667 96.34,47.5266667 96.34,53.5 C96.34,56.3 96.7016667,58.82 97.425,61.06 C98.1483333,63.3 99.21,65.225 100.61,66.835 C102.01,68.445 103.76,69.6816667 105.86,70.545 C107.96,71.4083333 110.386667,71.84 113.14,71.84 Z M118.67,50.42 L103.27,50.42 C103.55,45.8933333 104.39,42.7316667 105.79,40.935 C107.19,39.1383333 109.22,38.24 111.88,38.24 C114.26,38.24 116.01,39.1266667 117.13,40.9 C118.25,42.6733333 118.81,45.0533333 118.81,48.04 C118.81,48.4133333 118.798333,48.7983333 118.775,49.195 C118.751667,49.5916667 118.716667,50 118.67,50.42 L118.67,50.42 Z M142.68,71.84 C144.453333,71.84 146.121667,71.595 147.685,71.105 C149.248333,70.615 150.625,69.9266667 151.815,69.04 C153.005,68.1533333 153.938333,67.08 154.615,65.82 C155.291667,64.56 155.63,63.1366667 155.63,61.55 C155.63,59.8233333 155.221667,58.3416667 154.405,57.105 C153.588333,55.8683333 152.55,54.7833333 151.29,53.85 C150.03,52.9166667 148.688333,52.0766667 147.265,51.33 C145.841667,50.5833333 144.5,49.825 143.24,49.055 C141.98,48.285 140.941667,47.445 140.125,46.535 C139.308333,45.625 138.9,44.54 138.9,43.28 C138.9,42.6733333 139.016667,42.0666667 139.25,41.46 C139.483333,40.8533333 139.821667,40.3166667 140.265,39.85 C140.708333,39.3833333 141.245,38.9983333 141.875,38.695 C142.505,38.3916667 143.24,38.24 144.08,38.24 C144.826667,38.24 145.55,38.275 146.25,38.345 C146.95,38.415 147.58,38.5666667 148.14,38.8 L148.14,38.8 L150.8,45.94 L152.55,45.94 C153.016667,44.3533333 153.378333,42.8016667 153.635,41.285 C153.891667,39.7683333 154.113333,38.2633333 154.3,36.77 C152.806667,36.2566667 151.255,35.86 149.645,35.58 C148.035,35.3 145.97,35.16 143.45,35.16 C141.956667,35.16 140.556667,35.3816667 139.25,35.825 C137.943333,36.2683333 136.8,36.875 135.82,37.645 C134.84,38.415 134.058333,39.3366667 133.475,40.41 C132.891667,41.4833333 132.6,42.65 132.6,43.91 C132.6,45.8233333 133.008333,47.4333333 133.825,48.74 C134.641667,50.0466667 135.68,51.2016667 136.94,52.205 C138.2,53.2083333 139.541667,54.0833333 140.965,54.83 C142.388333,55.5766667 143.73,56.3466667 144.99,57.14 C146.25,57.9333333 147.288333,58.785 148.105,59.695 C148.921667,60.605 149.33,61.7133333 149.33,63.02 C149.33,64.6066667 148.7,65.96 147.44,67.08 C146.18,68.2 144.523333,68.76 142.47,68.76 C141.863333,68.76 141.198333,68.7366667 140.475,68.69 C139.751667,68.6433333 139.133333,68.4333333 138.62,68.06 L138.62,68.06 L135.54,60.43 L133.79,60.43 C133.276667,61.8766667 132.856667,63.3816667 132.53,64.945 C132.203333,66.5083333 131.993333,68.13 131.9,69.81 C133.72,70.4633333 135.47,70.965 137.15,71.315 C138.83,71.665 140.673333,71.84 142.68,71.84 Z M172.99,55.74 L175.23,43.42 L175.23,22.7 C174.203333,22.1866667 173.153333,21.93 172.08,21.93 C171.006667,21.93 169.956667,22.1866667 168.93,22.7 L168.93,22.7 L168.93,43.42 L171.17,55.74 L172.99,55.74 Z M172.08,71.56 C173.526667,71.56 174.693333,71.14 175.58,70.3 C176.466667,69.46 176.91,68.3633333 176.91,67.01 C176.91,65.61 176.466667,64.49 175.58,63.65 C174.693333,62.81 173.526667,62.39 172.08,62.39 C170.68,62.39 169.536667,62.81 168.65,63.65 C167.763333,64.49 167.32,65.61 167.32,67.01 C167.32,68.3633333 167.763333,69.46 168.65,70.3 C169.536667,71.14 170.68,71.56 172.08,71.56 Z" id="path-2"></path>
        <filter x="-3.8%" y="-7.0%" width="105.9%" height="110.9%" filterUnits="objectBoundingBox" id="filter-3">
            <feOffset dx="-1" dy="-1" in="SourceAlpha" result="shadowOffsetOuter1"></feOffset>
            <feGaussianBlur stdDeviation="1" in="shadowOffsetOuter1" result="shadowBlurOuter1"></feGaussianBlur>
            <feColorMatrix values="0 0 0 0 0   0 0 0 0 0   0 0 0 0 0  0 0 0 0.3 0" type="matrix" in="shadowBlurOuter1"></feColorMatrix>
        </filter>
    </defs>
    <g id="Page-1" stroke="none" stroke-width="1" fill="none" fill-rule="evenodd">
        <g id="Group-2" transform="translate(3.000000, 0.000000)" fill-rule="nonzero">
            <g id="Group" filter="url(#filter-1)" transform="translate(120.000000, 129.500000) rotate(-15.000000) translate(-120.000000, -129.500000) translate(6.000000, 95.000000)" fill="#A40000">
                <path d="M33.4179688,50 C33.7278646,50 33.9921875,49.9635417 34.2109375,49.890625 C34.4296875,49.8177083 34.6074219,49.6809896 34.7441406,49.4804688 C34.8808594,49.2799479 34.9811198,48.9973958 35.0449219,48.6328125 C35.108724,48.2682292 35.140625,47.7942708 35.140625,47.2109375 C35.140625,46.6276042 35.108724,46.1536458 35.0449219,45.7890625 C34.9811198,45.4244792 34.8808594,45.1373698 34.7441406,44.9277344 C34.6074219,44.718099 34.4296875,44.5768229 34.2109375,44.5039062 C33.9921875,44.4309896 33.7278646,44.3945312 33.4179688,44.3945312 L33.4179688,44.3945312 L27.484375,44.3945312 L27.484375,39.5546875 L31.5859375,39.5546875 C35.8151042,39.5546875 39.000651,38.5976562 41.1425781,36.6835938 C43.2845052,34.7695312 44.3554688,32.0533854 44.3554688,28.5351562 C44.3554688,25.0169271 43.2845052,22.3053385 41.1425781,20.4003906 C39.000651,18.4954427 35.8151042,17.5429688 31.5859375,17.5429688 L31.5859375,17.5429688 L16.6289062,17.5429688 C16.3190104,17.5429688 16.0546875,17.5794271 15.8359375,17.6523438 C15.6171875,17.7252604 15.4394531,17.8665365 15.3027344,18.0761719 C15.1660156,18.2858073 15.0657552,18.5729167 15.0019531,18.9375 C14.938151,19.3020833 14.90625,19.7760417 14.90625,20.359375 C14.90625,20.9427083 14.938151,21.4166667 15.0019531,21.78125 C15.0657552,22.1458333 15.1660156,22.4283854 15.3027344,22.6289062 C15.4394531,22.8294271 15.6171875,22.9661458 15.8359375,23.0390625 C16.0546875,23.1119792 16.3190104,23.1484375 16.6289062,23.1484375 L16.6289062,23.1484375 L20.6484375,23.1484375 L20.6484375,44.3945312 L16.6289062,44.3945312 C16.3190104,44.3945312 16.0546875,44.4309896 15.8359375,44.5039062 C15.6171875,44.5768229 15.4394531,44.718099 15.3027344,44.9277344 C15.1660156,45.1373698 15.0657552,45.4244792 15.0019531,45.7890625 C14.938151,46.1536458 14.90625,46.6276042 14.90625,47.2109375 C14.90625,47.7942708 14.938151,48.2682292 15.0019531,48.6328125 C15.0657552,48.9973958 15.1660156,49.2799479 15.3027344,49.4804688 C15.4394531,49.6809896 15.6171875,49.8177083 15.8359375,49.890625 C16.0546875,49.9635417 16.3190104,50 16.6289062,50 L16.6289062,50 L33.4179688,50 Z M30.7382812,33.6757812 L27.484375,33.6757812 L27.484375,23.421875 L30.7382812,23.421875 C32.8893229,23.421875 34.5208333,23.8320312 35.6328125,24.6523438 C36.7447917,25.4726562 37.3007812,26.7669271 37.3007812,28.5351562 C37.3007812,30.3033854 36.7447917,31.6022135 35.6328125,32.4316406 C34.5208333,33.2610677 32.8893229,33.6757812 30.7382812,33.6757812 L30.7382812,33.6757812 Z M63.1679688,50 C63.4778646,50 63.7421875,49.9635417 63.9609375,49.890625 C64.1796875,49.8177083 64.3574219,49.6809896 64.4941406,49.4804688 C64.6308594,49.2799479 64.7311198,48.9973958 64.7949219,48.6328125 C64.858724,48.2682292 64.890625,47.7942708 64.890625,47.2109375 C64.890625,46.6276042 64.858724,46.1536458 64.7949219,45.7890625 C64.7311198,45.4244792 64.6308594,45.1373698 64.4941406,44.9277344 C64.3574219,44.718099 64.1796875,44.5768229 63.9609375,44.5039062 C63.7421875,44.4309896 63.4778646,44.3945312 63.1679688,44.3945312 L63.1679688,44.3945312 L59.96875,44.3945312 L59.96875,37.3945312 L61.0078125,37.3945312 C61.7369792,37.3945312 62.3841146,37.4446615 62.9492188,37.5449219 C63.5143229,37.6451823 64.0247396,37.8001302 64.4804688,38.0097656 C64.9361979,38.219401 65.3463542,38.4928385 65.7109375,38.8300781 C66.0755208,39.1673177 66.421875,39.5729167 66.75,40.046875 C67.4427083,41.03125 68.030599,42.0566406 68.5136719,43.1230469 C68.9967448,44.1894531 69.5299479,45.2148438 70.1132812,46.1992188 C70.9153646,47.5117188 71.7584635,48.4733073 72.6425781,49.0839844 C73.5266927,49.6946615 74.5703125,50 75.7734375,50 L75.7734375,50 L78.6992188,50 C79.0091146,50 79.2734375,49.9635417 79.4921875,49.890625 C79.7109375,49.8177083 79.8886719,49.6809896 80.0253906,49.4804688 C80.1621094,49.2799479 80.2623698,48.9973958 80.3261719,48.6328125 C80.389974,48.2682292 80.421875,47.7942708 80.421875,47.2109375 C80.421875,46.6276042 80.389974,46.1536458 80.3261719,45.7890625 C80.2623698,45.4244792 80.1621094,45.1373698 80.0253906,44.9277344 C79.8886719,44.718099 79.7109375,44.5768229 79.4921875,44.5039062 C79.2734375,44.4309896 79.0091146,44.3945312 78.6992188,44.3945312 L78.6992188,44.3945312 L78.1796875,44.3945312 C77.6692708,44.3945312 77.2226562,44.2259115 76.8398438,43.8886719 C76.4570312,43.5514323 76.0924479,43.1184896 75.7460938,42.5898438 C75.4908854,42.1888021 75.2402344,41.7513021 74.9941406,41.2773438 C74.7480469,40.8033854 74.4882812,40.3203125 74.2148438,39.828125 C73.9414062,39.3359375 73.640625,38.84375 73.3125,38.3515625 C72.984375,37.859375 72.6197917,37.4036458 72.21875,36.984375 C71.9088542,36.6744792 71.5761719,36.3873698 71.2207031,36.1230469 C70.8652344,35.858724 70.4778646,35.6263021 70.0585938,35.4257812 C72.1914062,34.8971354 73.8092448,33.9902344 74.9121094,32.7050781 C76.014974,31.4199219 76.5664062,29.6744792 76.5664062,27.46875 C76.5664062,24.1875 75.5410156,21.7128906 73.4902344,20.0449219 C71.4394531,18.3769531 68.4817708,17.5429688 64.6171875,17.5429688 L64.6171875,17.5429688 L50.2070312,17.5429688 C49.8971354,17.5429688 49.6328125,17.5794271 49.4140625,17.6523438 C49.1953125,17.7252604 49.0175781,17.8665365 48.8808594,18.0761719 C48.7441406,18.2858073 48.6438802,18.5729167 48.5800781,18.9375 C48.516276,19.3020833 48.484375,19.7760417 48.484375,20.359375 C48.484375,20.9427083 48.516276,21.4166667 48.5800781,21.78125 C48.6438802,22.1458333 48.7441406,22.4283854 48.8808594,22.6289062 C49.0175781,22.8294271 49.1953125,22.9661458 49.4140625,23.0390625 C49.6328125,23.1119792 49.8971354,23.1484375 50.2070312,23.1484375 L50.2070312,23.1484375 L53.1328125,23.1484375 L53.1328125,44.3945312 L50.2070312,44.3945312 C49.8971354,44.3945312 49.6328125,44.4309896 49.4140625,44.5039062 C49.1953125,44.5768229 49.0175781,44.718099 48.8808594,44.9277344 C48.7441406,45.1373698 48.6438802,45.4244792 48.5800781,45.7890625 C48.516276,46.1536458 48.484375,46.6276042 48.484375,47.2109375 C48.484375,47.7942708 48.516276,48.2682292 48.5800781,48.6328125 C48.6438802,48.9973958 48.7441406,49.2799479 48.8808594,49.4804688 C49.0175781,49.6809896 49.1953125,49.8177083 49.4140625,49.890625 C49.6328125,49.9635417 49.8971354,50 50.2070312,50 L50.2070312,50 L63.1679688,50 Z M64.0429688,31.515625 L59.96875,31.515625 L59.96875,23.421875 L64.0429688,23.421875 C65.9205729,23.421875 67.3014323,23.7545573 68.1855469,24.4199219 C69.0696615,25.0852865 69.5117188,26.1015625 69.5117188,27.46875 C69.5117188,28.8359375 69.0696615,29.8522135 68.1855469,30.5175781 C67.3014323,31.1829427 65.9205729,31.515625 64.0429688,31.515625 L64.0429688,31.515625 Z M97.2109375,50.6015625 C99.4713542,50.6015625 101.526693,50.2096354 103.376953,49.4257812 C105.227214,48.6419271 106.813151,47.5253906 108.134766,46.0761719 C109.45638,44.6269531 110.477214,42.8632812 111.197266,40.7851562 C111.917318,38.7070312 112.277344,36.3645833 112.277344,33.7578125 C112.277344,31.1692708 111.917318,28.8359375 111.197266,26.7578125 C110.477214,24.6796875 109.45638,22.9114583 108.134766,21.453125 C106.813151,19.9947917 105.227214,18.8782552 103.376953,18.1035156 C101.526693,17.328776 99.4713542,16.9414062 97.2109375,16.9414062 C94.9505208,16.9414062 92.8951823,17.328776 91.0449219,18.1035156 C89.1946615,18.8782552 87.608724,19.9947917 86.2871094,21.453125 C84.9654948,22.9114583 83.9446615,24.6796875 83.2246094,26.7578125 C82.5045573,28.8359375 82.1445312,31.1692708 82.1445312,33.7578125 C82.1445312,36.3645833 82.5045573,38.7070312 83.2246094,40.7851562 C83.9446615,42.8632812 84.9654948,44.6269531 86.2871094,46.0761719 C87.608724,47.5253906 89.1946615,48.6419271 91.0449219,49.4257812 C92.8951823,50.2096354 94.9505208,50.6015625 97.2109375,50.6015625 Z M97.2109375,44.3945312 C94.640625,44.3945312 92.7083333,43.4739583 91.4140625,41.6328125 C90.1197917,39.7916667 89.4726562,37.1666667 89.4726562,33.7578125 C89.4726562,30.3307292 90.1152344,27.7057292 91.4003906,25.8828125 C92.6855469,24.0598958 94.6223958,23.1484375 97.2109375,23.1484375 C99.7994792,23.1484375 101.736328,24.0598958 103.021484,25.8828125 C104.306641,27.7057292 104.949219,30.3307292 104.949219,33.7578125 C104.949219,37.1666667 104.302083,39.7916667 103.007812,41.6328125 C101.713542,43.4739583 99.78125,44.3945312 97.2109375,44.3945312 Z M130.707031,50.6015625 C131.83724,50.6015625 132.662109,50.4648438 133.181641,50.1914062 C133.701172,49.9179688 134.088542,49.4622396 134.34375,48.8242188 L134.34375,48.8242188 L144.269531,23.1484375 L146.128906,23.1484375 C146.438802,23.1484375 146.703125,23.1119792 146.921875,23.0390625 C147.140625,22.9661458 147.318359,22.8294271 147.455078,22.6289062 C147.591797,22.4283854 147.692057,22.1458333 147.755859,21.78125 C147.819661,21.4166667 147.851562,20.9427083 147.851562,20.359375 C147.851562,19.7760417 147.819661,19.3020833 147.755859,18.9375 C147.692057,18.5729167 147.591797,18.2858073 147.455078,18.0761719 C147.318359,17.8665365 147.140625,17.7252604 146.921875,17.6523438 C146.703125,17.5794271 146.438802,17.5429688 146.128906,17.5429688 L146.128906,17.5429688 L135.082031,17.5429688 C134.772135,17.5429688 134.507812,17.5794271 134.289062,17.6523438 C134.070312,17.7252604 133.892578,17.8665365 133.755859,18.0761719 C133.619141,18.2858073 133.51888,18.5729167 133.455078,18.9375 C133.391276,19.3020833 133.359375,19.7760417 133.359375,20.359375 C133.359375,20.9427083 133.391276,21.4166667 133.455078,21.78125 C133.51888,22.1458333 133.619141,22.4283854 133.755859,22.6289062 C133.892578,22.8294271 134.070312,22.9661458 134.289062,23.0390625 C134.507812,23.1119792 134.772135,23.1484375 135.082031,23.1484375 L135.082031,23.1484375 L137.023438,23.1484375 L130.761719,39.9101562 L124.882812,23.1484375 L127.316406,23.1484375 C127.626302,23.1484375 127.890625,23.1119792 128.109375,23.0390625 C128.328125,22.9661458 128.505859,22.8294271 128.642578,22.6289062 C128.779297,22.4283854 128.879557,22.1458333 128.943359,21.78125 C129.007161,21.4166667 129.039062,20.9427083 129.039062,20.359375 C129.039062,19.7760417 129.007161,19.3020833 128.943359,18.9375 C128.879557,18.5729167 128.779297,18.2858073 128.642578,18.0761719 C128.505859,17.8665365 128.328125,17.7252604 128.109375,17.6523438 C127.890625,17.5794271 127.626302,17.5429688 127.316406,17.5429688 L127.316406,17.5429688 L115.449219,17.5429688 C115.139323,17.5429688 114.875,17.5794271 114.65625,17.6523438 C114.4375,17.7252604 114.259766,17.8665365 114.123047,18.0761719 C113.986328,18.2858073 113.886068,18.5729167 113.822266,18.9375 C113.758464,19.3020833 113.726562,19.7760417 113.726562,20.359375 C113.726562,20.9427083 113.758464,21.4166667 113.822266,21.78125 C113.886068,22.1458333 113.986328,22.4283854 114.123047,22.6289062 C114.259766,22.8294271 114.4375,22.9661458 114.65625,23.0390625 C114.875,23.1119792 115.139323,23.1484375 115.449219,23.1484375 L115.449219,23.1484375 L117.554688,23.1484375 L127.125,48.8242188 C127.34375,49.4622396 127.712891,49.9179688 128.232422,50.1914062 C128.751953,50.4648438 129.576823,50.6015625 130.707031,50.6015625 Z M176.425781,50 C177.063802,50 177.519531,49.8632812 177.792969,49.5898438 C178.066406,49.3164062 178.203125,48.8606771 178.203125,48.2226562 L178.203125,48.2226562 L178.203125,38.5976562 C178.203125,38.2877604 178.157552,38.0234375 178.066406,37.8046875 C177.97526,37.5859375 177.811198,37.4082031 177.574219,37.2714844 C177.33724,37.1347656 177.018229,37.0345052 176.617188,36.9707031 C176.216146,36.906901 175.705729,36.875 175.085938,36.875 C173.828125,36.875 172.939453,37.0071615 172.419922,37.2714844 C171.900391,37.5358073 171.640625,37.9778646 171.640625,38.5976562 L171.640625,38.5976562 L171.640625,44.1210938 L160.429688,44.1210938 L160.429688,36.21875 L167.101562,36.21875 C167.721354,36.21875 168.163411,36.0182292 168.427734,35.6171875 C168.692057,35.2161458 168.824219,34.4414062 168.824219,33.2929688 C168.824219,32.7096354 168.792318,32.2265625 168.728516,31.84375 C168.664714,31.4609375 168.564453,31.1601562 168.427734,30.9414062 C168.291016,30.7226562 168.113281,30.5677083 167.894531,30.4765625 C167.675781,30.3854167 167.411458,30.3398438 167.101562,30.3398438 L167.101562,30.3398438 L160.429688,30.3398438 L160.429688,23.421875 L171.367188,23.421875 L171.367188,27.578125 C171.367188,27.8880208 171.41276,28.1523438 171.503906,28.3710938 C171.595052,28.5898438 171.75,28.7675781 171.96875,28.9042969 C172.1875,29.0410156 172.488281,29.141276 172.871094,29.2050781 C173.253906,29.2688802 173.736979,29.3007812 174.320312,29.3007812 C175.486979,29.3007812 176.334635,29.1686198 176.863281,28.9042969 C177.391927,28.639974 177.65625,28.1979167 177.65625,27.578125 L177.65625,27.578125 L177.65625,19.3203125 C177.65625,18.6822917 177.519531,18.2265625 177.246094,17.953125 C176.972656,17.6796875 176.516927,17.5429688 175.878906,17.5429688 L175.878906,17.5429688 L150.941406,17.5429688 C150.63151,17.5429688 150.367188,17.5794271 150.148438,17.6523438 C149.929688,17.7252604 149.751953,17.8665365 149.615234,18.0761719 C149.478516,18.2858073 149.378255,18.5729167 149.314453,18.9375 C149.250651,19.3020833 149.21875,19.7760417 149.21875,20.359375 C149.21875,20.9427083 149.250651,21.4166667 149.314453,21.78125 C149.378255,22.1458333 149.478516,22.4283854 149.615234,22.6289062 C149.751953,22.8294271 149.929688,22.9661458 150.148438,23.0390625 C150.367188,23.1119792 150.63151,23.1484375 150.941406,23.1484375 L150.941406,23.1484375 L153.59375,23.1484375 L153.59375,44.3945312 L150.941406,44.3945312 C150.63151,44.3945312 150.367188,44.4309896 150.148438,44.5039062 C149.929688,44.5768229 149.751953,44.718099 149.615234,44.9277344 C149.478516,45.1373698 149.378255,45.4244792 149.314453,45.7890625 C149.250651,46.1536458 149.21875,46.6276042 149.21875,47.2109375 C149.21875,47.7942708 149.250651,48.2682292 149.314453,48.6328125 C149.378255,48.9973958 149.478516,49.2799479 149.615234,49.4804688 C149.751953,49.6809896 149.929688,49.8177083 150.148438,49.890625 C150.367188,49.9635417 150.63151,50 150.941406,50 L150.941406,50 L176.425781,50 Z M207.625,50.6015625 C208.773438,50.6015625 209.561849,50.4466146 209.990234,50.1367188 C210.41862,49.8268229 210.632812,49.3802083 210.632812,48.796875 L210.632812,48.796875 L210.632812,23.1484375 L212.191406,23.1484375 C212.501302,23.1484375 212.765625,23.1119792 212.984375,23.0390625 C213.203125,22.9661458 213.380859,22.8294271 213.517578,22.6289062 C213.654297,22.4283854 213.754557,22.1458333 213.818359,21.78125 C213.882161,21.4166667 213.914062,20.9427083 213.914062,20.359375 C213.914062,19.7760417 213.882161,19.3020833 213.818359,18.9375 C213.754557,18.5729167 213.654297,18.2858073 213.517578,18.0761719 C213.380859,17.8665365 213.203125,17.7252604 212.984375,17.6523438 C212.765625,17.5794271 212.501302,17.5429688 212.191406,17.5429688 L212.191406,17.5429688 L201.9375,17.5429688 C201.627604,17.5429688 201.363281,17.5794271 201.144531,17.6523438 C200.925781,17.7252604 200.748047,17.8665365 200.611328,18.0761719 C200.474609,18.2858073 200.374349,18.5729167 200.310547,18.9375 C200.246745,19.3020833 200.214844,19.7760417 200.214844,20.359375 C200.214844,20.9427083 200.246745,21.4166667 200.310547,21.78125 C200.374349,22.1458333 200.474609,22.4283854 200.611328,22.6289062 C200.748047,22.8294271 200.925781,22.9661458 201.144531,23.0390625 C201.363281,23.1119792 201.627604,23.1484375 201.9375,23.1484375 L201.9375,23.1484375 L204.34375,23.1484375 L204.34375,37.0664062 L192.996094,18.28125 C192.832031,18.0078125 192.622396,17.8164062 192.367188,17.7070312 C192.111979,17.5976562 191.811198,17.5429688 191.464844,17.5429688 L191.464844,17.5429688 L184.246094,17.5429688 C183.936198,17.5429688 183.671875,17.5794271 183.453125,17.6523438 C183.234375,17.7252604 183.056641,17.8665365 182.919922,18.0761719 C182.783203,18.2858073 182.682943,18.5729167 182.619141,18.9375 C182.555339,19.3020833 182.523438,19.7760417 182.523438,20.359375 C182.523438,20.9427083 182.555339,21.4166667 182.619141,21.78125 C182.682943,22.1458333 182.783203,22.4283854 182.919922,22.6289062 C183.056641,22.8294271 183.234375,22.9661458 183.453125,23.0390625 C183.671875,23.1119792 183.936198,23.1484375 184.246094,23.1484375 L184.246094,23.1484375 L186.078125,23.1484375 L186.078125,44.3945312 L184.246094,44.3945312 C183.936198,44.3945312 183.671875,44.4309896 183.453125,44.5039062 C183.234375,44.5768229 183.056641,44.718099 182.919922,44.9277344 C182.783203,45.1373698 182.682943,45.4244792 182.619141,45.7890625 C182.555339,46.1536458 182.523438,46.6276042 182.523438,47.2109375 C182.523438,47.7942708 182.555339,48.2682292 182.619141,48.6328125 C182.682943,48.9973958 182.783203,49.2799479 182.919922,49.4804688 C183.056641,49.6809896 183.234375,49.8177083 183.453125,49.890625 C183.671875,49.9635417 183.936198,50 184.246094,50 L184.246094,50 L195.292969,50 C195.602865,50 195.867188,49.9635417 196.085938,49.890625 C196.304688,49.8177083 196.482422,49.6809896 196.619141,49.4804688 C196.755859,49.2799479 196.85612,48.9973958 196.919922,48.6328125 C196.983724,48.2682292 197.015625,47.7942708 197.015625,47.2109375 C197.015625,46.6276042 196.983724,46.1536458 196.919922,45.7890625 C196.85612,45.4244792 196.755859,45.1373698 196.619141,44.9277344 C196.482422,44.718099 196.304688,44.5768229 196.085938,44.5039062 C195.867188,44.4309896 195.602865,44.3945312 195.292969,44.3945312 L195.292969,44.3945312 L192.367188,44.3945312 L192.367188,28.78125 L204.671875,49.1523438 C204.817708,49.3893229 204.968099,49.5989583 205.123047,49.78125 C205.277995,49.9635417 205.469401,50.1139323 205.697266,50.2324219 C205.92513,50.3509115 206.19401,50.4420573 206.503906,50.5058594 C206.813802,50.5696615 207.1875,50.6015625 207.625,50.6015625 Z" id="PROVEN"></path>
                <path d="M220,0 L8,0 C3.581722,0 0,3.581722 0,8 L0,61 C0,65.418278 3.581722,69 8,69 L220,69 C224.418278,69 228,65.418278 228,61 L228,8 C228,3.581722 224.418278,0 220,0 Z M220,6 C221.104569,6 222,6.8954305 222,8 L222,61 C222,62.1045695 221.104569,63 220,63 L8,63 C6.8954305,63 6,62.1045695 6,61 L6,8 C6,6.8954305 6.8954305,6 8,6 L220,6 Z" id="Rectangle"></path>
            </g>
            <g id="yes!">
                <use fill="black" fill-opacity="1" filter="url(#filter-3)" xlink:href="#path-2"></use>
                <use fill="#000000" xlink:href="#path-2"></use>
            </g>
        </g>
    </g>
</svg>
