
<svg width="418px" height="418px" viewBox="0 0 418 418" version="1.1" xmlns="http://www.w3.org/2000/svg" xmlns:xlink="http://www.w3.org/1999/xlink">
    <g id="Page-1" stroke="none" stroke-width="1" fill="none" fill-rule="evenodd">
        <g id="Group" transform="translate(2.000000, 6.000000)">
            <path id="Line" d="M390.487371,366.026326 L392.230522,367.006849 L412.230522,378.256849 L415.329458,380 L412.230522,381.743151 L392.230522,392.993151 L390.487371,393.973674 L388.526326,390.487371 L390.269478,389.506849 L403.612,382 L-2,382 L-2,378 L403.615,378 L390.269478,370.493151 L388.526326,369.512629 L390.487371,366.026326 Z" fill="#000000" fill-rule="nonzero"></path>
            <path id="Path" d="M112.209957,275.508982 C112.329034,275.497412 112.491064,275.481055 112.69437,275.459648 L112.854563,275.442642 C113.513662,275.372128 114.27999,275.283142 115.144559,275.174288 C117.62108,274.862481 120.383225,274.454418 123.358944,273.939021 C131.856499,272.467237 140.351412,270.43343 148.262613,267.753625 C162.439953,262.951255 173.112467,256.617772 178.854454,248.667948 C179.963725,247.132155 181.072151,245.394164 182.319487,243.262468 C182.787817,242.462093 183.751465,240.74341 184.76189,238.92907 L185.099815,238.321876 L185.099815,238.321876 L185.421493,237.743203 C186.543284,235.724172 187.602698,233.807366 187.984455,233.121251 L188.104782,232.90584 C190.693148,228.314448 193.001157,224.549293 195.637479,220.747827 C201.076622,212.904811 209.07839,208.891948 219.434408,208.760365 L219.963013,208.757019 L282.34782,208.757466 C321.934067,209.594476 347.876323,192.50141 360.601667,157.249993 C372.164669,125.218469 379.484721,92.9712418 382.563965,60.5049205 C376.993026,59.1120084 373.07218,53.869076 373.524525,47.9510475 C374.029619,41.3429058 379.796035,36.3954079 386.404177,36.9005016 C393.012319,37.4055954 397.959817,43.172012 397.454723,49.7801537 C397.000758,55.7193826 392.296719,60.3171509 386.551351,60.820406 C383.444298,93.6452815 376.047555,126.242768 364.364031,158.608161 C351.178375,195.134721 324.08467,213.26485 283.538336,212.777487 L282.305542,212.757019 L219.963013,212.757019 C210.624969,212.757019 203.685152,216.162529 198.924411,223.027319 C196.367656,226.714052 194.121423,230.378428 191.589231,234.870175 C191.218448,235.527891 186.967299,243.239644 185.771888,245.282599 C184.464727,247.516535 183.290297,249.358018 182.097084,251.01003 C175.766085,259.775346 164.438673,266.497471 149.545929,271.542173 C141.418216,274.295319 132.728579,276.375746 124.041584,277.880341 C121.002709,278.406677 118.179876,278.823705 115.644235,279.142956 C114.754549,279.254972 113.963527,279.346825 113.280083,279.419945 C112.925392,279.457892 112.662891,279.484166 112.498198,279.499665 L112.424028,279.50652 L112.243896,279.514648 C112.169135,279.514648 111.977502,279.521813 111.67686,279.545043 C111.145994,279.586062 110.521627,279.660923 109.811556,279.778492 C107.748388,280.1201 105.434779,280.738912 102.931781,281.70592 C95.7096829,284.496105 88.4585738,289.538612 81.652969,297.426443 C72.3278427,308.234449 64.6235718,323.518412 59.124269,343.966055 C64.4038063,346.198977 67.4694664,351.970225 66.1223527,357.7422 C64.6160685,364.196173 58.1630052,368.207067 51.7090325,366.700783 C45.2550598,365.194499 41.2441658,358.741435 42.75045,352.287463 C44.1061058,346.478887 49.4686526,342.649206 55.2325516,343.039436 C60.8826873,321.978283 68.8699849,306.119003 78.6244214,294.813418 C85.8648422,286.421627 93.6630462,280.998663 101.490261,277.974698 C104.254523,276.906753 106.83194,276.217381 109.158155,275.83222 C110.484371,275.612632 111.484026,275.527026 112.106874,275.515917 L112.144,275.515 L112.209957,275.508982 Z" fill="#204A87" fill-rule="nonzero"></path>
            <line x1="205.5" y1="211.5" x2="54.5" y2="211.5" id="Line-2" stroke-opacity="0.5" stroke="#CC0000" stroke-width="3.5" stroke-linecap="square" stroke-dasharray="8"></line>
            <path d="M106.828125,198 L106.828125,196.664062 C104.765625,196.523438 103.5,196.382812 103.03125,196.242188 C102.796875,196.164062 102.628906,196.066406 102.527344,195.949219 C102.425781,195.832031 102.34375,195.640625 102.28125,195.375 C102.21875,195.109375 102.179688,194.492188 102.164062,193.523438 C102.085938,190.789062 102.046875,188.90625 102.046875,187.875 L102.046875,187.875 L102.046875,179.484375 C103.34375,179.421875 104.320312,179.390625 104.976562,179.390625 C105.617188,179.390625 106.617188,179.421875 107.976562,179.484375 L107.976562,179.484375 L108.445312,177.070312 L108.210938,176.929688 C107.007812,177.023438 105.78125,177.070312 104.53125,177.070312 L104.53125,177.070312 L102.046875,177.070312 L102.046875,172.21875 C102.046875,170.25 102.167969,168.945312 102.410156,168.304688 C102.652344,167.664062 103.039062,167.171875 103.570312,166.828125 C104.101562,166.484375 104.789062,166.3125 105.632812,166.3125 C106.273438,166.3125 106.832031,166.40625 107.308594,166.59375 C107.785156,166.78125 108.265625,167.078125 108.75,167.484375 L108.75,167.484375 L109.289062,167.273438 L109.195312,163.382812 C108.554688,163.179688 107.929688,163.078125 107.320312,163.078125 C106.460938,163.078125 105.710938,163.242188 105.070312,163.570312 C104.585938,163.820312 103.835938,164.4375 102.820312,165.421875 C101.304688,166.921875 100.195312,168.15625 99.4921875,169.125 C99.0234375,169.78125 98.6601562,170.527344 98.4023438,171.363281 C98.1445312,172.199219 98.015625,173.632812 98.015625,175.664062 L98.015625,175.664062 L98.015625,177.070312 C97.078125,177.648438 96,178.195312 94.78125,178.710938 L94.78125,178.710938 L94.78125,179.671875 L98.015625,179.484375 L98.015625,187.6875 C97.9273897,191.716912 97.8806769,193.940095 97.8754866,194.35705 L97.875,194.414062 C97.828125,195.210938 97.71875,195.765625 97.546875,196.078125 C97.453125,196.234375 97.3164062,196.363281 97.1367188,196.464844 C96.9570312,196.566406 96.703125,196.625 96.375,196.640625 L96.375,196.640625 L94.1484375,196.664062 L94.1484375,198 C97.4453125,197.890625 99.453125,197.835938 100.171875,197.835938 C100.96875,197.835938 103.1875,197.890625 106.828125,198 L106.828125,198 Z M122.203125,205.96875 L123.351562,204.9375 C120.695312,201.703125 118.792969,198.453125 117.644531,195.1875 C116.496094,191.921875 115.921875,187.882812 115.921875,183.070312 C115.921875,178.632812 116.535156,174.722656 117.761719,171.339844 C118.988281,167.957031 120.851562,164.914062 123.351562,162.210938 L123.351562,162.210938 L122.414062,161.015625 C121.179688,161.90625 119.890625,163.164062 118.546875,164.789062 C117.203125,166.414062 116.039062,168.121094 115.054688,169.910156 C114.070312,171.699219 113.285156,173.695312 112.699219,175.898438 C112.113281,178.101562 111.820312,180.546875 111.820312,183.234375 C111.820312,187.828125 112.71875,192.0625 114.515625,195.9375 C116.3125,199.8125 118.875,203.15625 122.203125,205.96875 L122.203125,205.96875 Z M148.5,198 L148.5,196.664062 C147.8125,196.664062 147.351562,196.617188 147.117188,196.523438 C146.882812,196.429688 146.59375,196.203125 146.25,195.84375 C145.578125,195.125 144.425781,193.636719 142.792969,191.378906 C141.160156,189.121094 140.15625,187.71875 139.78125,187.171875 L139.78125,187.171875 L138.914062,185.859375 L140.367188,183.960938 L142.617188,181.265625 C144.257812,179.25 145.4375,178 146.15625,177.515625 C146.5,177.28125 147.015625,177.15625 147.703125,177.140625 L147.703125,177.140625 L147.703125,175.828125 C146.90625,175.875 146.320312,175.898438 145.945312,175.898438 C145.539062,175.898438 144.929688,175.875 144.117188,175.828125 C142.039062,178.828125 140.429688,181.054688 139.289062,182.507812 L139.289062,182.507812 L137.835938,184.382812 L136.101562,181.640625 C134.867188,179.734375 133.820312,178.226562 132.960938,177.117188 C132.460938,176.507812 131.914062,175.929688 131.320312,175.382812 C129.460938,175.789062 127.625,176.09375 125.8125,176.296875 L125.8125,176.296875 L126.09375,177.632812 C126.453125,177.601562 126.703125,177.585938 126.84375,177.585938 C127.1875,177.585938 127.484375,177.65625 127.734375,177.796875 C128.390625,178.1875 129.222656,179.007812 130.230469,180.257812 C131.238281,181.507812 132.273438,182.929688 133.335938,184.523438 L133.335938,184.523438 L135.328125,187.476562 L129.84375,194.203125 C128.890625,195.3125 128.132812,196.023438 127.570312,196.335938 C127.148438,196.554688 126.5625,196.664062 125.8125,196.664062 L125.8125,196.664062 L125.8125,198 C126.4375,197.9375 127.117188,197.90625 127.851562,197.90625 C128.601562,197.90625 129.289062,197.9375 129.914062,198 C132.492188,194.015625 134.648438,191.015625 136.382812,189 L136.382812,189 L139.945312,194.34375 C140.742188,195.515625 141.640625,196.734375 142.640625,198 C143.65625,197.9375 144.625,197.90625 145.546875,197.90625 C146.421875,197.90625 147.40625,197.9375 148.5,198 L148.5,198 Z M153.539062,205.96875 C154.757812,205.0625 156.039062,203.800781 157.382812,202.183594 C158.726562,200.566406 159.890625,198.859375 160.875,197.0625 C161.859375,195.265625 162.644531,193.265625 163.230469,191.0625 C163.816406,188.859375 164.109375,186.421875 164.109375,183.75 C164.109375,179.15625 163.210938,174.921875 161.414062,171.046875 C159.617188,167.171875 157.054688,163.828125 153.726562,161.015625 L153.726562,161.015625 L152.578125,162.023438 C155.234375,165.257812 157.136719,168.507812 158.285156,171.773438 C159.433594,175.039062 160.007812,179.078125 160.007812,183.890625 C160.007812,188.328125 159.394531,192.242188 158.167969,195.632812 C156.941406,199.023438 155.078125,202.070312 152.578125,204.773438 L152.578125,204.773438 L153.539062,205.96875 Z" id="f(x)" fill="#A40000" fill-rule="nonzero"></path>
            <line x1="212" y1="211.5" x2="212" y2="355.5" id="Line-3" stroke-opacity="0.7" stroke="#4E9A06" stroke-width="3.5" stroke-linecap="square" stroke-dasharray="8"></line>
            <line x1="293" y1="211.5" x2="293" y2="355.5" id="Line-4" stroke-opacity="0.7" stroke="#4E9A06" stroke-width="3.5" stroke-linecap="square" stroke-dasharray="8"></line>
            <text id="x?" font-family="Palatino-Roman, Palatino" font-size="48" font-weight="normal" fill="#4E9A06">
                <tspan x="235" y="347">x?</tspan>
            </text>
            <path d="M60.7001953,21 C61.5068359,21 62.1289062,20.9760742 62.5664062,20.9282227 L62.5664062,20.9282227 L62.699707,20.7949219 C62.699707,19.9199219 62.7749023,18.8056641 62.925293,17.4521484 L62.925293,17.4521484 L62.0844727,17.4521484 C61.9477539,18.3681641 61.8178711,18.9902344 61.6948242,19.3183594 C61.6538086,19.4140625 61.609375,19.4755859 61.5615234,19.5029297 C61.4179688,19.5917969 61.0334473,19.6601562 60.407959,19.7080078 C59.7824707,19.7558594 59.1005859,19.7797852 58.3623047,19.7797852 C57.6035156,19.7797852 56.9472656,19.7592773 56.3935547,19.7182617 C56.3730469,19.3696289 56.362793,18.9526367 56.362793,18.4672852 L56.362793,18.4672852 L56.362793,14.1196289 C56.793457,14.0786133 57.340332,14.0581055 58.003418,14.0581055 C58.7416992,14.0581055 59.3466797,14.0957031 59.8183594,14.1708984 C60.0302734,14.2050781 60.1772461,14.2905273 60.2592773,14.4272461 C60.3686523,14.6118164 60.4199219,15.1005859 60.4130859,15.8935547 L60.4130859,15.8935547 L61.2949219,15.8935547 L61.2539062,13.6479492 L61.2949219,11.3920898 L60.4643555,11.3920898 C60.4506836,12.0004883 60.402832,12.4345703 60.3208008,12.6943359 C60.2866211,12.796875 60.2370605,12.8686523 60.1721191,12.909668 C60.1071777,12.9506836 59.8901367,12.9746094 59.5209961,12.9814453 C58.543457,13.0087891 57.9760742,13.0224609 57.8188477,13.0224609 C57.3129883,13.0224609 56.8276367,13.0053711 56.362793,12.9711914 L56.362793,12.9711914 L56.362793,10.8691406 C56.362793,9.6796875 56.4106445,8.69873047 56.5063477,7.92626953 C57.1420898,7.87841797 57.7641602,7.85449219 58.3725586,7.85449219 C59.0219727,7.85449219 59.6850586,7.89208984 60.3618164,7.96728516 C60.8198242,8.01513672 61.0932617,8.06982422 61.1821289,8.13134766 C61.2368164,8.17236328 61.277832,8.24072266 61.3051758,8.33642578 C61.3530273,8.52099609 61.3837891,9.01660156 61.3974609,9.82324219 L61.3974609,9.82324219 L62.1972656,9.82324219 C62.2587891,8.94140625 62.2929688,8.44921875 62.2998047,8.34667969 L62.2998047,8.34667969 L62.4946289,6.87011719 L62.4228516,6.73681641 C62.265625,6.69580078 62.152832,6.67529297 62.0844727,6.67529297 C61.3325195,6.64794922 60.8334961,6.63427734 60.5874023,6.63427734 L60.5874023,6.63427734 L58.5058594,6.68554688 C57.3574219,6.70605469 56.3149414,6.71630859 55.378418,6.71630859 C54.9477539,6.71630859 54.496582,6.71289062 54.0249023,6.70605469 L54.0249023,6.70605469 L51.6459961,6.65478516 L51.6459961,7.52636719 C52.4458008,7.56738281 52.9379883,7.62890625 53.1225586,7.7109375 C53.190918,7.74511719 53.2421875,7.79638672 53.2763672,7.86474609 C53.3515625,8.03564453 53.3994141,8.50732422 53.4199219,9.27978516 C53.4376953,10.2810221 53.4477669,10.9151389 53.4501367,11.1821354 L53.4500056,16.0469396 C53.445486,16.5847753 53.4183683,17.3881392 53.3686523,18.4570312 C53.3413086,19.0996094 53.3071289,19.5644531 53.2661133,19.8515625 C53.0063477,20.0566406 52.6713867,20.2548828 52.2612305,20.4462891 L52.2612305,20.4462891 L52.2612305,21 C54.196098,20.962551 55.3160417,20.9421982 55.6210614,20.9389418 L55.8158268,20.9386133 C56.452997,20.9398893 57.5308268,20.9500977 59.0493164,20.9692383 L59.0493164,20.9692383 L60.7001953,21 Z M73.9482422,21 L73.9482422,20.2001953 C73.5175781,20.1386719 73.2629395,20.0908203 73.1843262,20.0566406 C73.1057129,20.0224609 73.0014648,19.9130859 72.871582,19.7285156 C72.6118164,19.3798828 72.2529297,18.8056641 71.7949219,18.0058594 L71.7949219,18.0058594 L70.3081055,15.4423828 L71.1899414,14.3759766 C71.8598633,13.5693359 72.3383789,13.020752 72.6254883,12.7302246 C72.9125977,12.4396973 73.1057129,12.2756348 73.204834,12.2380371 C73.3039551,12.2004395 73.5517578,12.1679688 73.9482422,12.140625 L73.9482422,12.140625 L73.9482422,11.3408203 L72.7895508,11.371582 C72.7006836,11.371582 72.4238281,11.3613281 71.9589844,11.3408203 L71.9589844,11.3408203 L70.7797852,13.0839844 C70.5131836,13.4667969 70.1577148,13.9384766 69.7133789,14.4990234 C69.0229492,13.2753906 68.5290527,12.463623 68.2316895,12.0637207 C67.9343262,11.6638184 67.6318359,11.3442383 67.3242188,11.1049805 C66.3740234,11.3510742 65.3520508,11.5766602 64.2583008,11.7817383 L64.2583008,11.7817383 L64.4223633,12.5507812 C64.6889648,12.5166016 64.8803711,12.4995117 64.996582,12.4995117 C65.1264648,12.4995117 65.2409668,12.5217285 65.3400879,12.5661621 C65.439209,12.6105957 65.543457,12.690918 65.652832,12.8071289 C65.8305664,12.9985352 66.0117188,13.234375 66.1962891,13.5146484 L66.1962891,13.5146484 L66.7089844,14.3759766 L68.0419922,16.5908203 C66.4628906,18.6484375 65.5332031,19.7832031 65.2529297,19.9951172 C65.0957031,20.1113281 64.7744141,20.1796875 64.2890625,20.2001953 L64.2890625,20.2001953 L64.2890625,21 C64.7607422,20.9931641 65.1025391,20.9897461 65.3144531,20.9897461 C65.546875,20.9897461 65.8442383,20.9931641 66.206543,21 C66.6713867,20.2822266 67.0576172,19.7011719 67.3652344,19.2568359 C67.5292969,19.0175781 67.949707,18.4433594 68.6264648,17.5341797 L68.6264648,17.5341797 L69.4160156,18.9082031 L70.03125,19.9130859 C70.3320312,20.4189453 70.5610352,20.78125 70.7182617,21 C71.012207,20.9863281 71.4052734,20.9794922 71.8974609,20.9794922 C72.7587891,20.9794922 73.4423828,20.9863281 73.9482422,21 L73.9482422,21 Z M80.7875977,26.4140625 L80.7875977,25.6040039 C79.9331055,25.5356445 79.4716797,25.4946289 79.4033203,25.480957 C79.2392578,25.4467773 79.1264648,25.3903809 79.0649414,25.3117676 C79.003418,25.2331543 78.9726562,25.0366211 78.9726562,24.722168 L78.9726562,24.722168 L78.9726562,20.9282227 C79.2802734,21.0307617 79.5844727,21.109375 79.8852539,21.1640625 C80.1860352,21.21875 80.4799805,21.2460938 80.7670898,21.2460938 C81.1293945,21.2460938 81.4472656,21.2050781 81.7207031,21.1230469 C81.9189453,21.0683594 82.1274414,20.9726562 82.3461914,20.8359375 C82.4829102,20.7470703 82.7084961,20.5727539 83.0229492,20.3129883 C83.3374023,20.0532227 83.6809082,19.7866211 84.0534668,19.5131836 C84.4260254,19.2397461 84.690918,19.0209961 84.8481445,18.8569336 C85.0600586,18.6381836 85.2600098,18.3647461 85.447998,18.0366211 C85.6359863,17.7084961 85.8051758,17.2675781 85.9555664,16.7138672 C86.105957,16.1601562 86.1811523,15.6030273 86.1811523,15.0424805 C86.1811523,14.1538086 85.9760742,13.4001465 85.565918,12.7814941 C85.1557617,12.1628418 84.6328125,11.706543 83.9970703,11.4125977 C83.5527344,11.2075195 82.9682617,11.1049805 82.2436523,11.1049805 C81.9223633,11.1049805 81.6711426,11.1237793 81.4899902,11.161377 C81.3088379,11.1989746 81.0849609,11.2724609 80.8183594,11.3818359 C80.6816406,11.5117188 80.5791016,11.6074219 80.5107422,11.6689453 L80.5107422,11.6689453 L79.4853516,12.5097656 C79.2460938,12.7080078 79.0751953,12.8481445 78.9726562,12.9301758 L78.9726562,12.9301758 L79.003418,11.2075195 L78.7675781,11.0537109 C78.2138672,11.2998047 77.6772461,11.484375 77.1577148,11.6074219 C76.6381836,11.7304688 75.8691406,11.8466797 74.8505859,11.9560547 L74.8505859,11.9560547 L74.8505859,12.7558594 C75.5341797,12.7626953 75.9238281,12.7849121 76.0195312,12.8225098 C76.1152344,12.8601074 76.1870117,12.9165039 76.2348633,12.9916992 C76.3032227,13.1079102 76.3510742,13.4890137 76.378418,14.1350098 C76.4057617,14.7810059 76.4194336,15.534668 76.4194336,16.3959961 L76.4194336,16.3959961 L76.4194336,21.1435547 L76.3886719,23.3481445 C76.3613281,24.2504883 76.3305664,24.8383789 76.2963867,25.1118164 C76.2827148,25.2143555 76.2502441,25.3015137 76.1989746,25.373291 C76.1477051,25.4450684 76.0810547,25.4946289 75.9990234,25.5219727 C75.8554688,25.5766602 75.4726562,25.6040039 74.8505859,25.6040039 L74.8505859,25.6040039 L74.8505859,26.4140625 L77.5371094,26.3422852 L80.7875977,26.4140625 Z M81.0234375,19.9233398 C80.6542969,19.9233398 80.2988281,19.8430176 79.9570312,19.682373 C79.6152344,19.5217285 79.2871094,19.2807617 78.9726562,18.9594727 L78.9726562,18.9594727 L78.9726562,13.9350586 C79.21875,13.6411133 79.5349121,13.3984375 79.9211426,13.2070312 C80.307373,13.015625 80.6884766,12.9199219 81.0644531,12.9199219 C81.4541016,12.9199219 81.8146973,13.010498 82.1462402,13.1916504 C82.4777832,13.3728027 82.7392578,13.5983887 82.9306641,13.8684082 C83.1220703,14.1384277 83.2724609,14.4904785 83.3818359,14.9245605 C83.4912109,15.3586426 83.5458984,15.8183594 83.5458984,16.3037109 C83.5458984,17.0625 83.4382324,17.7324219 83.2229004,18.3134766 C83.0075684,18.8945312 82.7102051,19.3081055 82.3308105,19.5541992 C81.951416,19.800293 81.515625,19.9233398 81.0234375,19.9233398 Z M93.5332031,21 L93.5332031,20.1796875 C92.8974609,20.1455078 92.5488281,20.121582 92.4873047,20.1079102 C92.3369141,20.0805664 92.230957,20.0429688 92.1694336,19.9951172 C92.121582,19.9609375 92.0874023,19.9199219 92.0668945,19.8720703 C92.0327148,19.8037109 92.0087891,19.6413574 91.9951172,19.3850098 C91.9814453,19.1286621 91.9609375,18.3886719 91.9335938,17.1650391 C91.9199219,16.6728516 91.9130859,15.9311523 91.9130859,14.9399414 L91.9130859,12.3149414 C91.9199219,10.6264648 91.9404297,9.20117188 91.9746094,8.0390625 L91.9746094,8.0390625 L92.0566406,5.96777344 L91.8413086,5.84472656 C90.9868164,6.11132812 90.3066406,6.29760742 89.8007812,6.40356445 C89.2949219,6.50952148 88.6181641,6.60693359 87.7705078,6.69580078 L87.7705078,6.69580078 L87.7705078,7.45458984 C88.2832031,7.47509766 88.5908203,7.4921875 88.6933594,7.50585938 C88.8710938,7.53320312 89.0009766,7.57421875 89.0830078,7.62890625 C89.1308594,7.65625 89.168457,7.69384766 89.1958008,7.74169922 C89.2368164,7.83056641 89.2709961,8.11425781 89.2983398,8.59277344 C89.3461914,9.48144531 89.3701172,10.4624023 89.3701172,11.5356445 L89.3701172,11.5356445 L89.3701172,14.9194336 C89.3701172,15.7602539 89.3598633,16.7241211 89.3393555,17.8110352 C89.3188477,18.8979492 89.284668,19.5439453 89.2368164,19.7490234 C89.2163086,19.8583984 89.1804199,19.9387207 89.1291504,19.9899902 C89.0778809,20.0412598 89.0009766,20.0805664 88.8984375,20.1079102 C88.7617188,20.1420898 88.3686523,20.1694336 87.7192383,20.1899414 L87.7192383,20.1899414 L87.7192383,21 C88.8813477,20.9453125 89.9272461,20.9179688 90.8569336,20.9179688 C91.7866211,20.9179688 92.6787109,20.9453125 93.5332031,21 L93.5332031,21 Z M97.3476562,21.2666016 C97.6279297,21.2666016 97.921875,21.2324219 98.2294922,21.1640625 C99.4326172,20.2412109 100.157227,19.7011719 100.40332,19.5439453 L100.40332,19.5439453 L100.311035,20.887207 L100.40332,21 C100.943359,20.9658203 101.500488,20.9487305 102.074707,20.9487305 C102.683105,20.9487305 103.380371,20.9658203 104.166504,21 L104.166504,21 L104.166504,20.230957 C103.585449,20.1899414 103.240234,20.1420898 103.130859,20.0874023 C103.048828,20.0463867 102.994141,19.9643555 102.966797,19.8413086 C102.898438,19.581543 102.864258,18.8432617 102.864258,17.6264648 C102.864258,17.2368164 102.874512,16.734375 102.89502,16.1191406 C102.929199,15.1962891 102.946289,14.6254883 102.946289,14.4067383 C102.946289,13.894043 102.903564,13.4702148 102.818115,13.1352539 C102.732666,12.800293 102.575439,12.4858398 102.346436,12.1918945 C102.117432,11.8979492 101.761963,11.6433105 101.280029,11.4279785 C100.798096,11.2126465 100.18457,11.1049805 99.4394531,11.1049805 C98.9814453,11.1049805 98.6259766,11.1425781 98.3730469,11.2177734 C98.1884766,11.2724609 97.8671875,11.4262695 97.4091797,11.6791992 C96.9511719,11.9321289 96.4692383,12.2294922 95.9633789,12.5712891 L95.9633789,12.5712891 L95.9018555,13.894043 L96.5991211,14.0478516 L97.0297852,13.012207 C97.1870117,12.909668 97.3237305,12.8413086 97.4399414,12.8071289 C97.706543,12.7319336 97.9868164,12.6943359 98.2807617,12.6943359 C99.0053711,12.6943359 99.5454102,12.90625 99.9008789,13.3300781 C100.249512,13.7539062 100.416992,14.3725586 100.40332,15.1860352 C99.1181641,15.4047852 97.9355469,15.7055664 96.8554688,16.0883789 C96.4042969,16.2456055 96.0710449,16.407959 95.8557129,16.5754395 C95.6403809,16.7429199 95.4387207,17.0043945 95.2507324,17.3598633 C95.0627441,17.715332 94.96875,18.1699219 94.96875,18.7236328 C94.96875,19.5439453 95.1789551,20.1728516 95.5993652,20.6103516 C96.0197754,21.0478516 96.6025391,21.2666016 97.3476562,21.2666016 Z M98.7421875,19.4824219 C98.3798828,19.4824219 98.0876465,19.362793 97.8654785,19.1235352 C97.6433105,18.8842773 97.5322266,18.5458984 97.5322266,18.1083984 C97.5322266,17.71875 97.6245117,17.395752 97.809082,17.1394043 C97.9936523,16.8830566 98.3269043,16.6677246 98.8088379,16.4934082 C99.2907715,16.3190918 99.8222656,16.1704102 100.40332,16.0473633 L100.40332,16.0473633 L100.40332,18.5390625 C100.225586,18.8125 99.9812012,19.0380859 99.670166,19.2158203 C99.3591309,19.3935547 99.0498047,19.4824219 98.7421875,19.4824219 Z M117.04541,21 L117.04541,20.2104492 C116.778809,20.1831055 116.587402,20.1660156 116.471191,20.1591797 C116.156738,20.1386719 115.953369,20.0891113 115.861084,20.010498 C115.768799,19.9318848 115.707275,19.7558594 115.676514,19.4824219 C115.645752,19.2089844 115.626953,18.4946289 115.620117,17.3393555 L115.620117,17.3393555 L115.609863,16.2832031 C115.609863,16.1669922 115.613281,16.0678711 115.620117,15.9858398 C115.633789,15.7739258 115.640625,15.2783203 115.640625,14.4990234 C115.640625,13.8085938 115.589355,13.3010254 115.486816,12.9763184 C115.384277,12.6516113 115.206543,12.3405762 114.953613,12.0432129 C114.700684,11.7458496 114.391357,11.5151367 114.025635,11.3510742 C113.659912,11.1870117 113.111328,11.1049805 112.379883,11.1049805 C112.106445,11.1049805 111.892822,11.1203613 111.739014,11.151123 C111.585205,11.1818848 111.395508,11.2416992 111.169922,11.3305664 L111.169922,11.3305664 L109.303711,12.8276367 L109.303711,11.1767578 L109.026855,11.0537109 C108.534668,11.2792969 108.09375,11.4433594 107.704102,11.5458984 C107.314453,11.6484375 106.497559,11.8056641 105.253418,12.0175781 L105.253418,12.0175781 L105.253418,12.8071289 C105.895996,12.8276367 106.282227,12.8618164 106.412109,12.909668 C106.494141,12.9370117 106.553955,12.9797363 106.591553,13.0378418 C106.62915,13.0959473 106.658203,13.34375 106.678711,13.78125 C106.719727,14.6494141 106.740234,15.3876953 106.740234,15.9960938 L106.740234,15.9960938 L106.740025,17.5166016 C106.739188,17.8564453 106.73584,18.1083984 106.72998,18.2724609 L106.72998,18.2724609 L106.688965,19.1850586 C106.682129,19.5473633 106.644531,19.793457 106.576172,19.9233398 C106.52832,20.0053711 106.456543,20.0634766 106.36084,20.0976562 C106.155762,20.1728516 105.786621,20.2104492 105.253418,20.2104492 L105.253418,20.2104492 L105.253418,21 C105.943848,20.9726562 106.914551,20.9589844 108.165527,20.9589844 C109.245605,20.9589844 110.158203,20.9726562 110.90332,21 L110.90332,21 L110.90332,20.2104492 C110.411133,20.1694336 110.124023,20.1420898 110.041992,20.128418 C109.802734,20.0805664 109.64209,20.0292969 109.560059,19.9746094 C109.505371,19.9404297 109.460938,19.8857422 109.426758,19.8105469 C109.378906,19.7080078 109.351562,19.4960938 109.344727,19.1748047 C109.317383,18.4501953 109.303711,17.8383789 109.303711,17.3393555 L109.303711,17.3393555 L109.303711,15.6166992 C109.296875,14.659668 109.317383,14.112793 109.365234,13.9760742 C109.447266,13.7436523 109.645508,13.5129395 109.959961,13.2839355 C110.274414,13.0549316 110.670898,12.9404297 111.149414,12.9404297 C111.62793,12.9404297 112.010742,13.0549316 112.297852,13.2839355 C112.584961,13.5129395 112.774658,13.8154297 112.866943,14.1914062 C112.959229,14.5673828 113.005371,15.3535156 113.005371,16.5498047 L113.005371,16.5498047 L113.005371,17.3598633 L112.954102,19.0415039 C112.878906,20.0805664 112.834473,20.671875 112.820801,20.8154297 L112.820801,20.8154297 L113.005371,21 C113.504395,20.9521484 114.092285,20.9282227 114.769043,20.9282227 C115.356934,20.9282227 116.115723,20.9521484 117.04541,21 L117.04541,21 Z M120.675293,21.2666016 C120.955566,21.2666016 121.249512,21.2324219 121.557129,21.1640625 C122.760254,20.2412109 123.484863,19.7011719 123.730957,19.5439453 L123.730957,19.5439453 L123.638672,20.887207 L123.730957,21 C124.270996,20.9658203 124.828125,20.9487305 125.402344,20.9487305 C126.010742,20.9487305 126.708008,20.9658203 127.494141,21 L127.494141,21 L127.494141,20.230957 C126.913086,20.1899414 126.567871,20.1420898 126.458496,20.0874023 C126.376465,20.0463867 126.321777,19.9643555 126.294434,19.8413086 C126.226074,19.581543 126.191895,18.8432617 126.191895,17.6264648 C126.191895,17.2368164 126.202148,16.734375 126.222656,16.1191406 C126.256836,15.1962891 126.273926,14.6254883 126.273926,14.4067383 C126.273926,13.894043 126.231201,13.4702148 126.145752,13.1352539 C126.060303,12.800293 125.903076,12.4858398 125.674072,12.1918945 C125.445068,11.8979492 125.0896,11.6433105 124.607666,11.4279785 C124.125732,11.2126465 123.512207,11.1049805 122.76709,11.1049805 C122.309082,11.1049805 121.953613,11.1425781 121.700684,11.2177734 C121.516113,11.2724609 121.194824,11.4262695 120.736816,11.6791992 C120.278809,11.9321289 119.796875,12.2294922 119.291016,12.5712891 L119.291016,12.5712891 L119.229492,13.894043 L119.926758,14.0478516 L120.357422,13.012207 C120.514648,12.909668 120.651367,12.8413086 120.767578,12.8071289 C121.03418,12.7319336 121.314453,12.6943359 121.608398,12.6943359 C122.333008,12.6943359 122.873047,12.90625 123.228516,13.3300781 C123.577148,13.7539062 123.744629,14.3725586 123.730957,15.1860352 C122.445801,15.4047852 121.263184,15.7055664 120.183105,16.0883789 C119.731934,16.2456055 119.398682,16.407959 119.18335,16.5754395 C118.968018,16.7429199 118.766357,17.0043945 118.578369,17.3598633 C118.390381,17.715332 118.296387,18.1699219 118.296387,18.7236328 C118.296387,19.5439453 118.506592,20.1728516 118.927002,20.6103516 C119.347412,21.0478516 119.930176,21.2666016 120.675293,21.2666016 Z M122.069824,19.4824219 C121.70752,19.4824219 121.415283,19.362793 121.193115,19.1235352 C120.970947,18.8842773 120.859863,18.5458984 120.859863,18.1083984 C120.859863,17.71875 120.952148,17.395752 121.136719,17.1394043 C121.321289,16.8830566 121.654541,16.6677246 122.136475,16.4934082 C122.618408,16.3190918 123.149902,16.1704102 123.730957,16.0473633 L123.730957,16.0473633 L123.730957,18.5390625 C123.553223,18.8125 123.308838,19.0380859 122.997803,19.2158203 C122.686768,19.3935547 122.377441,19.4824219 122.069824,19.4824219 Z M132.313477,21.215332 C132.532227,21.215332 132.74585,21.1965332 132.954346,21.1589355 C133.162842,21.1213379 133.400391,21.0444336 133.666992,20.9282227 C133.892578,20.6958008 134.155762,20.4257812 134.456543,20.1181641 L134.456543,20.1181641 L134.825684,19.7490234 L134.661621,19.3286133 C134.442871,19.3764648 134.263428,19.4089355 134.123291,19.4260254 C133.983154,19.4431152 133.796875,19.4482422 133.564453,19.4414062 C133.181641,19.4414062 132.889404,19.3508301 132.687744,19.1696777 C132.486084,18.9885254 132.371582,18.7373047 132.344238,18.4160156 C132.32373,18.2246094 132.313477,17.6025391 132.313477,16.5498047 L132.313477,13.125 L133.308105,13.125 L134.312988,13.1455078 C134.381348,13.1455078 134.456543,13.1386719 134.538574,13.125 L134.538574,13.125 L134.712891,11.7407227 C134.248047,11.809082 133.561035,11.8432617 132.651855,11.8432617 L132.651855,11.8432617 L132.313477,11.8432617 L132.405762,10.0488281 L132.477539,8.86962891 L132.580078,7.80322266 L132.313477,7.59814453 C131.598633,7.93212891 131.177595,8.12799944 131.050363,8.18575614 L131.01123,8.203125 C130.812988,8.27832031 130.382324,8.42529297 129.719238,8.64404297 C129.773926,9.36865234 129.80127,9.97705078 129.80127,10.4692383 L129.80127,10.4692383 L129.80127,11.8432617 C129.664551,11.9526367 129.520996,12.0551758 129.370605,12.1508789 L129.370605,12.1508789 L128.447754,12.7353516 L128.447754,13.1967773 C128.789551,13.1762695 129.148438,13.1660156 129.524414,13.1660156 L129.524414,13.1660156 L129.80127,13.1660156 L129.80127,15.6987305 L129.760254,19.0825195 C129.760254,19.690918 129.987549,20.1984863 130.442139,20.6052246 C130.896729,21.0119629 131.520508,21.215332 132.313477,21.215332 Z M138.486328,9.30029297 C138.923828,9.30029297 139.294678,9.14648438 139.598877,8.83886719 C139.903076,8.53125 140.055176,8.15869141 140.055176,7.72119141 C140.055176,7.29052734 139.903076,6.92138672 139.598877,6.61376953 C139.294678,6.30615234 138.923828,6.15234375 138.486328,6.15234375 C138.048828,6.15234375 137.677979,6.30615234 137.373779,6.61376953 C137.06958,6.92138672 136.91748,7.29052734 136.91748,7.72119141 C136.91748,8.15869141 137.071289,8.53125 137.378906,8.83886719 C137.686523,9.14648438 138.055664,9.30029297 138.486328,9.30029297 Z M141.449707,21 L141.449707,20.2001953 C140.73877,20.1728516 140.291016,20.1147461 140.106445,20.0258789 C140.024414,19.9848633 139.969727,19.902832 139.942383,19.7797852 C139.887695,19.5610352 139.860352,18.8569336 139.860352,17.6674805 L139.860352,14.1811523 C139.860352,13.2446289 139.901367,12.2431641 139.983398,11.1767578 L139.983398,11.1767578 L139.737305,11.043457 C139.115234,11.2963867 138.541016,11.484375 138.014648,11.6074219 C137.488281,11.7304688 136.708984,11.8466797 135.676758,11.9560547 L135.676758,11.9560547 L135.676758,12.7353516 C136.469727,12.7421875 136.93457,12.7900391 137.071289,12.8789062 C137.132812,12.9199219 137.177246,13.0087891 137.20459,13.1455078 C137.26052,13.4127308 137.291028,14.4426411 137.296112,16.2352386 L137.296474,17.0812054 C137.292469,18.473093 137.258423,19.3452759 137.194336,19.6977539 C137.166992,19.8754883 137.098633,19.9968262 136.989258,20.0617676 C136.879883,20.126709 136.442383,20.1865234 135.676758,20.2412109 L135.676758,20.2412109 L135.676758,21 C136.428711,20.9726562 137.296875,20.9589844 138.28125,20.9589844 C139.422852,20.9589844 140.479004,20.9726562 141.449707,21 L141.449707,21 Z M147.673828,21.3588867 C148.624023,21.3588867 149.478516,21.1811523 150.237305,20.8256836 C150.681641,20.6137695 151.105469,20.3010254 151.508789,19.8874512 C151.912109,19.473877 152.233398,18.9287109 152.472656,18.2519531 C152.711914,17.5751953 152.831543,16.7753906 152.831543,15.8525391 C152.831543,14.2529297 152.419678,13.0395508 151.595947,12.2124023 C150.772217,11.3852539 149.570801,10.9716797 147.991699,10.9716797 C146.938965,10.9716797 146.016113,11.1647949 145.223145,11.5510254 C144.430176,11.9372559 143.835449,12.5114746 143.438965,13.2736816 C143.04248,14.0358887 142.844238,14.9980469 142.844238,16.1601562 C142.844238,17.8691406 143.262939,19.1628418 144.100342,20.0412598 C144.937744,20.9196777 146.128906,21.3588867 147.673828,21.3588867 Z M148.001953,20.3232422 C147.345703,20.3232422 146.839844,20.0668945 146.484375,19.5541992 C145.951172,18.7817383 145.68457,17.4863281 145.68457,15.6679688 C145.68457,14.6904297 145.77002,13.9470215 145.940918,13.4377441 C146.111816,12.9284668 146.351074,12.5661621 146.658691,12.3508301 C146.966309,12.135498 147.325195,12.027832 147.735352,12.027832 C148.213867,12.027832 148.622314,12.1748047 148.960693,12.46875 C149.299072,12.7626953 149.55542,13.2839355 149.729736,14.0324707 C149.904053,14.7810059 149.991211,15.6782227 149.991211,16.7241211 C149.991211,18.2143555 149.772461,19.2192383 149.334961,19.7387695 C149.006836,20.128418 148.5625,20.3232422 148.001953,20.3232422 Z M166.038574,21 L166.038574,20.2104492 C165.771973,20.1831055 165.580566,20.1660156 165.464355,20.1591797 C165.149902,20.1386719 164.946533,20.0891113 164.854248,20.010498 C164.761963,19.9318848 164.700439,19.7558594 164.669678,19.4824219 C164.638916,19.2089844 164.620117,18.4946289 164.613281,17.3393555 L164.613281,17.3393555 L164.603027,16.2832031 C164.603027,16.1669922 164.606445,16.0678711 164.613281,15.9858398 C164.626953,15.7739258 164.633789,15.2783203 164.633789,14.4990234 C164.633789,13.8085938 164.58252,13.3010254 164.47998,12.9763184 C164.377441,12.6516113 164.199707,12.3405762 163.946777,12.0432129 C163.693848,11.7458496 163.384521,11.5151367 163.018799,11.3510742 C162.653076,11.1870117 162.104492,11.1049805 161.373047,11.1049805 C161.099609,11.1049805 160.885986,11.1203613 160.732178,11.151123 C160.578369,11.1818848 160.388672,11.2416992 160.163086,11.3305664 L160.163086,11.3305664 L158.296875,12.8276367 L158.296875,11.1767578 L158.02002,11.0537109 C157.527832,11.2792969 157.086914,11.4433594 156.697266,11.5458984 C156.307617,11.6484375 155.490723,11.8056641 154.246582,12.0175781 L154.246582,12.0175781 L154.246582,12.8071289 C154.88916,12.8276367 155.275391,12.8618164 155.405273,12.909668 C155.487305,12.9370117 155.547119,12.9797363 155.584717,13.0378418 C155.622314,13.0959473 155.651367,13.34375 155.671875,13.78125 C155.712891,14.6494141 155.733398,15.3876953 155.733398,15.9960938 L155.733398,15.9960938 L155.733189,17.5166016 C155.732352,17.8564453 155.729004,18.1083984 155.723145,18.2724609 L155.723145,18.2724609 L155.682129,19.1850586 C155.675293,19.5473633 155.637695,19.793457 155.569336,19.9233398 C155.521484,20.0053711 155.449707,20.0634766 155.354004,20.0976562 C155.148926,20.1728516 154.779785,20.2104492 154.246582,20.2104492 L154.246582,20.2104492 L154.246582,21 C154.937012,20.9726562 155.907715,20.9589844 157.158691,20.9589844 C158.23877,20.9589844 159.151367,20.9726562 159.896484,21 L159.896484,21 L159.896484,20.2104492 C159.404297,20.1694336 159.117188,20.1420898 159.035156,20.128418 C158.795898,20.0805664 158.635254,20.0292969 158.553223,19.9746094 C158.498535,19.9404297 158.454102,19.8857422 158.419922,19.8105469 C158.37207,19.7080078 158.344727,19.4960938 158.337891,19.1748047 C158.310547,18.4501953 158.296875,17.8383789 158.296875,17.3393555 L158.296875,17.3393555 L158.296875,15.6166992 C158.290039,14.659668 158.310547,14.112793 158.358398,13.9760742 C158.44043,13.7436523 158.638672,13.5129395 158.953125,13.2839355 C159.267578,13.0549316 159.664062,12.9404297 160.142578,12.9404297 C160.621094,12.9404297 161.003906,13.0549316 161.291016,13.2839355 C161.578125,13.5129395 161.767822,13.8154297 161.860107,14.1914062 C161.952393,14.5673828 161.998535,15.3535156 161.998535,16.5498047 L161.998535,16.5498047 L161.998535,17.3598633 L161.947266,19.0415039 C161.87207,20.0805664 161.827637,20.671875 161.813965,20.8154297 L161.813965,20.8154297 L161.998535,21 C162.497559,20.9521484 163.085449,20.9282227 163.762207,20.9282227 C164.350098,20.9282227 165.108887,20.9521484 166.038574,21 L166.038574,21 Z M170.560547,21.3588867 C171.989258,21.3588867 173.098389,21.0102539 173.887939,20.3129883 C174.67749,19.6157227 175.072266,18.7578125 175.072266,17.7392578 C175.072266,17.3496094 175.012451,16.9924316 174.892822,16.6677246 C174.773193,16.3430176 174.600586,16.0712891 174.375,15.8525391 C174.149414,15.6337891 173.848633,15.4526367 173.472656,15.309082 C173.212891,15.2133789 172.705322,15.095459 171.949951,14.9553223 L171.706959,14.9095595 C171.082441,14.7900571 170.645616,14.6908095 170.396484,14.6118164 C170.116211,14.5229492 169.904297,14.3896484 169.760742,14.2119141 C169.617188,14.0341797 169.54541,13.7607422 169.54541,13.3916016 C169.54541,13.0292969 169.704346,12.7182617 170.022217,12.4584961 C170.340088,12.1987305 170.789551,12.0688477 171.370605,12.0688477 C171.787598,12.0688477 172.151611,12.137207 172.462646,12.2739258 C172.773682,12.4106445 173.035156,12.6157227 173.24707,12.8891602 C173.308594,13.1762695 173.349609,13.4736328 173.370117,13.78125 C173.383789,13.9589844 173.394043,14.0854492 173.400879,14.1606445 L173.400879,14.1606445 L174.19043,14.1708984 C174.231445,13.2548828 174.262207,12.6738281 174.282715,12.4277344 C174.303223,12.1816406 174.333984,11.9389648 174.375,11.699707 L174.375,11.699707 L174.344238,11.597168 C173.968262,11.4057617 173.547852,11.262207 173.083008,11.1665039 C172.618164,11.0708008 172.108887,11.0229492 171.555176,11.0229492 C170.222168,11.0229492 169.200195,11.3356934 168.489258,11.9611816 C167.77832,12.5866699 167.422852,13.3710938 167.422852,14.3144531 C167.422852,14.8408203 167.532227,15.3005371 167.750977,15.6936035 C167.969727,16.0866699 168.273926,16.3823242 168.663574,16.5805664 C169.053223,16.7788086 169.625732,16.9599609 170.381104,17.1240234 C171.136475,17.2880859 171.647461,17.4179688 171.914062,17.5136719 C172.255859,17.6708984 172.483154,17.8435059 172.595947,18.0314941 C172.70874,18.2194824 172.765137,18.4570312 172.765137,18.7441406 C172.765137,19.1816406 172.594238,19.5541992 172.252441,19.8618164 C171.910645,20.1694336 171.418457,20.3232422 170.775879,20.3232422 C170.297363,20.3232422 169.873535,20.232666 169.504395,20.0515137 C169.135254,19.8703613 168.796875,19.5917969 168.489258,19.2158203 C168.455078,19.0175781 168.420898,18.5356445 168.386719,17.7700195 L168.386719,17.7700195 L167.566406,17.7700195 L167.504883,19.4926758 C167.491211,19.7114258 167.457031,20.0839844 167.402344,20.6103516 L167.402344,20.6103516 L167.515137,20.7641602 C168.164551,20.9897461 168.714844,21.1452637 169.166016,21.2307129 C169.617188,21.3161621 170.082031,21.3588867 170.560547,21.3588867 Z M188.063965,21 L188.063965,20.2104492 C187.175293,20.1420898 186.710449,20.1044922 186.669434,20.0976562 C186.505371,20.0703125 186.387451,20.0258789 186.315674,19.9643555 C186.243896,19.902832 186.190918,19.8242188 186.156738,19.7285156 C186.115723,19.5917969 186.08667,19.1918945 186.06958,18.5288086 C186.05249,17.8657227 186.043945,17.168457 186.043945,16.4370117 L186.043945,16.4370117 L186.043945,13.1660156 C186.638672,13.1455078 186.997559,13.1352539 187.120605,13.1352539 L187.146136,13.1356724 C187.2131,13.1373465 187.375488,13.144043 187.633301,13.1557617 L187.633301,13.1557617 L188.668945,13.1762695 L188.833008,12.2636719 C188.853516,12.140625 188.880859,12.0209961 188.915039,11.9047852 L188.915039,11.9047852 L188.781738,11.8022461 C188.351074,11.8364258 187.841797,11.8603516 187.253906,11.8740234 L187.253906,11.8740234 L186.043945,11.8842773 L186.043945,10.4589844 C186.043945,9.36523438 186.084961,8.68164062 186.166992,8.40820312 C186.22168,8.22363281 186.331055,8.07666016 186.495117,7.96728516 C186.727539,7.81689453 187.041992,7.74169922 187.438477,7.74169922 C187.711914,7.74169922 187.9375,7.77758789 188.115234,7.84936523 C188.292969,7.92114258 188.484375,8.05273438 188.689453,8.24414062 L188.689453,8.24414062 L189.099609,8.05957031 C189.085938,7.43066406 189.133789,6.74707031 189.243164,6.00878906 C188.860352,5.88574219 188.501465,5.82421875 188.166504,5.82421875 C187.838379,5.82421875 187.544434,5.8737793 187.284668,5.97290039 C187.024902,6.07202148 186.795898,6.20703125 186.597656,6.37792969 L186.597656,6.37792969 L185.356934,7.48535156 C184.584473,8.15527344 184.085449,8.640625 183.859863,8.94140625 C183.723145,9.12597656 183.624023,9.31738281 183.5625,9.515625 C183.500977,9.71386719 183.454834,10.0505371 183.424072,10.5256348 C183.393311,11.0007324 183.37793,11.3989258 183.37793,11.7202148 C183.37793,11.8227539 183.333496,11.9047852 183.244629,11.9663086 C183.210449,11.9936523 182.73877,12.2431641 181.82959,12.7148438 L181.82959,12.7148438 L181.82959,13.2172852 L183.224121,13.1557617 L183.51123,13.1660156 L183.51123,16.2421875 C183.497559,18.1152344 183.466797,19.2294922 183.418945,19.5849609 C183.398438,19.7832031 183.330078,19.9199219 183.213867,19.9951172 C183.063477,20.0908203 182.584961,20.1660156 181.77832,20.2207031 L181.77832,20.2207031 L181.77832,21 C183.207031,20.9658203 184.136719,20.9487305 184.567383,20.9487305 L184.567383,20.9487305 L188.063965,21 Z M194.923828,21.3588867 C195.874023,21.3588867 196.728516,21.1811523 197.487305,20.8256836 C197.931641,20.6137695 198.355469,20.3010254 198.758789,19.8874512 C199.162109,19.473877 199.483398,18.9287109 199.722656,18.2519531 C199.961914,17.5751953 200.081543,16.7753906 200.081543,15.8525391 C200.081543,14.2529297 199.669678,13.0395508 198.845947,12.2124023 C198.022217,11.3852539 196.820801,10.9716797 195.241699,10.9716797 C194.188965,10.9716797 193.266113,11.1647949 192.473145,11.5510254 C191.680176,11.9372559 191.085449,12.5114746 190.688965,13.2736816 C190.29248,14.0358887 190.094238,14.9980469 190.094238,16.1601562 C190.094238,17.8691406 190.512939,19.1628418 191.350342,20.0412598 C192.187744,20.9196777 193.378906,21.3588867 194.923828,21.3588867 Z M195.251953,20.3232422 C194.595703,20.3232422 194.089844,20.0668945 193.734375,19.5541992 C193.201172,18.7817383 192.93457,17.4863281 192.93457,15.6679688 C192.93457,14.6904297 193.02002,13.9470215 193.190918,13.4377441 C193.361816,12.9284668 193.601074,12.5661621 193.908691,12.3508301 C194.216309,12.135498 194.575195,12.027832 194.985352,12.027832 C195.463867,12.027832 195.872314,12.1748047 196.210693,12.46875 C196.549072,12.7626953 196.80542,13.2839355 196.979736,14.0324707 C197.154053,14.7810059 197.241211,15.6782227 197.241211,16.7241211 C197.241211,18.2143555 197.022461,19.2192383 196.584961,19.7387695 C196.256836,20.128418 195.8125,20.3232422 195.251953,20.3232422 Z M207.413086,21 L207.413086,20.2104492 L206.572266,20.128418 C206.209961,20.1010742 205.974121,20.0532227 205.864746,19.9848633 C205.755371,19.9165039 205.685303,19.8225098 205.654541,19.7028809 C205.623779,19.583252 205.60498,19.2602539 205.598145,18.7338867 L205.598145,18.7338867 L205.577637,17.3393555 L205.577846,16.1051723 C205.57966,15.2287423 205.593262,14.7207031 205.618652,14.5810547 C205.67334,14.3212891 205.845947,14.0666504 206.136475,13.8171387 C206.427002,13.567627 206.773926,13.4428711 207.177246,13.4428711 C207.478027,13.4428711 207.754883,13.5146484 208.007812,13.6582031 C208.165039,13.7470703 208.329102,13.9042969 208.5,14.1298828 L208.5,14.1298828 L208.930664,13.996582 C208.944336,13.8803711 208.961426,13.4257812 208.981934,12.6328125 L208.981934,12.6328125 L209.043457,11.1767578 C208.838379,11.0947266 208.609375,11.0537109 208.356445,11.0537109 C207.953125,11.0537109 207.628418,11.1357422 207.382324,11.2998047 C207.20459,11.4160156 206.937988,11.6860352 206.58252,12.1098633 C206.343262,12.4106445 206.001465,12.7900391 205.557129,13.2480469 L205.557129,13.2480469 L205.577637,11.1767578 L205.300781,11.0537109 C204.808594,11.2792969 204.367676,11.4433594 203.978027,11.5458984 C203.588379,11.6484375 202.771484,11.8056641 201.527344,12.0175781 L201.527344,12.0175781 L201.527344,12.8071289 C202.169922,12.8276367 202.556152,12.8618164 202.686035,12.909668 C202.768066,12.9370117 202.827881,12.9797363 202.865479,13.0378418 C202.903076,13.0959473 202.932129,13.34375 202.952637,13.78125 C202.993652,14.6494141 203.01416,15.3876953 203.01416,15.9960938 L203.01416,15.9960938 L203.01416,17.3393555 C203.01416,17.7700195 203.010742,18.0810547 203.003906,18.2724609 L203.003906,18.2724609 L202.962891,19.1850586 C202.956055,19.5473633 202.918457,19.793457 202.850098,19.9233398 C202.802246,20.0053711 202.730469,20.0634766 202.634766,20.0976562 C202.429688,20.1728516 202.060547,20.2104492 201.527344,20.2104492 L201.527344,20.2104492 L201.527344,21 C202.668945,20.9658203 203.769531,20.9487305 204.829102,20.9487305 C205.779297,20.9487305 206.640625,20.9658203 207.413086,21 L207.413086,21 Z M232.576172,21 L232.576172,20.2104492 C232.302734,20.1831055 232.111328,20.1660156 232.001953,20.1591797 C231.6875,20.1386719 231.484131,20.0891113 231.391846,20.010498 C231.299561,19.9318848 231.234619,19.7404785 231.197021,19.4362793 C231.159424,19.1320801 231.140625,18.4331055 231.140625,17.3393555 L231.140625,16.2729492 C231.140625,16.1567383 231.144043,16.0576172 231.150879,15.9755859 C231.164551,15.7294922 231.171387,15.2304688 231.171387,14.4785156 C231.171387,13.7949219 231.120117,13.2890625 231.017578,12.9609375 C230.915039,12.6328125 230.740723,12.3251953 230.494629,12.0380859 C230.248535,11.7509766 229.939209,11.5236816 229.56665,11.3562012 C229.194092,11.1887207 228.669434,11.1049805 227.992676,11.1049805 C227.73291,11.1049805 227.526123,11.1203613 227.372314,11.151123 C227.218506,11.1818848 227.032227,11.2416992 226.813477,11.3305664 L226.813477,11.3305664 L224.947266,12.8276367 C224.673828,12.2055664 224.326904,11.7629395 223.906494,11.4997559 C223.486084,11.2365723 222.865723,11.1049805 222.04541,11.1049805 C221.785645,11.1049805 221.578857,11.1203613 221.425049,11.151123 C221.27124,11.1818848 221.084961,11.2416992 220.866211,11.3305664 L220.866211,11.3305664 L219,12.8276367 L219,11.1767578 L218.723145,11.0537109 C218.230957,11.2792969 217.790039,11.4433594 217.400391,11.5458984 C217.010742,11.6484375 216.193848,11.8056641 214.949707,12.0175781 L214.949707,12.0175781 L214.949707,12.8071289 C215.592285,12.8276367 215.978516,12.8618164 216.108398,12.909668 C216.19043,12.9370117 216.250244,12.9797363 216.287842,13.0378418 C216.325439,13.0959473 216.354492,13.34375 216.375,13.78125 C216.416016,14.6494141 216.436523,15.3876953 216.436523,15.9960938 L216.436523,15.9960938 L216.436314,17.5166016 C216.435477,17.8564453 216.432129,18.1083984 216.42627,18.2724609 L216.42627,18.2724609 L216.385254,19.1850586 C216.378418,19.5473633 216.34082,19.793457 216.272461,19.9233398 C216.224609,20.0053711 216.152832,20.0634766 216.057129,20.0976562 C215.852051,20.1728516 215.48291,20.2104492 214.949707,20.2104492 L214.949707,20.2104492 L214.949707,21 C215.633301,20.9726562 216.55957,20.9589844 217.728516,20.9589844 C218.767578,20.9589844 219.65625,20.9726562 220.394531,21 L220.394531,21 L220.394531,20.2104492 C219.854492,20.1694336 219.536621,20.1352539 219.440918,20.1079102 C219.311035,20.0737305 219.21875,20.0224609 219.164062,19.9541016 C219.109375,19.8857422 219.075195,19.7216797 219.061523,19.4619141 C219.020508,18.9697266 219,18.262207 219,17.3393555 L219,15.5449219 C218.993164,14.6015625 219.010254,14.0649414 219.05127,13.9350586 C219.133301,13.7026367 219.331543,13.4702148 219.645996,13.237793 C219.960449,13.0053711 220.34668,12.8891602 220.804688,12.8891602 C221.22168,12.8891602 221.561768,12.9865723 221.824951,13.1813965 C222.088135,13.3762207 222.262451,13.6188965 222.3479,13.9094238 C222.43335,14.1999512 222.476074,14.6938477 222.476074,15.3911133 L222.476074,15.3911133 L222.476074,16.847168 L222.455566,18.6621094 C222.455566,19.2226562 222.431641,19.579834 222.383789,19.7336426 C222.335938,19.8874512 222.272705,19.9899902 222.194092,20.0412598 C222.115479,20.0925293 221.925781,20.128418 221.625,20.1489258 C221.419922,20.1694336 221.252441,20.1899414 221.122559,20.2104492 L221.122559,20.2104492 L221.122559,21 C221.730957,20.9726562 222.670898,20.9589844 223.942383,20.9589844 C225.083984,20.9589844 225.958984,20.9726562 226.567383,21 L226.567383,21 L226.567383,20.2104492 C226.396484,20.1899414 226.116211,20.1557617 225.726562,20.1079102 C225.52832,20.0805664 225.398438,20.0498047 225.336914,20.015625 C225.261719,19.9677734 225.203613,19.8959961 225.162598,19.800293 C225.121582,19.7045898 225.097656,19.5302734 225.09082,19.2773438 L225.09082,19.2773438 L225.070312,18.4467773 L225.049805,17.4213867 L225.049084,14.7434349 C225.051701,14.3049202 225.084412,14.0064087 225.147217,13.8479004 C225.218994,13.666748 225.408691,13.4650879 225.716309,13.2429199 C226.023926,13.020752 226.396484,12.909668 226.833984,12.909668 C227.223633,12.909668 227.546631,13.0002441 227.802979,13.1813965 C228.059326,13.3625488 228.242188,13.6120605 228.351562,13.9299316 C228.460938,14.2478027 228.515625,15.0151367 228.515625,16.2319336 L228.515625,16.2319336 L228.515625,17.0112305 C228.515625,17.5512695 228.501953,18.1972656 228.474609,18.9492188 L228.474609,18.9492188 L228.351562,20.8051758 L228.495117,21 C228.980469,20.9453125 229.568359,20.9179688 230.258789,20.9179688 C230.867188,20.9179688 231.639648,20.9453125 232.576172,21 L232.576172,21 Z M238.697754,21.3588867 C239.647949,21.3588867 240.502441,21.1811523 241.26123,20.8256836 C241.705566,20.6137695 242.129395,20.3010254 242.532715,19.8874512 C242.936035,19.473877 243.257324,18.9287109 243.496582,18.2519531 C243.73584,17.5751953 243.855469,16.7753906 243.855469,15.8525391 C243.855469,14.2529297 243.443604,13.0395508 242.619873,12.2124023 C241.796143,11.3852539 240.594727,10.9716797 239.015625,10.9716797 C237.962891,10.9716797 237.040039,11.1647949 236.24707,11.5510254 C235.454102,11.9372559 234.859375,12.5114746 234.462891,13.2736816 C234.066406,14.0358887 233.868164,14.9980469 233.868164,16.1601562 C233.868164,17.8691406 234.286865,19.1628418 235.124268,20.0412598 C235.96167,20.9196777 237.152832,21.3588867 238.697754,21.3588867 Z M239.025879,20.3232422 C238.369629,20.3232422 237.86377,20.0668945 237.508301,19.5541992 C236.975098,18.7817383 236.708496,17.4863281 236.708496,15.6679688 C236.708496,14.6904297 236.793945,13.9470215 236.964844,13.4377441 C237.135742,12.9284668 237.375,12.5661621 237.682617,12.3508301 C237.990234,12.135498 238.349121,12.027832 238.759277,12.027832 C239.237793,12.027832 239.64624,12.1748047 239.984619,12.46875 C240.322998,12.7626953 240.579346,13.2839355 240.753662,14.0324707 C240.927979,14.7810059 241.015137,15.6782227 241.015137,16.7241211 C241.015137,18.2143555 240.796387,19.2192383 240.358887,19.7387695 C240.030762,20.128418 239.586426,20.3232422 239.025879,20.3232422 Z M257.0625,21 L257.0625,20.2104492 C256.795898,20.1831055 256.604492,20.1660156 256.488281,20.1591797 C256.173828,20.1386719 255.970459,20.0891113 255.878174,20.010498 C255.785889,19.9318848 255.724365,19.7558594 255.693604,19.4824219 C255.662842,19.2089844 255.644043,18.4946289 255.637207,17.3393555 L255.637207,17.3393555 L255.626953,16.2832031 C255.626953,16.1669922 255.630371,16.0678711 255.637207,15.9858398 C255.650879,15.7739258 255.657715,15.2783203 255.657715,14.4990234 C255.657715,13.8085938 255.606445,13.3010254 255.503906,12.9763184 C255.401367,12.6516113 255.223633,12.3405762 254.970703,12.0432129 C254.717773,11.7458496 254.408447,11.5151367 254.042725,11.3510742 C253.677002,11.1870117 253.128418,11.1049805 252.396973,11.1049805 C252.123535,11.1049805 251.909912,11.1203613 251.756104,11.151123 C251.602295,11.1818848 251.412598,11.2416992 251.187012,11.3305664 L251.187012,11.3305664 L249.320801,12.8276367 L249.320801,11.1767578 L249.043945,11.0537109 C248.551758,11.2792969 248.11084,11.4433594 247.721191,11.5458984 C247.331543,11.6484375 246.514648,11.8056641 245.270508,12.0175781 L245.270508,12.0175781 L245.270508,12.8071289 C245.913086,12.8276367 246.299316,12.8618164 246.429199,12.909668 C246.51123,12.9370117 246.571045,12.9797363 246.608643,13.0378418 C246.64624,13.0959473 246.675293,13.34375 246.695801,13.78125 C246.736816,14.6494141 246.757324,15.3876953 246.757324,15.9960938 L246.757324,15.9960938 L246.757115,17.5166016 C246.756278,17.8564453 246.75293,18.1083984 246.74707,18.2724609 L246.74707,18.2724609 L246.706055,19.1850586 C246.699219,19.5473633 246.661621,19.793457 246.593262,19.9233398 C246.54541,20.0053711 246.473633,20.0634766 246.37793,20.0976562 C246.172852,20.1728516 245.803711,20.2104492 245.270508,20.2104492 L245.270508,20.2104492 L245.270508,21 C245.960938,20.9726562 246.931641,20.9589844 248.182617,20.9589844 C249.262695,20.9589844 250.175293,20.9726562 250.92041,21 L250.92041,21 L250.92041,20.2104492 C250.428223,20.1694336 250.141113,20.1420898 250.059082,20.128418 C249.819824,20.0805664 249.65918,20.0292969 249.577148,19.9746094 C249.522461,19.9404297 249.478027,19.8857422 249.443848,19.8105469 C249.395996,19.7080078 249.368652,19.4960938 249.361816,19.1748047 C249.334473,18.4501953 249.320801,17.8383789 249.320801,17.3393555 L249.320801,17.3393555 L249.320801,15.6166992 C249.313965,14.659668 249.334473,14.112793 249.382324,13.9760742 C249.464355,13.7436523 249.662598,13.5129395 249.977051,13.2839355 C250.291504,13.0549316 250.687988,12.9404297 251.166504,12.9404297 C251.64502,12.9404297 252.027832,13.0549316 252.314941,13.2839355 C252.602051,13.5129395 252.791748,13.8154297 252.884033,14.1914062 C252.976318,14.5673828 253.022461,15.3535156 253.022461,16.5498047 L253.022461,16.5498047 L253.022461,17.3598633 L252.971191,19.0415039 C252.895996,20.0805664 252.851562,20.671875 252.837891,20.8154297 L252.837891,20.8154297 L253.022461,21 C253.521484,20.9521484 254.109375,20.9282227 254.786133,20.9282227 C255.374023,20.9282227 256.132812,20.9521484 257.0625,21 L257.0625,21 Z M263.20459,21.3588867 C264.154785,21.3588867 265.009277,21.1811523 265.768066,20.8256836 C266.212402,20.6137695 266.63623,20.3010254 267.039551,19.8874512 C267.442871,19.473877 267.76416,18.9287109 268.003418,18.2519531 C268.242676,17.5751953 268.362305,16.7753906 268.362305,15.8525391 C268.362305,14.2529297 267.950439,13.0395508 267.126709,12.2124023 C266.302979,11.3852539 265.101562,10.9716797 263.522461,10.9716797 C262.469727,10.9716797 261.546875,11.1647949 260.753906,11.5510254 C259.960938,11.9372559 259.366211,12.5114746 258.969727,13.2736816 C258.573242,14.0358887 258.375,14.9980469 258.375,16.1601562 C258.375,17.8691406 258.793701,19.1628418 259.631104,20.0412598 C260.468506,20.9196777 261.659668,21.3588867 263.20459,21.3588867 Z M263.532715,20.3232422 C262.876465,20.3232422 262.370605,20.0668945 262.015137,19.5541992 C261.481934,18.7817383 261.215332,17.4863281 261.215332,15.6679688 C261.215332,14.6904297 261.300781,13.9470215 261.47168,13.4377441 C261.642578,12.9284668 261.881836,12.5661621 262.189453,12.3508301 C262.49707,12.135498 262.855957,12.027832 263.266113,12.027832 C263.744629,12.027832 264.153076,12.1748047 264.491455,12.46875 C264.829834,12.7626953 265.086182,13.2839355 265.260498,14.0324707 C265.434814,14.7810059 265.521973,15.6782227 265.521973,16.7241211 C265.521973,18.2143555 265.303223,19.2192383 264.865723,19.7387695 C264.537598,20.128418 264.093262,20.3232422 263.532715,20.3232422 Z M273.509766,21.215332 C273.728516,21.215332 273.942139,21.1965332 274.150635,21.1589355 C274.359131,21.1213379 274.59668,21.0444336 274.863281,20.9282227 C275.088867,20.6958008 275.352051,20.4257812 275.652832,20.1181641 L275.652832,20.1181641 L276.021973,19.7490234 L275.85791,19.3286133 C275.63916,19.3764648 275.459717,19.4089355 275.31958,19.4260254 C275.179443,19.4431152 274.993164,19.4482422 274.760742,19.4414062 C274.37793,19.4414062 274.085693,19.3508301 273.884033,19.1696777 C273.682373,18.9885254 273.567871,18.7373047 273.540527,18.4160156 C273.52002,18.2246094 273.509766,17.6025391 273.509766,16.5498047 L273.509766,13.125 L274.504395,13.125 L275.509277,13.1455078 C275.577637,13.1455078 275.652832,13.1386719 275.734863,13.125 L275.734863,13.125 L275.90918,11.7407227 C275.444336,11.809082 274.757324,11.8432617 273.848145,11.8432617 L273.848145,11.8432617 L273.509766,11.8432617 L273.602051,10.0488281 L273.673828,8.86962891 L273.776367,7.80322266 L273.509766,7.59814453 C272.794922,7.93212891 272.373884,8.12799944 272.246652,8.18575614 L272.20752,8.203125 C272.009277,8.27832031 271.578613,8.42529297 270.915527,8.64404297 C270.970215,9.36865234 270.997559,9.97705078 270.997559,10.4692383 L270.997559,10.4692383 L270.997559,11.8432617 C270.86084,11.9526367 270.717285,12.0551758 270.566895,12.1508789 L270.566895,12.1508789 L269.644043,12.7353516 L269.644043,13.1967773 C269.98584,13.1762695 270.344727,13.1660156 270.720703,13.1660156 L270.720703,13.1660156 L270.997559,13.1660156 L270.997559,15.6987305 L270.956543,19.0825195 C270.956543,19.690918 271.183838,20.1984863 271.638428,20.6052246 C272.093018,21.0119629 272.716797,21.215332 273.509766,21.215332 Z M281.876953,21.3588867 C282.827148,21.3588867 283.681641,21.1811523 284.44043,20.8256836 C284.884766,20.6137695 285.308594,20.3010254 285.711914,19.8874512 C286.115234,19.473877 286.436523,18.9287109 286.675781,18.2519531 C286.915039,17.5751953 287.034668,16.7753906 287.034668,15.8525391 C287.034668,14.2529297 286.622803,13.0395508 285.799072,12.2124023 C284.975342,11.3852539 283.773926,10.9716797 282.194824,10.9716797 C281.14209,10.9716797 280.219238,11.1647949 279.42627,11.5510254 C278.633301,11.9372559 278.038574,12.5114746 277.64209,13.2736816 C277.245605,14.0358887 277.047363,14.9980469 277.047363,16.1601562 C277.047363,17.8691406 277.466064,19.1628418 278.303467,20.0412598 C279.140869,20.9196777 280.332031,21.3588867 281.876953,21.3588867 Z M282.205078,20.3232422 C281.548828,20.3232422 281.042969,20.0668945 280.6875,19.5541992 C280.154297,18.7817383 279.887695,17.4863281 279.887695,15.6679688 C279.887695,14.6904297 279.973145,13.9470215 280.144043,13.4377441 C280.314941,12.9284668 280.554199,12.5661621 280.861816,12.3508301 C281.169434,12.135498 281.52832,12.027832 281.938477,12.027832 C282.416992,12.027832 282.825439,12.1748047 283.163818,12.46875 C283.502197,12.7626953 283.758545,13.2839355 283.932861,14.0324707 C284.107178,14.7810059 284.194336,15.6782227 284.194336,16.7241211 C284.194336,18.2143555 283.975586,19.2192383 283.538086,19.7387695 C283.209961,20.128418 282.765625,20.3232422 282.205078,20.3232422 Z M300.241699,21 L300.241699,20.2104492 C299.975098,20.1831055 299.783691,20.1660156 299.66748,20.1591797 C299.353027,20.1386719 299.149658,20.0891113 299.057373,20.010498 C298.965088,19.9318848 298.903564,19.7558594 298.872803,19.4824219 C298.842041,19.2089844 298.823242,18.4946289 298.816406,17.3393555 L298.816406,17.3393555 L298.806152,16.2832031 C298.806152,16.1669922 298.80957,16.0678711 298.816406,15.9858398 C298.827344,15.8163086 298.833906,15.4652148 298.836094,14.9325586 L298.836914,14.4990234 C298.836914,13.8085938 298.785645,13.3010254 298.683105,12.9763184 C298.580566,12.6516113 298.402832,12.3405762 298.149902,12.0432129 C297.896973,11.7458496 297.587646,11.5151367 297.221924,11.3510742 C296.856201,11.1870117 296.307617,11.1049805 295.576172,11.1049805 C295.302734,11.1049805 295.089111,11.1203613 294.935303,11.151123 C294.781494,11.1818848 294.591797,11.2416992 294.366211,11.3305664 L294.366211,11.3305664 L292.5,12.8276367 L292.5,11.1767578 L292.223145,11.0537109 C291.730957,11.2792969 291.290039,11.4433594 290.900391,11.5458984 C290.510742,11.6484375 289.693848,11.8056641 288.449707,12.0175781 L288.449707,12.0175781 L288.449707,12.8071289 C289.092285,12.8276367 289.478516,12.8618164 289.608398,12.909668 C289.69043,12.9370117 289.750244,12.9797363 289.787842,13.0378418 C289.825439,13.0959473 289.854492,13.34375 289.875,13.78125 C289.916016,14.6494141 289.936523,15.3876953 289.936523,15.9960938 L289.936523,15.9960938 L289.936314,17.5166016 C289.935477,17.8564453 289.932129,18.1083984 289.92627,18.2724609 L289.92627,18.2724609 L289.885254,19.1850586 C289.878418,19.5473633 289.84082,19.793457 289.772461,19.9233398 C289.724609,20.0053711 289.652832,20.0634766 289.557129,20.0976562 C289.352051,20.1728516 288.98291,20.2104492 288.449707,20.2104492 L288.449707,20.2104492 L288.449707,21 C289.140137,20.9726562 290.11084,20.9589844 291.361816,20.9589844 C292.441895,20.9589844 293.354492,20.9726562 294.099609,21 L294.099609,21 L294.099609,20.2104492 C293.607422,20.1694336 293.320312,20.1420898 293.238281,20.128418 C292.999023,20.0805664 292.838379,20.0292969 292.756348,19.9746094 C292.70166,19.9404297 292.657227,19.8857422 292.623047,19.8105469 C292.575195,19.7080078 292.547852,19.4960938 292.541016,19.1748047 C292.513672,18.4501953 292.5,17.8383789 292.5,17.3393555 L292.5,17.3393555 L292.5,15.6166992 C292.493164,14.659668 292.513672,14.112793 292.561523,13.9760742 C292.643555,13.7436523 292.841797,13.5129395 293.15625,13.2839355 C293.470703,13.0549316 293.867188,12.9404297 294.345703,12.9404297 C294.824219,12.9404297 295.207031,13.0549316 295.494141,13.2839355 C295.78125,13.5129395 295.970947,13.8154297 296.063232,14.1914062 C296.155518,14.5673828 296.20166,15.3535156 296.20166,16.5498047 L296.20166,16.5498047 L296.20166,17.3598633 L296.150391,19.0415039 C296.075195,20.0805664 296.030762,20.671875 296.01709,20.8154297 L296.01709,20.8154297 L296.20166,21 C296.700684,20.9521484 297.288574,20.9282227 297.965332,20.9282227 C298.553223,20.9282227 299.312012,20.9521484 300.241699,21 L300.241699,21 Z M306.486328,21.3588867 C307.053711,21.3588867 307.55957,21.3007812 308.003906,21.1845703 C308.598633,21.0205078 309.17627,20.7675781 309.736816,20.4257812 L309.736816,20.4257812 L310.187988,19.4208984 L309.941895,19.1337891 C309.408691,19.4003906 308.978027,19.576416 308.649902,19.6618652 C308.321777,19.7473145 307.962891,19.7900391 307.573242,19.7900391 C306.670898,19.7900391 305.912109,19.4772949 305.296875,18.8518066 C304.681641,18.2263184 304.34668,17.3735352 304.291992,16.293457 L304.291992,16.293457 L304.96875,16.293457 C305.078125,16.293457 305.177246,16.2900391 305.266113,16.2832031 C305.35498,16.2763672 305.819824,16.2695312 306.660645,16.2626953 C307.501465,16.2558594 308.178223,16.2319336 308.690918,16.190918 C308.85498,16.184082 309.169434,16.1362305 309.634277,16.0473633 C309.98291,15.9790039 310.242676,15.9174805 310.413574,15.862793 C310.427246,15.6850586 310.434082,15.5004883 310.434082,15.309082 C310.434082,14.4614258 310.312744,13.7402344 310.070068,13.1455078 C309.827393,12.5507812 309.412109,12.0620117 308.824219,11.6791992 C308.236328,11.2963867 307.484375,11.1049805 306.568359,11.1049805 C305.918945,11.1049805 305.35498,11.2109375 304.876465,11.4228516 C304.616699,11.5390625 304.199707,11.7851562 303.625488,12.1611328 C303.05127,12.5371094 302.695801,12.793457 302.559082,12.9301758 C302.340332,13.1489258 302.148926,13.5043945 301.984863,13.996582 C301.745605,14.7006836 301.625977,15.5004883 301.625977,16.3959961 C301.625977,17.0112305 301.6875,17.5786133 301.810547,18.0981445 C301.933594,18.6176758 302.133545,19.0756836 302.4104,19.472168 C302.687256,19.8686523 303.008545,20.2036133 303.374268,20.4770508 C303.73999,20.7504883 304.180908,20.9658203 304.697021,21.1230469 C305.213135,21.2802734 305.80957,21.3588867 306.486328,21.3588867 Z M306.240234,15.2680664 C305.296875,15.2680664 304.623535,15.2373047 304.220215,15.1757812 C304.192871,14.1298828 304.356934,13.3779297 304.712402,12.9199219 C305.061035,12.46875 305.501953,12.2431641 306.035156,12.2431641 C306.554688,12.2431641 306.978516,12.4584961 307.306641,12.8891602 C307.62793,13.3266602 307.774902,14.0888672 307.747559,15.1757812 C307.344238,15.2373047 306.841797,15.2680664 306.240234,15.2680664 Z M322.051758,21.3588867 C322.564453,21.3588867 323.003662,21.3127441 323.369385,21.220459 C323.735107,21.1281738 324.211914,20.9350586 324.799805,20.6411133 L324.799805,20.6411133 L325.250977,19.6464844 L325.056152,19.4106445 C324.796387,19.5473633 324.522949,19.6516113 324.23584,19.7233887 C323.94873,19.795166 323.644531,19.8310547 323.323242,19.8310547 C322.619141,19.8310547 322.026123,19.6721191 321.544189,19.354248 C321.062256,19.036377 320.674316,18.5373535 320.380371,17.8571777 C320.086426,17.177002 319.939453,16.40625 319.939453,15.5449219 C319.939453,14.9023438 320.01123,14.3554688 320.154785,13.9042969 C320.29834,13.453125 320.523926,13.1318359 320.831543,12.9404297 C321.13916,12.7490234 321.552734,12.6533203 322.072266,12.6533203 C322.509766,12.6533203 322.878906,12.7268066 323.179688,12.8737793 C323.480469,13.020752 323.702637,13.2104492 323.846191,13.4428711 C323.907715,13.7368164 323.958984,14.1879883 324,14.7963867 L324,14.7963867 L324.799805,14.7963867 C324.847656,14.003418 324.881836,13.5317383 324.902344,13.3813477 L324.902344,13.3813477 L325.158691,11.7099609 L325.056152,11.5356445 C324.734863,11.3920898 324.384521,11.2844238 324.005127,11.2126465 C323.625732,11.1408691 323.217285,11.1049805 322.779785,11.1049805 C322.253418,11.1049805 321.826172,11.1665039 321.498047,11.2895508 C321.299805,11.3579102 320.934082,11.5629883 320.400879,11.9047852 L320.400879,11.9047852 L318.821777,12.8994141 C318.534668,13.1044922 318.305664,13.3232422 318.134766,13.5556641 C317.881836,13.9042969 317.687012,14.3076172 317.550293,14.765625 C317.413574,15.2236328 317.345215,15.8115234 317.345215,16.5292969 C317.345215,17.4863281 317.475098,18.2519531 317.734863,18.8261719 C318.097168,19.6396484 318.626953,20.2651367 319.324219,20.7026367 C320.021484,21.1401367 320.930664,21.3588867 322.051758,21.3588867 Z M332.121094,21 L332.121094,20.1796875 C331.485352,20.1455078 331.136719,20.121582 331.075195,20.1079102 C330.924805,20.0805664 330.818848,20.0429688 330.757324,19.9951172 C330.709473,19.9609375 330.675293,19.9199219 330.654785,19.8720703 C330.620605,19.8037109 330.59668,19.6413574 330.583008,19.3850098 C330.569336,19.1286621 330.548828,18.3886719 330.521484,17.1650391 C330.507812,16.6728516 330.500977,15.9311523 330.500977,14.9399414 L330.500977,14.9399414 L330.500977,12.3149414 C330.507812,10.6264648 330.52832,9.20117188 330.5625,8.0390625 L330.5625,8.0390625 L330.644531,5.96777344 L330.429199,5.84472656 C329.574707,6.11132812 328.894531,6.29760742 328.388672,6.40356445 C327.882812,6.50952148 327.206055,6.60693359 326.358398,6.69580078 L326.358398,6.69580078 L326.358398,7.45458984 C326.871094,7.47509766 327.178711,7.4921875 327.28125,7.50585938 C327.458984,7.53320312 327.588867,7.57421875 327.670898,7.62890625 C327.71875,7.65625 327.756348,7.69384766 327.783691,7.74169922 C327.824707,7.83056641 327.858887,8.11425781 327.88623,8.59277344 C327.934082,9.48144531 327.958008,10.4624023 327.958008,11.5356445 L327.958008,11.5356445 L327.958008,14.9194336 C327.958008,15.7602539 327.947754,16.7241211 327.927246,17.8110352 C327.906738,18.8979492 327.872559,19.5439453 327.824707,19.7490234 C327.804199,19.8583984 327.768311,19.9387207 327.717041,19.9899902 C327.665771,20.0412598 327.588867,20.0805664 327.486328,20.1079102 C327.349609,20.1420898 326.956543,20.1694336 326.307129,20.1899414 L326.307129,20.1899414 L326.307129,21 C327.469238,20.9453125 328.515137,20.9179688 329.444824,20.9179688 C330.374512,20.9179688 331.266602,20.9453125 332.121094,21 L332.121094,21 Z M335.935547,21.2666016 C336.21582,21.2666016 336.509766,21.2324219 336.817383,21.1640625 C338.020508,20.2412109 338.745117,19.7011719 338.991211,19.5439453 L338.991211,19.5439453 L338.898926,20.887207 L338.991211,21 C339.53125,20.9658203 340.088379,20.9487305 340.662598,20.9487305 C341.270996,20.9487305 341.968262,20.9658203 342.754395,21 L342.754395,21 L342.754395,20.230957 C342.17334,20.1899414 341.828125,20.1420898 341.71875,20.0874023 C341.636719,20.0463867 341.582031,19.9643555 341.554688,19.8413086 C341.486328,19.581543 341.452148,18.8432617 341.452148,17.6264648 C341.452148,17.2368164 341.462402,16.734375 341.48291,16.1191406 C341.51709,15.1962891 341.53418,14.6254883 341.53418,14.4067383 C341.53418,13.894043 341.491455,13.4702148 341.406006,13.1352539 C341.320557,12.800293 341.16333,12.4858398 340.934326,12.1918945 C340.705322,11.8979492 340.349854,11.6433105 339.86792,11.4279785 C339.385986,11.2126465 338.772461,11.1049805 338.027344,11.1049805 C337.569336,11.1049805 337.213867,11.1425781 336.960938,11.2177734 C336.776367,11.2724609 336.455078,11.4262695 335.99707,11.6791992 C335.539062,11.9321289 335.057129,12.2294922 334.55127,12.5712891 L334.55127,12.5712891 L334.489746,13.894043 L335.187012,14.0478516 L335.617676,13.012207 C335.774902,12.909668 335.911621,12.8413086 336.027832,12.8071289 C336.294434,12.7319336 336.574707,12.6943359 336.868652,12.6943359 C337.593262,12.6943359 338.133301,12.90625 338.48877,13.3300781 C338.837402,13.7539062 339.004883,14.3725586 338.991211,15.1860352 C337.706055,15.4047852 336.523438,15.7055664 335.443359,16.0883789 C334.992188,16.2456055 334.658936,16.407959 334.443604,16.5754395 C334.228271,16.7429199 334.026611,17.0043945 333.838623,17.3598633 C333.650635,17.715332 333.556641,18.1699219 333.556641,18.7236328 C333.556641,19.5439453 333.766846,20.1728516 334.187256,20.6103516 C334.607666,21.0478516 335.19043,21.2666016 335.935547,21.2666016 Z M337.330078,19.4824219 C336.967773,19.4824219 336.675537,19.362793 336.453369,19.1235352 C336.231201,18.8842773 336.120117,18.5458984 336.120117,18.1083984 C336.120117,17.71875 336.212402,17.395752 336.396973,17.1394043 C336.581543,16.8830566 336.914795,16.6677246 337.396729,16.4934082 C337.878662,16.3190918 338.410156,16.1704102 338.991211,16.0473633 L338.991211,16.0473633 L338.991211,18.5390625 C338.813477,18.8125 338.569092,19.0380859 338.258057,19.2158203 C337.947021,19.3935547 337.637695,19.4824219 337.330078,19.4824219 Z M347.327637,21.3588867 C348.756348,21.3588867 349.865479,21.0102539 350.655029,20.3129883 C351.44458,19.6157227 351.839355,18.7578125 351.839355,17.7392578 C351.839355,17.3496094 351.779541,16.9924316 351.659912,16.6677246 C351.540283,16.3430176 351.367676,16.0712891 351.14209,15.8525391 C350.916504,15.6337891 350.615723,15.4526367 350.239746,15.309082 C349.97998,15.2133789 349.472412,15.095459 348.717041,14.9553223 C347.96167,14.8151855 347.443848,14.7006836 347.163574,14.6118164 C346.883301,14.5229492 346.671387,14.3896484 346.527832,14.2119141 C346.384277,14.0341797 346.3125,13.7607422 346.3125,13.3916016 C346.3125,13.0292969 346.471436,12.7182617 346.789307,12.4584961 C347.107178,12.1987305 347.556641,12.0688477 348.137695,12.0688477 C348.554688,12.0688477 348.918701,12.137207 349.229736,12.2739258 C349.540771,12.4106445 349.802246,12.6157227 350.01416,12.8891602 C350.075684,13.1762695 350.116699,13.4736328 350.137207,13.78125 C350.150879,13.9589844 350.161133,14.0854492 350.167969,14.1606445 L350.167969,14.1606445 L350.95752,14.1708984 C350.998535,13.2548828 351.029297,12.6738281 351.049805,12.4277344 C351.070312,12.1816406 351.101074,11.9389648 351.14209,11.699707 L351.14209,11.699707 L351.111328,11.597168 C350.735352,11.4057617 350.314941,11.262207 349.850098,11.1665039 C349.385254,11.0708008 348.875977,11.0229492 348.322266,11.0229492 C346.989258,11.0229492 345.967285,11.3356934 345.256348,11.9611816 C344.54541,12.5866699 344.189941,13.3710938 344.189941,14.3144531 C344.189941,14.8408203 344.299316,15.3005371 344.518066,15.6936035 C344.736816,16.0866699 345.041016,16.3823242 345.430664,16.5805664 C345.820312,16.7788086 346.392822,16.9599609 347.148193,17.1240234 C347.903564,17.2880859 348.414551,17.4179688 348.681152,17.5136719 C349.022949,17.6708984 349.250244,17.8435059 349.363037,18.0314941 C349.47583,18.2194824 349.532227,18.4570312 349.532227,18.7441406 C349.532227,19.1816406 349.361328,19.5541992 349.019531,19.8618164 C348.677734,20.1694336 348.185547,20.3232422 347.542969,20.3232422 C347.064453,20.3232422 346.640625,20.232666 346.271484,20.0515137 C345.902344,19.8703613 345.563965,19.5917969 345.256348,19.2158203 C345.222168,19.0175781 345.187988,18.5356445 345.153809,17.7700195 L345.153809,17.7700195 L344.333496,17.7700195 L344.271973,19.4926758 C344.258301,19.7114258 344.224121,20.0839844 344.169434,20.6103516 L344.169434,20.6103516 L344.282227,20.7641602 C344.931641,20.9897461 345.481934,21.1452637 345.933105,21.2307129 C346.384277,21.3161621 346.849121,21.3588867 347.327637,21.3588867 Z M356.648438,21.3588867 C358.077148,21.3588867 359.186279,21.0102539 359.97583,20.3129883 C360.765381,19.6157227 361.160156,18.7578125 361.160156,17.7392578 C361.160156,17.3496094 361.100342,16.9924316 360.980713,16.6677246 C360.861084,16.3430176 360.688477,16.0712891 360.462891,15.8525391 C360.237305,15.6337891 359.936523,15.4526367 359.560547,15.309082 C359.300781,15.2133789 358.793213,15.095459 358.037842,14.9553223 L357.79485,14.9095595 C357.170332,14.7900571 356.733507,14.6908095 356.484375,14.6118164 C356.204102,14.5229492 355.992188,14.3896484 355.848633,14.2119141 C355.705078,14.0341797 355.633301,13.7607422 355.633301,13.3916016 C355.633301,13.0292969 355.792236,12.7182617 356.110107,12.4584961 C356.427979,12.1987305 356.877441,12.0688477 357.458496,12.0688477 C357.875488,12.0688477 358.239502,12.137207 358.550537,12.2739258 C358.861572,12.4106445 359.123047,12.6157227 359.334961,12.8891602 C359.396484,13.1762695 359.4375,13.4736328 359.458008,13.78125 C359.47168,13.9589844 359.481934,14.0854492 359.48877,14.1606445 L359.48877,14.1606445 L360.27832,14.1708984 C360.319336,13.2548828 360.350098,12.6738281 360.370605,12.4277344 C360.391113,12.1816406 360.421875,11.9389648 360.462891,11.699707 L360.462891,11.699707 L360.432129,11.597168 C360.056152,11.4057617 359.635742,11.262207 359.170898,11.1665039 C358.706055,11.0708008 358.196777,11.0229492 357.643066,11.0229492 C356.310059,11.0229492 355.288086,11.3356934 354.577148,11.9611816 C353.866211,12.5866699 353.510742,13.3710938 353.510742,14.3144531 C353.510742,14.8408203 353.620117,15.3005371 353.838867,15.6936035 C354.057617,16.0866699 354.361816,16.3823242 354.751465,16.5805664 C355.141113,16.7788086 355.713623,16.9599609 356.468994,17.1240234 C357.224365,17.2880859 357.735352,17.4179688 358.001953,17.5136719 C358.34375,17.6708984 358.571045,17.8435059 358.683838,18.0314941 C358.796631,18.2194824 358.853027,18.4570312 358.853027,18.7441406 C358.853027,19.1816406 358.682129,19.5541992 358.340332,19.8618164 C357.998535,20.1694336 357.506348,20.3232422 356.86377,20.3232422 C356.385254,20.3232422 355.961426,20.232666 355.592285,20.0515137 C355.223145,19.8703613 354.884766,19.5917969 354.577148,19.2158203 C354.542969,19.0175781 354.508789,18.5356445 354.474609,17.7700195 L354.474609,17.7700195 L353.654297,17.7700195 L353.592773,19.4926758 C353.579102,19.7114258 353.544922,20.0839844 353.490234,20.6103516 L353.490234,20.6103516 L353.603027,20.7641602 C354.252441,20.9897461 354.802734,21.1452637 355.253906,21.2307129 C355.705078,21.3161621 356.169922,21.3588867 356.648438,21.3588867 Z M365.39502,9.30029297 C365.83252,9.30029297 366.203369,9.14648438 366.507568,8.83886719 C366.811768,8.53125 366.963867,8.15869141 366.963867,7.72119141 C366.963867,7.29052734 366.811768,6.92138672 366.507568,6.61376953 C366.203369,6.30615234 365.83252,6.15234375 365.39502,6.15234375 C364.95752,6.15234375 364.58667,6.30615234 364.282471,6.61376953 C363.978271,6.92138672 363.826172,7.29052734 363.826172,7.72119141 C363.826172,8.15869141 363.97998,8.53125 364.287598,8.83886719 C364.595215,9.14648438 364.964355,9.30029297 365.39502,9.30029297 Z M368.358398,21 L368.358398,20.2001953 C367.647461,20.1728516 367.199707,20.1147461 367.015137,20.0258789 C366.933105,19.9848633 366.878418,19.902832 366.851074,19.7797852 C366.796387,19.5610352 366.769043,18.8569336 366.769043,17.6674805 L366.769043,14.1811523 C366.769043,13.2446289 366.810059,12.2431641 366.89209,11.1767578 L366.89209,11.1767578 L366.645996,11.043457 C366.023926,11.2963867 365.449707,11.484375 364.92334,11.6074219 C364.396973,11.7304688 363.617676,11.8466797 362.585449,11.9560547 L362.585449,11.9560547 L362.585449,12.7353516 C363.378418,12.7421875 363.843262,12.7900391 363.97998,12.8789062 C364.041504,12.9199219 364.085938,13.0087891 364.113281,13.1455078 C364.174805,13.4394531 364.205566,14.65625 364.205566,16.7958984 L364.205166,17.0812054 C364.20116,18.473093 364.167114,19.3452759 364.103027,19.6977539 C364.075684,19.8754883 364.007324,19.9968262 363.897949,20.0617676 C363.788574,20.126709 363.351074,20.1865234 362.585449,20.2412109 L362.585449,20.2412109 L362.585449,21 C363.337402,20.9726562 364.205566,20.9589844 365.189941,20.9589844 C366.331543,20.9589844 367.387695,20.9726562 368.358398,21 L368.358398,21 Z M381.298828,21 L381.298828,20.2001953 C380.724609,20.1523438 380.382812,20.1181641 380.273438,20.0976562 C380.129883,20.0634766 380.030762,20.013916 379.976074,19.9489746 C379.921387,19.8840332 379.887207,19.7421875 379.873535,19.5234375 C379.839355,19.0927734 379.822266,18.1254883 379.822266,16.621582 L379.822812,15.9425456 C379.825182,14.5344944 379.835254,13.537207 379.853027,12.9506836 C379.859863,12.5131836 379.894043,11.921875 379.955566,11.1767578 L379.955566,11.1767578 L379.709473,11.043457 C378.731934,11.3852539 377.995361,11.6091309 377.499756,11.7150879 C377.00415,11.8210449 376.421387,11.8808594 375.751465,11.8945312 L375.751465,11.8945312 L373.393066,11.9355469 L373.393422,10.6649882 C373.396033,10.452457 373.413005,9.93261719 373.444336,9.10546875 C373.451172,8.76367188 373.497314,8.51074219 373.582764,8.34667969 C373.668213,8.18261719 373.806641,8.04418945 373.998047,7.93139648 C374.189453,7.81860352 374.411621,7.76220703 374.664551,7.76220703 C374.896973,7.76220703 375.129395,7.81347656 375.361816,7.91601562 C375.45752,7.95703125 375.553223,8.02368164 375.648926,8.1159668 C375.744629,8.20825195 375.812988,8.27490234 375.854004,8.31591797 L375.854004,8.31591797 L376.253906,8.15185547 L376.26416,7.81347656 C376.291504,7.48535156 376.312012,7.24951172 376.325684,7.10595703 C376.339355,6.96240234 376.363281,6.78125 376.397461,6.5625 C376.438477,6.35742188 376.496582,6.1796875 376.571777,6.02929688 C376.216309,5.88574219 375.799316,5.81396484 375.320801,5.81396484 C375.033691,5.81396484 374.75,5.88232422 374.469727,6.01904297 C374.264648,6.11474609 373.987793,6.33691406 373.63916,6.68554688 C373.372559,6.9453125 372.994873,7.27856445 372.506104,7.68530273 L372.304478,7.85574777 C371.916922,8.18889509 371.623535,8.47558594 371.424316,8.71582031 C371.191895,8.99609375 371.029541,9.2746582 370.937256,9.55151367 C370.844971,9.82836914 370.798828,10.1513672 370.798828,10.5205078 L370.798828,10.5205078 L370.82959,11.8125 C370.692871,11.9355469 370.556152,12.0380859 370.419434,12.1201172 L370.419434,12.1201172 L369.445312,12.7558594 L369.445312,13.2172852 C370.135742,13.1899414 370.604004,13.1694336 370.850098,13.1557617 L370.850098,13.1557617 L370.891113,14.4375 L370.891113,17.7084961 L370.870605,19.2363281 C370.856934,19.5371094 370.819336,19.7524414 370.757812,19.8823242 C370.723633,19.9575195 370.675781,20.015625 370.614258,20.0566406 C370.552734,20.0976562 370.450195,20.128418 370.306641,20.1489258 L370.306641,20.1489258 L369.404297,20.2412109 L369.404297,21 L372.224121,20.9589844 L375.013184,21 L375.013184,20.2001953 C374.288574,20.1796875 373.830566,20.121582 373.63916,20.0258789 C373.577637,19.9916992 373.533203,19.9438477 373.505859,19.8823242 C373.444336,19.7319336 373.413574,19.2978516 373.413574,18.5800781 L373.413574,18.5800781 L373.393066,16.9907227 L373.393066,13.1557617 L375.730957,13.1557617 L375.854004,12.7558594 L376.541016,12.7558594 C376.780273,12.7558594 376.97168,12.796875 377.115234,12.8789062 C377.19043,12.9199219 377.245117,12.9848633 377.279297,13.0737305 C377.327148,13.2036133 377.351074,13.5214844 377.351074,14.0273438 L377.351074,14.0273438 L377.351074,16.621582 C377.351074,17.0932617 377.337402,17.8486328 377.310059,18.8876953 C377.296387,19.3935547 377.258789,19.7182617 377.197266,19.8618164 C377.163086,19.9438477 377.115234,20.0070801 377.053711,20.0515137 C376.992188,20.0959473 376.893066,20.128418 376.756348,20.1489258 L376.756348,20.1489258 L375.833496,20.2412109 L375.833496,21 C376.366699,20.9726562 377.009277,20.9589844 377.76123,20.9589844 C377.771484,20.9589844 377.783709,20.9590126 377.797903,20.9590691 L377.906713,20.9597471 C378.326149,20.9629673 379.456854,20.9763849 381.298828,21 L381.298828,21 Z M378.807129,9.30029297 C379.244629,9.30029297 379.617188,9.14648438 379.924805,8.83886719 C380.232422,8.53125 380.38623,8.15869141 380.38623,7.72119141 C380.38623,7.29052734 380.232422,6.9230957 379.924805,6.61889648 C379.617188,6.31469727 379.244629,6.16259766 378.807129,6.16259766 C378.369629,6.16259766 377.998779,6.31640625 377.69458,6.62402344 C377.390381,6.93164062 377.238281,7.30419922 377.238281,7.74169922 C377.238281,8.15185547 377.393799,8.51416016 377.704834,8.82861328 C378.015869,9.14306641 378.383301,9.30029297 378.807129,9.30029297 Z M387.512695,21.3588867 C388.080078,21.3588867 388.585938,21.3007812 389.030273,21.1845703 C389.625,21.0205078 390.202637,20.7675781 390.763184,20.4257812 L390.763184,20.4257812 L391.214355,19.4208984 L390.968262,19.1337891 C390.435059,19.4003906 390.004395,19.576416 389.67627,19.6618652 C389.348145,19.7473145 388.989258,19.7900391 388.599609,19.7900391 C387.697266,19.7900391 386.938477,19.4772949 386.323242,18.8518066 C385.708008,18.2263184 385.373047,17.3735352 385.318359,16.293457 L385.318359,16.293457 L385.995117,16.293457 C386.104492,16.293457 386.203613,16.2900391 386.29248,16.2832031 C386.381348,16.2763672 386.846191,16.2695312 387.687012,16.2626953 C388.527832,16.2558594 389.20459,16.2319336 389.717285,16.190918 C389.881348,16.184082 390.195801,16.1362305 390.660645,16.0473633 C391.009277,15.9790039 391.269043,15.9174805 391.439941,15.862793 C391.453613,15.6850586 391.460449,15.5004883 391.460449,15.309082 C391.460449,14.4614258 391.339111,13.7402344 391.096436,13.1455078 C390.85376,12.5507812 390.438477,12.0620117 389.850586,11.6791992 C389.262695,11.2963867 388.510742,11.1049805 387.594727,11.1049805 C386.945312,11.1049805 386.381348,11.2109375 385.902832,11.4228516 C385.643066,11.5390625 385.226074,11.7851562 384.651855,12.1611328 C384.077637,12.5371094 383.722168,12.793457 383.585449,12.9301758 C383.366699,13.1489258 383.175293,13.5043945 383.01123,13.996582 C382.771973,14.7006836 382.652344,15.5004883 382.652344,16.3959961 C382.652344,17.0112305 382.713867,17.5786133 382.836914,18.0981445 C382.959961,18.6176758 383.159912,19.0756836 383.436768,19.472168 C383.713623,19.8686523 384.034912,20.2036133 384.400635,20.4770508 C384.766357,20.7504883 385.207275,20.9658203 385.723389,21.1230469 C386.239502,21.2802734 386.835938,21.3588867 387.512695,21.3588867 Z M387.266602,15.2680664 C386.323242,15.2680664 385.649902,15.2373047 385.246582,15.1757812 C385.219238,14.1298828 385.383301,13.3779297 385.73877,12.9199219 C386.087402,12.46875 386.52832,12.2431641 387.061523,12.2431641 C387.581055,12.2431641 388.004883,12.4584961 388.333008,12.8891602 C388.654297,13.3266602 388.80127,14.0888672 388.773926,15.1757812 C388.370605,15.2373047 387.868164,15.2680664 387.266602,15.2680664 Z M398.720215,21 L398.720215,20.2104492 L397.879395,20.128418 C397.51709,20.1010742 397.28125,20.0532227 397.171875,19.9848633 C397.0625,19.9165039 396.992432,19.8225098 396.96167,19.7028809 C396.930908,19.583252 396.912109,19.2602539 396.905273,18.7338867 L396.905273,18.7338867 L396.884766,17.3393555 L396.884975,16.1051723 C396.886789,15.2287423 396.900391,14.7207031 396.925781,14.5810547 C396.980469,14.3212891 397.153076,14.0666504 397.443604,13.8171387 C397.734131,13.567627 398.081055,13.4428711 398.484375,13.4428711 C398.785156,13.4428711 399.062012,13.5146484 399.314941,13.6582031 C399.472168,13.7470703 399.63623,13.9042969 399.807129,14.1298828 L399.807129,14.1298828 L400.237793,13.996582 C400.251465,13.8803711 400.268555,13.4257812 400.289062,12.6328125 L400.289062,12.6328125 L400.350586,11.1767578 C400.145508,11.0947266 399.916504,11.0537109 399.663574,11.0537109 C399.260254,11.0537109 398.935547,11.1357422 398.689453,11.2998047 C398.511719,11.4160156 398.245117,11.6860352 397.889648,12.1098633 C397.650391,12.4106445 397.308594,12.7900391 396.864258,13.2480469 L396.864258,13.2480469 L396.884766,11.1767578 L396.60791,11.0537109 C396.115723,11.2792969 395.674805,11.4433594 395.285156,11.5458984 C394.895508,11.6484375 394.078613,11.8056641 392.834473,12.0175781 L392.834473,12.0175781 L392.834473,12.8071289 C393.477051,12.8276367 393.863281,12.8618164 393.993164,12.909668 C394.075195,12.9370117 394.13501,12.9797363 394.172607,13.0378418 C394.210205,13.0959473 394.239258,13.34375 394.259766,13.78125 C394.300781,14.6494141 394.321289,15.3876953 394.321289,15.9960938 L394.321289,15.9960938 L394.32108,17.5166016 C394.320243,17.8564453 394.316895,18.1083984 394.311035,18.2724609 L394.311035,18.2724609 L394.27002,19.1850586 C394.263184,19.5473633 394.225586,19.793457 394.157227,19.9233398 C394.109375,20.0053711 394.037598,20.0634766 393.941895,20.0976562 C393.736816,20.1728516 393.367676,20.2104492 392.834473,20.2104492 L392.834473,20.2104492 L392.834473,21 C393.976074,20.9658203 395.07666,20.9487305 396.13623,20.9487305 C397.086426,20.9487305 397.947754,20.9658203 398.720215,21 L398.720215,21 Z M404.462402,21.3588867 C405.891113,21.3588867 407.000244,21.0102539 407.789795,20.3129883 C408.579346,19.6157227 408.974121,18.7578125 408.974121,17.7392578 C408.974121,17.3496094 408.914307,16.9924316 408.794678,16.6677246 C408.675049,16.3430176 408.502441,16.0712891 408.276855,15.8525391 C408.05127,15.6337891 407.750488,15.4526367 407.374512,15.309082 C407.114746,15.2133789 406.607178,15.095459 405.851807,14.9553223 L405.608814,14.9095595 C404.984297,14.7900571 404.547472,14.6908095 404.29834,14.6118164 C404.018066,14.5229492 403.806152,14.3896484 403.662598,14.2119141 C403.519043,14.0341797 403.447266,13.7607422 403.447266,13.3916016 C403.447266,13.0292969 403.606201,12.7182617 403.924072,12.4584961 C404.241943,12.1987305 404.691406,12.0688477 405.272461,12.0688477 C405.689453,12.0688477 406.053467,12.137207 406.364502,12.2739258 C406.675537,12.4106445 406.937012,12.6157227 407.148926,12.8891602 C407.210449,13.1762695 407.251465,13.4736328 407.271973,13.78125 C407.285645,13.9589844 407.295898,14.0854492 407.302734,14.1606445 L407.302734,14.1606445 L408.092285,14.1708984 C408.133301,13.2548828 408.164062,12.6738281 408.18457,12.4277344 C408.205078,12.1816406 408.23584,11.9389648 408.276855,11.699707 L408.276855,11.699707 L408.246094,11.597168 C407.870117,11.4057617 407.449707,11.262207 406.984863,11.1665039 C406.52002,11.0708008 406.010742,11.0229492 405.457031,11.0229492 C404.124023,11.0229492 403.102051,11.3356934 402.391113,11.9611816 C401.680176,12.5866699 401.324707,13.3710938 401.324707,14.3144531 C401.324707,14.8408203 401.434082,15.3005371 401.652832,15.6936035 C401.871582,16.0866699 402.175781,16.3823242 402.56543,16.5805664 C402.955078,16.7788086 403.527588,16.9599609 404.282959,17.1240234 C405.03833,17.2880859 405.549316,17.4179688 405.815918,17.5136719 C406.157715,17.6708984 406.38501,17.8435059 406.497803,18.0314941 C406.610596,18.2194824 406.666992,18.4570312 406.666992,18.7441406 C406.666992,19.1816406 406.496094,19.5541992 406.154297,19.8618164 C405.8125,20.1694336 405.320312,20.3232422 404.677734,20.3232422 C404.199219,20.3232422 403.775391,20.232666 403.40625,20.0515137 C403.037109,19.8703613 402.69873,19.5917969 402.391113,19.2158203 C402.356934,19.0175781 402.322754,18.5356445 402.288574,17.7700195 L402.288574,17.7700195 L401.468262,17.7700195 L401.406738,19.4926758 C401.393066,19.7114258 401.358887,20.0839844 401.304199,20.6103516 L401.304199,20.6103516 L401.416992,20.7641602 C402.066406,20.9897461 402.616699,21.1452637 403.067871,21.2307129 C403.519043,21.3161621 403.983887,21.3588867 404.462402,21.3588867 Z" id="Explanationsformonotoneclassifiers" fill="#000000" fill-rule="nonzero"></path>
            <path id="Line-5" d="M30,-5.32945772 L31.7431511,-2.23052248 L42.9931511,17.7694775 L43.9736736,19.5126286 L40.4873714,21.4736736 L39.5068489,19.7305225 L32,6.386 L32,412 L28,412 L28,6.385 L20.4931511,19.7305225 L19.5126286,21.4736736 L16.0263264,19.5126286 L17.0068489,17.7694775 L28.2568489,-2.23052248 L30,-5.32945772 Z" fill="#000000" fill-rule="nonzero"></path>
        </g>
    </g>
</svg>
